<svg width="503" height="486" viewBox="0 0 503 486" fill="none" xmlns="http://www.w3.org/2000/svg">
<rect width="503" height="486"/>
<path d="M139.5 175C136 177.5 128.5 182.5 122 191C121 188.5 113.254 173.969 107.007 176.656C98.5752 181.467 92.5395 205.547 80.4524 212.058C71.5639 216.33 60.728 213.915 49.0284 197.88C56.2906 194.32 58.2484 193.36 61.878 191.089C63.7527 189.802 65.3173 188.672 66.9309 187.842C68.5511 186.473 68.5437 198.514 72.5752 192.33C78.3943 182.783 93.4058 147.415 110.388 148.339C120.877 148.91 143 172.5 139.5 175Z" fill="#C1D2E8"/>
<path d="M325.546 113.529C326.531 126.329 325.5 132.5 335.5 144L331 145C316 149 306.5 156.5 300.5 164C297.167 161.333 290.646 149.329 293.046 124.529C296.046 93.5287 322.546 79.5287 328.046 80.5287C332.652 81.366 324.546 100.529 325.546 113.529Z" fill="#306B98"/>
<path d="M434.5 146.5C428.833 155 426 158.5 407 165C417 173.5 425 184 428.5 202C441 195 457.5 187 461.5 170.5C465 147.5 458 117 445 115C436 115 442.5 134.5 434.5 146.5Z" fill="#306B98"/>
<path d="M134.05 398.5C133.65 392.1 137.55 357.5 139.55 341L172.55 361C172.217 368.333 171.35 384.7 170.55 391.5C169.55 400 157.55 408.5 163.05 409C168.55 409.5 180.55 412 178.55 423.5C176.55 435 158.55 444 122.55 445.5C86.5502 447 76.5502 425 76.0502 413C75.5502 401 78.5502 390.5 96.0502 390C113.55 389.5 134.55 406.5 134.05 398.5Z" fill="#306B98"/>
<path d="M137.046 405.375C136.957 403.942 137.11 400.728 137.454 396.29C137.792 391.912 138.303 386.49 138.89 380.741C139.926 370.593 141.195 359.459 142.166 351.318L171.497 369.095C171.13 376.891 170.314 391.893 169.564 398.266C169.361 399.994 168.577 401.84 167.46 403.734C166.391 405.547 165.102 407.265 163.907 408.858C163.858 408.922 163.81 408.986 163.763 409.05C163.158 409.856 162.569 410.646 162.083 411.368C161.612 412.068 161.154 412.825 160.884 413.561C160.638 414.23 160.345 415.439 161.084 416.556C161.802 417.642 163.023 417.915 163.869 417.992C166.524 418.233 170.523 418.948 173.561 420.826C175.051 421.747 176.233 422.901 176.957 424.348C177.67 425.775 178.017 427.645 177.58 430.157C176.753 434.912 172.526 439.636 163.527 443.405C154.583 447.152 141.347 449.757 123.467 450.502C105.906 451.233 94.9738 446.237 88.3762 439.873C81.7313 433.463 79.28 425.473 79.0484 419.917C78.8028 414.022 79.4551 408.952 81.949 405.32C84.3486 401.824 88.7641 399.238 97.1073 398.999C105.331 398.764 114.531 402.668 122.007 405.898C122.132 405.953 122.258 406.007 122.383 406.061C125.83 407.552 129.036 408.938 131.369 409.433C132.515 409.676 133.991 409.837 135.227 409.172C136.764 408.344 137.133 406.762 137.046 405.375Z" fill="#306B98" stroke="#202851" stroke-width="4"/>
<path d="M275 431C266.5 421 260.5 406.5 258 396C261 393 279.5 392 289 389C290.5 394 300.5 423.5 304 422C307.5 420.5 337 405 343 420C350 444 316 458 310.5 460C305 462 268 473 259.5 449.5C256 428.5 275 433.5 275 431Z" fill="#306B98"/>
<path d="M70.1677 290C73.1677 284.5 94.1677 284.5 95.1677 268C99.6677 285 140.668 329.898 202.168 357C261.168 383 336.668 358.5 345.668 355C352.668 351.5 361.668 363.107 370.168 371C375.168 375.643 365.168 388.5 320.668 403C251.168 422 202.168 409 164.168 383C153.168 376 65.6677 304 70.1677 290Z" fill="#202851"/>
<path d="M309.546 76C315.146 77.2 315.88 81.5 315.546 83.5C318.213 83.5 324.046 83.2 326.046 82C328.546 80.5 331.046 82.5 332.046 69.5C333.046 56.5 279.546 43 272.546 43C265.546 43 256.046 70 264.046 69.5C272.046 69 302.546 74.5 309.546 76Z" fill="#BD651D" stroke="white" stroke-width="2" stroke-linejoin="round"/>
<path d="M351 77.0286C347.4 82.6286 333.333 85.6953 327.5 86.5286C327 85.362 330 80.5286 324 80.5286C327 76.0286 330.5 80.5286 331.5 69.0286C332 57.5286 310.5 52.0286 291 44.5286C294 37.0286 298 27.0286 311 26.0286C324 25.0286 347.5 50.5286 352.5 56.0286C355.682 59.5286 355.5 70.0286 351 77.0286Z" fill="#346D9A" stroke="white" stroke-width="2" stroke-linejoin="round"/>
<path d="M434.791 213.79C437.291 187.79 416.033 160.813 383.791 152.29C340.291 140.79 310.791 153.29 297.791 179.29C283.791 212.29 304.504 233 308.791 243.29C311.291 249.29 305.291 258.29 302.791 270.29C299.562 285.79 302.791 313.79 341.291 319.79C378.533 324.5 382.291 313.79 392.291 293.29C399.262 279 390.533 270.29 396.291 262.29C404.791 251.79 430.945 253.79 434.791 213.79Z" fill="#202851"/>
<path d="M428.791 207.79C431.291 181.79 410.033 154.813 377.791 146.29C334.291 134.79 304.791 147.29 291.791 173.29C277.791 206.29 298.504 227 302.791 237.29C305.291 243.29 299.291 252.29 296.791 264.29C293.562 279.79 296.791 307.79 335.291 313.79C372.533 318.5 376.291 307.79 386.291 287.29C393.262 273 384.533 264.29 390.291 256.29C398.791 245.79 424.945 247.79 428.791 207.79Z" fill="#C1D2E8"/>
<path d="M407 211.529C407 201.911 401 191.529 390 191.529C370.5 192.529 368 208.529 372 218.029C376 227.529 384.78 229.029 390 229.029C399 229.029 407 220.529 407 211.529Z" fill="white" stroke="white" stroke-linejoin="round"/>
<path d="M344 195.029C345 180.029 331.5 176.029 325.5 176.029C312.5 175.029 305 187.029 305.5 196.529C306 206.029 317 214.591 325.5 213.529C333.5 212.529 343 210.029 344 195.029Z" fill="white" stroke="white" stroke-linejoin="round"/>
<path d="M284.5 433V432.449L284.143 432.029C276.101 422.567 270.298 408.893 267.703 398.644C267.88 398.555 268.096 398.458 268.354 398.356C269.077 398.071 270.009 397.793 271.129 397.52C273.369 396.973 276.205 396.481 279.302 395.981C280.102 395.851 280.921 395.721 281.749 395.59C286.65 394.812 291.916 393.976 296.008 392.854C297.147 396.404 299.659 403.749 302.357 410.495C303.925 414.415 305.578 418.188 307.077 420.905C307.82 422.249 308.571 423.422 309.302 424.226C309.664 424.624 310.094 425.016 310.593 425.269C311.116 425.535 311.84 425.701 312.591 425.379C312.916 425.24 313.423 425.001 314.083 424.691C317.258 423.199 323.97 420.045 330.934 418.266C335.139 417.192 339.256 416.672 342.612 417.252C345.863 417.813 348.309 419.374 349.581 422.491C352.776 433.574 346.627 442.48 338.492 449.086C330.368 455.682 320.673 459.614 317.987 460.59C315.324 461.559 304.88 464.751 294.117 464.813C283.336 464.874 272.905 461.828 268.957 451.118C268.147 446.137 268.697 442.906 269.781 440.784C270.861 438.671 272.571 437.458 274.484 436.709C276.423 435.951 278.486 435.699 280.231 435.486L280.268 435.481L280.295 435.478C281.107 435.379 281.955 435.275 282.595 435.096C282.915 435.006 283.335 434.859 283.699 434.58C284.118 434.259 284.5 433.726 284.5 433Z" fill="#306B98" stroke="#202851" stroke-width="3"/>
<path d="M138.5 172C135 174.5 127.5 179.5 121 188C120 185.5 112.254 170.969 106.007 173.656C97.5752 178.467 91.5395 202.547 79.4524 209.058C70.5639 213.33 59.728 210.915 48.0284 194.88C55.2906 191.32 57.2484 190.36 60.878 188.089C62.7527 186.802 64.3173 185.672 65.9309 184.842C67.5511 183.473 67.5437 195.514 71.5752 189.33C77.3943 179.783 92.4058 144.415 109.388 145.339C119.877 145.91 142 169.5 138.5 172Z" fill="#346D9A"/>
<path d="M48.0284 194.88C59.728 210.915 70.5639 213.33 79.4524 209.058C91.5395 202.547 97.5752 178.467 106.007 173.656C112.254 170.969 120 185.5 121 188C127.5 179.5 135 174.5 138.5 172C142 169.5 119.877 145.91 109.388 145.339C92.4058 144.415 77.3943 179.783 71.5752 189.33C67.5437 195.514 67.5511 183.473 65.9309 184.842M48.0284 194.88C57.971 190.006 57.971 190.006 65.9309 184.842M48.0284 194.88C57.8716 191.19 61.7358 186.999 65.9309 184.842" stroke="white" stroke-width="2"/>
<path d="M66 185L48.5 194.5C38.2915 184.611 40 148.775 42.9655 148.775C49 148 56.4196 155.228 60.5 164C63.6113 168.777 68.7422 182.22 66 185Z" fill="#BD651D"/>
<path d="M48.5 194.5L66 185M48.5 194.5C48.5 194.5 62.3158 187 66 185M48.5 194.5C38.2915 184.611 40 148.775 42.9655 148.775C49 148 56.4196 155.228 60.5 164C63.6113 168.777 68.7422 182.22 66 185" stroke="white" stroke-width="2"/>
<path d="M326.354 276.228C327.854 272.728 328.854 266.728 323.354 265.228C319.354 264.137 316.354 267.728 315.354 271.228C314.354 274.728 315.354 278.728 319.854 280.228C322.354 281.061 324.854 279.728 326.354 276.228Z" fill="#202851" stroke="white" stroke-width="2"/>
<path d="M356.584 282.574C357.506 279.349 357.084 274.574 352.084 274.074C348.084 273.574 344.623 277.304 344.084 281.074C343.584 284.574 345.32 288.697 349.084 289.074C354.084 289.574 355.584 286.074 356.584 282.574Z" fill="#202851" stroke="white" stroke-width="2"/>
<path d="M392.5 214.529C394 211.029 393 204.529 386.5 204.029C383 204.029 378.5 206.529 378 210.029C377.5 213.529 380.5 219.529 384.5 219.529C388.5 219.529 391.08 217.843 392.5 214.529Z" fill="#202851" stroke="white"/>
<path d="M329 196.529C330 192.529 327 188.029 322.5 188.029C317 188.029 313.5 192.029 313.5 195.529C313.5 198.029 315.5 204.029 320.5 204.029C325 204.029 328 200.529 329 196.529Z" fill="#202851" stroke="white"/>
<path d="M362 187L352.5 165L384.5 172L362 187Z" fill="#306B98" stroke="white" stroke-width="2" stroke-linejoin="round"/>
<path d="M265.644 158.238C272.217 157.464 289.616 159.485 298.374 163.131C289.938 182.569 268.448 188.522 258.901 188.829C249.353 189.135 241.665 184.564 241.749 176.549C241.832 168.533 252.496 159.786 265.644 158.238Z" fill="#346D9A" stroke="white" stroke-width="2" stroke-linejoin="round"/>
<path d="M323.546 112.529C324.531 125.329 323.5 131.5 333.5 143L329 144C314 148 304.5 155.5 298.5 163C295.167 160.333 288.646 148.329 291.046 123.529C294.046 92.5287 320.546 78.5287 326.046 79.5287C330.652 80.366 322.546 99.5287 323.546 112.529Z" fill="#202851"/>
<path d="M387.46 107.374C399.96 105.874 431.46 109.874 439.96 116.874C442.96 112.874 452.46 118.874 455.46 105.874C458.46 92.8737 408.46 84.3737 398.96 80.3737C389.46 76.3737 378.185 108.487 387.46 107.374Z" fill="#BD651D" stroke="white" stroke-width="2" stroke-linejoin="round"/>
<path d="M473.5 92.1333C470 83.1333 444 67.6333 435.5 66.1333C430.65 64.6333 415 76.1333 413 83.6333C433 89.1333 456 99.1333 456 104.633C456 110.133 450 113.133 451 114.633C452 116.133 453.5 117.133 455 123.633C465 124.467 471 116.633 473 114.633C475 112.633 477 101.133 473.5 92.1333Z" fill="#346D9A" stroke="white" stroke-width="2" stroke-linejoin="round"/>
<path d="M434.5 142.5C428.833 151 426 154.5 407 161C417 169.5 425 180 428.5 198C441 191 457.5 183 461.5 166.5C465 143.5 458 113 445 111C436 111 442.5 130.5 434.5 142.5Z" fill="#202851"/>
<path d="M462 217C464 195.4 437.5 187.333 424 186C426 191 422 207 422 211.5C422 216 437 231 439 232.5C441 234 459.5 244 462 217Z" fill="#346D9A" stroke="#FCFCFC" stroke-width="2" stroke-linejoin="round"/>
<path d="M349 241.804C340.726 240.663 315.833 240.804 305 241.804C302.5 245.304 301 254.804 301 259.304C317.5 257.804 331.05 259.754 345 261.304C367.5 263.804 384.5 277.804 387.5 279.804C387.5 263.304 387.5 266.304 388.5 259.304C376 246.304 359 243.183 349 241.804Z" fill="#BD651D"/>
<path d="M260 216.944C272 222.944 284.333 219.444 289 216.944C297 235 301.5 237.5 299.5 244C277.5 304.5 324.5 318.5 340.5 321C346 327.5 336.5 330.444 344 341.444C270.5 369.944 157 363.444 91.0001 253.444C114.5 168.944 165.5 157.444 190 160.444C214.5 163.444 245 209.444 260 216.944Z" fill="#202851"/>
<path d="M51.0491 303.529C42.0491 290.529 54.5492 297.529 68.0491 280.029C72.0491 287.029 73.5491 286.029 78.0491 291.529C60.5491 303.029 59.5491 320.529 51.0491 303.529Z" fill="#BD651D" stroke="white" stroke-width="2" stroke-linejoin="round"/>
<path d="M103.5 317.529L94 306.529C95 309.529 78 320.029 75 322.529C72 325.029 82.5 333.029 85 336.029C87 338.429 98.1667 324.695 103.5 317.529Z" fill="#306B98" stroke="white" stroke-width="2" stroke-linejoin="round"/>
<path d="M128.5 341.529L117.5 330.529C116 334.529 101.688 343.763 98 346.529C94 349.529 105.751 362.695 109 360.529C113.5 357.529 120.5 346.529 128.5 341.529Z" fill="#20284F" stroke="white" stroke-width="2" stroke-linejoin="round"/>
<path d="M156 363.029L143.5 355.029L143 355.529C142.5 360.529 128 367.529 126 369.529C124 371.529 131 381.529 137 382.029C141.8 382.429 151.667 369.529 156 363.029Z" fill="#BD651D" stroke="white" stroke-width="2" stroke-linejoin="round"/>
<path d="M182 378.529C180 377.729 172.5 373.195 169 371.029C169 375.529 155.5 387.029 153.5 389.529C151.5 392.029 166 407.029 167.5 401.029C169 395.029 184.5 379.529 182 378.529Z" fill="#20284F" stroke="white" stroke-width="2" stroke-linejoin="round"/>
<path d="M211 390.029C207 389.229 200 386.362 197 385.029C196 392.529 187.5 401.029 185 405.029C182.5 409.029 201 420.529 199.5 413.029C198 405.529 216 391.029 211 390.029Z" fill="#306B98" stroke="white" stroke-width="2" stroke-linejoin="round"/>
<path d="M244.5 393.029H230.5C231 398.529 221 407.529 222 412.529C223 417.529 231 419.029 236.5 419.529C240.9 419.929 243.667 402.029 244.5 393.029Z" fill="#BD651D" stroke="white" stroke-width="2" stroke-linejoin="round"/>
<path d="M274 394.029H262C263.5 399.029 256 416.029 257.5 418.029C259 420.029 264 419.529 270.5 419.529C275.7 419.529 275 402.529 274 394.029Z" fill="#306B98" stroke="white" stroke-width="2" stroke-linejoin="round"/>
<path d="M309.5 387.029L294.5 390.029C296 394.529 292 412.029 295 413.529C298 415.029 307 414.529 309.5 412.029C311.5 410.029 310.333 394.529 309.5 387.029Z" fill="#BD651D" stroke="white" stroke-width="2" stroke-linejoin="round"/>
<path d="M335.5 379.529L321 384.529C325.5 388.029 321.5 406.529 326 407.529C330.5 408.529 341 409.029 342.5 402.029C343.7 396.429 338.333 384.695 335.5 379.529Z" fill="#202851" stroke="white" stroke-width="2" stroke-linejoin="round"/>
<path d="M361.5 365.029L349 373.889C356 379.889 355.205 397.181 360.5 395.389C366 393.529 370.793 393.075 373 389.029C376 383.529 364.833 369.529 361.5 365.029Z" fill="#BD651D" stroke="white" stroke-width="2" stroke-linejoin="round"/>
<path d="M124.593 230.34C124.222 236.803 126.007 241.434 129.542 243.752C133.74 246.649 144.538 238.489 144.796 238.586C145.342 238.956 144.779 247.493 145.117 248.94C146.508 255.404 150.484 260.198 155.217 261.15C158.64 261.941 162.526 259.934 166.201 257.187C166.481 256.962 167.656 255.918 167.805 256.304C168.157 256.931 167.088 260.821 167.105 261.818C167.18 269.439 172.641 276.276 177.211 277.662C180.751 278.661 195.69 271.726 195.808 271.935C196.182 272.241 195.119 279.765 195.254 280.971C195.661 286.405 198.567 290.137 201.859 291.538C207.81 293.938 215.728 283.542 219.526 284.638C219.783 284.734 219.76 285.056 219.823 285.41C220.298 289.88 220.825 292.388 222.842 295.621C226.726 301.701 228.815 302.9 235.593 300.493" stroke="white" stroke-width="6" stroke-miterlimit="10" stroke-linecap="round" stroke-linejoin="round"/>
<path d="M136.694 211C137.234 216.436 140.078 220.644 144.666 223.152C150.138 226.253 161.834 220.963 162.157 221.085C162.868 221.482 163.494 228.651 164.119 229.933C166.77 235.638 172.264 240.317 178.08 241.847C182.302 243.04 186.653 241.926 190.637 240.152C190.939 240.003 192.188 239.295 192.425 239.646C192.942 240.232 192.254 243.375 192.426 244.225C193.677 250.713 201.261 257.354 206.948 259.228C211.342 260.617 228.186 256.998 228.359 257.194C228.854 257.511 228.726 263.743 229.071 264.788C230.386 269.468 234.437 273.082 238.594 274.774C246.091 277.72 253.994 270.091 258.712 271.601C259.035 271.722 259.057 271.992 259.186 272.302C260.437 276.173 261.449 278.385 264.358 281.44" stroke="white" stroke-width="6" stroke-miterlimit="10" stroke-linecap="round" stroke-linejoin="round"/>
<path d="M67.1677 276.029C70.1677 270.529 91.1677 270.529 92.1677 254.029C96.6677 271.029 137.668 315.927 199.168 343.029C258.168 369.029 333.668 344.529 342.668 341.029C349.668 337.529 358.668 349.136 367.168 357.029C372.168 361.671 362.168 374.529 317.668 389.029C248.168 408.029 199.168 395.029 161.168 369.029C150.168 362.029 62.6677 290.029 67.1677 276.029Z" fill="#C1D2E8"/>
<path d="M90.5001 255C137.5 324.5 220.5 379 343 340.5" stroke="white" stroke-width="4" stroke-linecap="round"/>
</svg>
