<svg width="1080" height="1080" viewBox="0 0 1080 1080" fill="none" xmlns="http://www.w3.org/2000/svg">
<g clip-path="url(#clip0_45_3746)">
<mask id="mask0_45_3746" style="mask-type:luminance" maskUnits="userSpaceOnUse" x="0" y="821" width="1080" height="259">
<path d="M-3.05176e-05 821.333H1080V1079.9H-3.05176e-05V821.333Z" fill="white"/>
</mask>
<g mask="url(#mask0_45_3746)">
<path d="M1080 877.328V1079.83H-3.05176e-05V823.136C11.9739 821.432 24.6718 823.271 35.75 828.005C59.8177 838.292 79.3281 857.62 103.844 866.802C174.583 893.292 248.729 827.021 324.036 832.859C372.5 836.62 414.193 869.802 462.141 877.813C560.802 894.276 660.396 802.037 754.161 836.87C792.109 850.964 820.927 884.094 859.443 896.557C901.937 910.313 947.755 896.63 991.089 885.802C1019.86 878.609 1051.22 873.078 1080 877.328Z" fill="#C1D1E8"/>
</g>
<path d="M990.646 884.052C987.302 884.896 983.937 885.745 980.562 886.599C940.318 896.818 898.714 907.38 859.995 894.844C840.255 888.458 822.677 876.281 805.687 864.511C789.74 853.458 773.245 842.031 754.792 835.177C731.937 826.688 706.625 824.974 677.391 829.922C651.422 834.323 624.724 843.479 598.901 852.344C554.115 867.708 507.797 883.604 462.432 876.031C440.458 872.365 419.385 863.167 399 854.271C375.161 843.87 350.51 833.115 324.172 831.068C290.521 828.464 256.948 840.141 224.479 851.438C182.755 865.958 143.344 879.667 104.474 865.115C91.7448 860.344 80.0937 852.609 68.8229 845.12C58.5781 838.318 47.9791 831.276 36.4531 826.354C24.8906 821.412 12.0521 819.656 -3.05176e-05 821.313V824.953C2.95309 824.516 5.95309 824.302 8.96872 824.302C17.7864 824.302 26.7552 826.12 35.0364 829.662C46.2604 834.458 56.7239 841.401 66.8281 848.125C78.2656 855.719 90.0937 863.578 103.214 868.484C115.208 872.979 127.359 874.823 139.594 874.823C168.229 874.823 197.286 864.714 225.661 854.833C257.781 843.662 290.99 832.104 323.901 834.662C349.625 836.656 373.995 847.292 397.562 857.573C418.146 866.557 439.432 875.844 461.844 879.583C470.115 880.964 478.396 881.583 486.693 881.583C524.766 881.583 562.937 868.484 600.068 855.75C653.474 837.427 703.906 820.125 753.536 838.557C771.568 845.25 787.87 856.547 803.635 867.469C820.844 879.396 838.641 891.719 858.885 898.271C898.589 911.125 940.708 900.432 981.448 890.094C984.818 889.234 988.177 888.386 991.526 887.547C1018.56 880.792 1050.49 874.802 1080 879.214V875.573C1050.05 871.224 1017.89 877.25 990.646 884.052Z" fill="white"/>
<mask id="mask1_45_3746" style="mask-type:luminance" maskUnits="userSpaceOnUse" x="0" y="872" width="1080" height="208">
<path d="M-3.05176e-05 872H1080V1079.9H-3.05176e-05V872Z" fill="white"/>
</mask>
<g mask="url(#mask1_45_3746)">
<path d="M1080 1079.83H-3.05176e-05V876.422C38.2812 873.641 70.25 910.88 107.458 925.344C150.125 941.932 198.182 927.38 240.344 909.557C282.516 891.729 325.604 870.151 371.302 872.906C432.885 876.62 487.745 924.255 549.156 918.391C597.031 913.823 641.318 876.859 688.276 887.25C714.427 893.037 735.125 912.63 759.516 923.698C796.891 940.662 840.187 936.578 880.562 929.188C920.922 921.807 961.797 911.412 1002.48 916.849C1032.44 920.844 1062.78 936.089 1080 959.896V1079.83Z" fill="#B3C0D4"/>
</g>
<path d="M1060.87 938.245C1044.55 926.13 1023.91 917.891 1002.71 915.063C968.078 910.432 933.021 917.245 899.115 923.823C892.917 925.026 886.516 926.271 880.234 927.417C842.115 934.396 798.047 939.203 760.26 922.052C750.953 917.833 741.995 912.234 733.333 906.818C719.417 898.115 705.016 889.115 688.667 885.495C660.484 879.25 632.875 889.901 606.177 900.193C587.615 907.344 568.427 914.745 548.984 916.604C515.88 919.766 483.854 906.828 452.896 894.318C426.714 883.75 399.641 872.813 371.411 871.115C330.594 868.651 291.839 885.391 254.354 901.583C249.531 903.672 244.531 905.833 239.646 907.901C201.26 924.13 151.625 940.578 108.109 923.667C94.4218 918.344 81.2135 909.755 68.4427 901.443C46.8698 887.401 24.6406 872.938 -3.05176e-05 874.63V878.219C23.4271 876.438 44.3958 890.089 66.4791 904.458C79.4062 912.875 92.7708 921.573 106.807 927.021C151.531 944.411 202.042 927.708 241.047 911.214C245.943 909.135 250.948 906.979 255.786 904.891C292.875 888.865 331.224 872.286 371.198 874.708C398.844 876.37 425.635 887.193 451.542 897.661C482.911 910.323 515.339 923.427 549.333 920.182C569.26 918.281 588.677 910.792 607.464 903.552C634.875 892.99 660.766 883 687.885 889.005C703.635 892.49 717.766 901.323 731.427 909.87C740.187 915.349 749.245 921.01 758.771 925.339C797.464 942.896 842.214 938.031 880.885 930.958C887.177 929.807 893.594 928.563 899.797 927.359C933.422 920.828 968.193 914.083 1002.24 918.625C1030.5 922.406 1062.72 937.505 1080 963.021V956.885C1074.8 950.099 1068.39 943.833 1060.87 938.245Z" fill="white"/>
<mask id="mask2_45_3746" style="mask-type:luminance" maskUnits="userSpaceOnUse" x="0" y="929" width="1080" height="151">
<path d="M-3.05176e-05 929.333H1080V1079.9H-3.05176e-05V929.333Z" fill="white"/>
</mask>
<g mask="url(#mask2_45_3746)">
<path d="M947.823 959.875C871.375 961.901 794.125 979.458 719.177 964.203C677.391 955.693 637.891 937.188 595.62 931.479C466.026 913.969 341.38 1018.6 212.667 995.474C162.052 986.37 116.958 958.156 67.5885 943.719C46.1875 937.464 22.4635 934.63 -3.05176e-05 936.833V1079.83H1080V976.146C1037.61 963.042 992.349 958.693 947.823 959.875Z" fill="#486283"/>
</g>
<path d="M947.781 958.078C923.135 958.729 898.026 961.026 873.75 963.25C822.802 967.911 770.12 972.734 719.542 962.438C701.266 958.719 683.083 952.964 665.51 947.406C642.99 940.286 619.703 932.917 595.865 929.693C532.016 921.068 468.599 942.151 407.26 962.542C343.839 983.63 278.25 1005.43 212.984 993.703C183.875 988.469 156.016 976.615 129.083 965.161C109.359 956.771 88.9687 948.099 68.0885 942C45.3593 935.344 21.5781 932.948 -3.05176e-05 935.026V938.557C23.0468 936.354 46.9531 939.563 67.0833 945.448C87.7604 951.495 108.052 960.13 127.677 968.474C154.792 980.005 182.839 991.938 212.349 997.245C225.266 999.563 238.167 1000.6 251.057 1000.59C304.198 1000.59 357.005 983.047 408.401 965.958C469.339 945.698 532.359 924.745 595.38 933.266C618.911 936.438 642.052 943.76 664.422 950.839C682.094 956.427 700.359 962.208 718.818 965.969C769.917 976.37 822.875 971.516 874.078 966.839C898.302 964.62 923.344 962.323 947.875 961.677C996.672 960.38 1040.91 965.875 1080 978.042V974.276C1040.8 962.224 996.521 956.786 947.781 958.078Z" fill="white"/>
<mask id="mask3_45_3746" style="mask-type:luminance" maskUnits="userSpaceOnUse" x="0" y="974" width="1080" height="106">
<path d="M-3.05176e-05 974.667H1080V1079.9H-3.05176e-05V974.667Z" fill="white"/>
</mask>
<g mask="url(#mask3_45_3746)">
<path d="M1080 1079.83H-3.05176e-05V1007.98C12.3854 1002.7 25.6302 999.229 39.1614 997.682C84.2604 992.537 129.328 1005.78 172.036 1021.14C214.755 1036.48 257.344 1054.26 302.516 1058.69C418.307 1070.04 524.26 993.104 639.625 977.985C775.5 960.188 909.208 1029.37 1046.2 1025.64C1057.39 1025.33 1068.67 1024.55 1080 1023.61V1079.83Z" fill="#232643"/>
</g>
<path d="M1046.15 1023.83C983.755 1025.53 920.974 1011.82 860.271 998.563C788.099 982.802 713.469 966.495 639.391 976.203C591.286 982.505 544.25 999.719 498.766 1016.36C435.458 1039.54 369.984 1063.5 302.687 1056.9C264.406 1053.15 227.37 1039.52 191.547 1026.34C185.354 1024.06 178.948 1021.7 172.651 1019.44C130.083 1004.14 84.4271 990.708 38.9583 995.896C25.4896 997.432 12.2812 1000.89 -3.05176e-05 1006.04V1009.85C12.1666 1004.59 25.4166 1001.06 39.3698 999.469C84.0937 994.365 129.276 1007.68 171.432 1022.82C177.719 1025.09 184.12 1027.44 190.312 1029.72C226.339 1042.98 263.594 1056.68 302.333 1060.48C310.198 1061.25 318.01 1061.61 325.807 1061.61C385.609 1061.61 443.656 1040.36 500.005 1019.74C545.307 1003.17 592.151 986.026 639.854 979.771C713.312 970.151 787.63 986.38 859.5 1002.08C920.417 1015.39 983.417 1029.16 1046.24 1027.43C1057.39 1027.13 1068.74 1026.35 1080 1025.42V1021.8C1068.7 1022.74 1057.31 1023.53 1046.15 1023.83Z" fill="white"/>
</g>
<defs>
<clipPath id="clip0_45_3746">
<rect width="1080" height="1080" fill="white"/>
</clipPath>
</defs>
</svg>
