<svg xmlns="http://www.w3.org/2000/svg" viewBox="0 0 86.428 114.666"><g data-name="Group 1"><path data-name="Path 3164" d="M44.966.058c1.559.2 3.147.346 4.677.606a42.539 42.539 0 0130 19.488 42.071 42.071 0 016.785 22.895 35.619 35.619 0 01-2.367 12.1 127.392 127.392 0 01-10.455 21.939 360.953 360.953 0 01-21.74 32.971c-4.417 6.034-12.732 6.178-17.092.231-9.816-13.4-19.084-27.139-26.648-41.95C4.72 61.7 1.717 54.913.418 47.464A33.16 33.16 0 01.996 34.3 42.594 42.594 0 0122.158 5.6 41 41 0 0139.943.26a13.012 13.012 0 001.53-.26c1.184.058 2.339.058 3.493.058zM43.234 24.54a17.943 17.943 0 1017.929 17.987A17.91 17.91 0 0043.234 24.54z" fill="#f0c881"/></g></svg>