<svg data-name="Camada 1" xmlns="http://www.w3.org/2000/svg" viewBox="0 0 200 200"><path d="M144.49 95.63l4.84-22.92h17.18l-.92 4.39h-10.9l-1 4.78h10.26l-.95 4.39h-10.27l-1 4.9h11.16l-1 4.46zM33.71 88H40a5.86 5.86 0 00-.13 1c0 1.65 1.06 2.47 3.17 2.47s3.51-.85 3.89-2.56a3.19 3.19 0 00.06-.59q0-1.16-1.56-1.59l-5.23-1.38q-4.41-1.21-4.41-4.71a7.7 7.7 0 01.15-1.46 8 8 0 013.26-4.9 12.7 12.7 0 017.68-2.15q7.88 0 7.88 5.11a10.28 10.28 0 01-.25 2.06h-6.3a4.79 4.79 0 00.16-1.06c0-1.37-.81-2.06-2.43-2.06a3.87 3.87 0 00-2.29.67 2.84 2.84 0 00-1.22 2.23c0 .85.61 1.45 1.84 1.78L48.21 82a12.6 12.6 0 013.6 1.44 3.89 3.89 0 011.74 3.43A8.37 8.37 0 0149.36 94a14.42 14.42 0 01-7.42 1.75q-5.74 0-7.58-2.69a5.18 5.18 0 01-.87-3 10.79 10.79 0 01.22-2.06zm95-1.24h6.38l-.94-9.64H134zm-11.56 8.84l14.26-23h7.95l4.3 23h-7.36l-.63-4.6h-9.41l-2.61 4.61zm-9.9-18.71l-1.17 5.63h2.37a11.94 11.94 0 002.66-.19 3.13 3.13 0 002.22-2.61 4.08 4.08 0 00.09-.8 1.74 1.74 0 00-1.26-1.78 9.35 9.35 0 00-2.54-.25zM96.92 95.64l4.84-23h10.57a30.34 30.34 0 013.61.13 4.45 4.45 0 013.06 1.58 4.22 4.22 0 01.86 2.7 9.25 9.25 0 01-.19 1.75 6 6 0 01-3 4.25 10.76 10.76 0 01-3.74 1.18v.13a4.84 4.84 0 013.36 1 3.61 3.61 0 01.76 2.58c0 .4 0 1.09-.1 2.07a40.53 40.53 0 00-.13 5.65h-6.86a42 42 0 01.35-5.18c.08-.91.12-1.53.12-1.87a1.82 1.82 0 00-.52-1.48 3.38 3.38 0 00-2-.43h-2.66l-1.9 9zM84.7 76.85l-1.07 5.09h3a6 6 0 002.28-.29 3 3 0 001.65-2.23 2.05 2.05 0 00-.44-2 2.79 2.79 0 00-1.94-.54zM82.77 86l-1.14 5.44h3.52q3.27 0 3.84-2.67a3.72 3.72 0 00.09-.77c0-1.34-1-2-3-2zm-8.21 9.64l4.85-23h9.16a27.89 27.89 0 014.22.22 5.85 5.85 0 013.33 1.65 4 4 0 011 2.77A6 6 0 0197 78.5q-.86 4-6 5.22v.07q4.45.83 4.46 4.26A6.86 6.86 0 0194.28 92a8 8 0 01-3.22 2.72 16 16 0 01-6.39 1zm5.89-27.45l1.7-7.83 42 .21-1.9 7.73zm2.74-12.15l1.69-7.84 42 .21-1.88 7.75zM69.09 120l1.69-7.83 42 .21-1.91 7.73zm2.73-12.16l1.7-7.83 42 .21-1.9 7.73zM54.69 95.63l4.85-22.92h17.17l-.91 4.39H64.9l-1 4.78h10.25l-1 4.39H62.93l-1 4.9h11.14l-.95 4.46zm-20.94 37.66a2 2 0 00.1-.89c-.05-.15-.2-.23-.45-.23a.7.7 0 00-.44.17.79.79 0 00-.27.42 1.29 1.29 0 00-.06.68.68.68 0 00.31.43l.5.33a2.29 2.29 0 01.9 1 1.38 1.38 0 01.1.52 2.57 2.57 0 01-.12.72 2.38 2.38 0 01-.89 1.36 2.91 2.91 0 01-1.69.41 1.73 1.73 0 01-1.52-.57 1.37 1.37 0 01-.22-.79 3.13 3.13 0 01.16-.93h1.38a1.83 1.83 0 00-.08 1 .47.47 0 00.5.29.81.81 0 00.53-.21 1.15 1.15 0 00.33-.55 1.08 1.08 0 000-.66.88.88 0 00-.39-.48l-.49-.34a2 2 0 01-.83-.91 1.71 1.71 0 01-.09-.48 3.51 3.51 0 01.12-.71 2.2 2.2 0 01.84-1.28 2.91 2.91 0 011.63-.39 1.67 1.67 0 011.46.54 1.26 1.26 0 01.2.73 3.12 3.12 0 01-.15.88zm2.84 4.89a1.46 1.46 0 01-1.27-.5 1.17 1.17 0 01-.21-.71 2.52 2.52 0 01.11-.67l.17-.59a5.19 5.19 0 01.91-2 1.82 1.82 0 011.39-.53 1.53 1.53 0 011.32.48 1.21 1.21 0 01.19.68 2.64 2.64 0 01-.13.78l-.23.79h-2.2l-.1.35a2.14 2.14 0 00-.14.82c0 .14.14.21.34.21a.43.43 0 00.34-.2 2.85 2.85 0 00.31-.67h1.25a2.47 2.47 0 01-.72 1.33 2 2 0 01-1.33.43zm1.2-3a2.47 2.47 0 00.15-.87c0-.14-.12-.21-.31-.21a.47.47 0 00-.42.2 2.6 2.6 0 00-.33.83v.06zm2.66-1.86h1.19l-.16.58a1.94 1.94 0 011.39-.68h.18l-.41 1.34a.62.62 0 00-.25-.05 1.19 1.19 0 00-.9.33 2.92 2.92 0 00-.55 1.2l-.59 2h-1.28zm2.97 0h1.25l-.29 3.4 1.64-3.4h1.3l-2.55 4.76H43.2zm4.71 0h1.33l-1.39 4.76h-1.32zm.62-2.08H50l-.34 1.16h-1.25zm.49 8.81l.95-1.43h1l-.67 1.43zm3.6-3.69a2.74 2.74 0 01-.73 1.41 1.86 1.86 0 01-1.3.41c-.62 0-1-.16-1.23-.5a1.21 1.21 0 01-.16-.64 3.42 3.42 0 01.16-.91l.24-.85a3.78 3.78 0 01.81-1.62 1.93 1.93 0 011.36-.44 1.31 1.31 0 011.18.44 1.08 1.08 0 01.15.59 3.19 3.19 0 01-.14.83h-1.25a2 2 0 00.13-.79q0-.21-.3-.21c-.13 0-.25.11-.35.33a14.41 14.41 0 00-.46 1.37l-.24.85a1.05 1.05 0 00-.06.55c0 .12.11.17.25.17a.41.41 0 00.33-.22 3.53 3.53 0 00.33-.77zm.81 1.31a1.24 1.24 0 01-.2-.71 2.39 2.39 0 01.12-.7l.32-1.1a3 3 0 01.81-1.52 2.22 2.22 0 011.47-.42 1.47 1.47 0 011.28.47 1.18 1.18 0 01.17.65 3.06 3.06 0 01-.14.82l-.32 1.1a3.07 3.07 0 01-.81 1.51 2.18 2.18 0 01-1.46.41 1.4 1.4 0 01-1.24-.51zm1.87-.55a3.17 3.17 0 00.33-.86l.32-1.1a2.75 2.75 0 00.15-.87c0-.14-.15-.21-.37-.21a.49.49 0 00-.42.21 3.13 3.13 0 00-.33.87l-.31 1.1a2.48 2.48 0 00-.16.85c0 .14.15.22.38.22a.46.46 0 00.41-.21zm5.42 1.06a.83.83 0 01-.85-.51 1.38 1.38 0 01-.09-.52 3.18 3.18 0 01.15-.89l.32-1.1a4.41 4.41 0 01.67-1.47 1.18 1.18 0 01.92-.47 1.33 1.33 0 011 .43l.07.07.71-2.48h1.28l-2 6.84H62l.13-.47-.12.14a1.53 1.53 0 01-1.07.43zm1.63-4.12a.57.57 0 00-.44.22 2 2 0 00-.32.7l-.42 1.45a1.3 1.3 0 00-.07.67.27.27 0 00.29.25.51.51 0 00.41-.21 2.59 2.59 0 00.36-.75l.46-1.61a.83.83 0 000-.53.29.29 0 00-.27-.19zm3.31 4.12a1.46 1.46 0 01-1.27-.5 1.17 1.17 0 01-.21-.71 2.52 2.52 0 01.11-.67l.17-.59a5.35 5.35 0 01.91-2 1.82 1.82 0 011.39-.53 1.53 1.53 0 011.32.48 1.21 1.21 0 01.18.68 2.32 2.32 0 01-.12.78l-.23.79h-2.2l-.1.35a2.14 2.14 0 00-.14.82c0 .14.14.21.34.21a.43.43 0 00.34-.2 2.85 2.85 0 00.31-.67h1.25a2.54 2.54 0 01-.72 1.33 2 2 0 01-1.33.43zm1.2-3a2.87 2.87 0 00.16-.87c0-.14-.13-.21-.32-.21a.5.5 0 00-.43.2 2.93 2.93 0 00-.32.83v.06zm6.61-3.94h1.91l-.33 6.84h-1.34l.11-1.46h-1.67l-.67 1.46h-1.43zm-.85 4.34h1.28l.24-3.31zm4.45-2.26h1.16l-.16.53.09-.1a1.54 1.54 0 011.19-.53.79.79 0 01.83.51 1.73 1.73 0 01.07.48 3.72 3.72 0 01-.18 1l-.27.94a4.09 4.09 0 01-.72 1.54 1.3 1.3 0 01-1 .46 1 1 0 01-.93-.48l-.63 2.2H75.4zm.62 4a.51.51 0 00.39-.19 1.27 1.27 0 00.28-.56l.48-1.64a1.35 1.35 0 00.06-.66.28.28 0 00-.3-.23.55.55 0 00-.46.3 4.32 4.32 0 00-.4 1l-.33 1.15a1.09 1.09 0 000 .6.32.32 0 00.28.26zm3.01.35a1.16 1.16 0 01-.19-.71 2.07 2.07 0 01.11-.7l.32-1.1a3 3 0 01.81-1.52 2.22 2.22 0 011.47-.42 1.47 1.47 0 011.28.47 1.18 1.18 0 01.17.65 3.06 3.06 0 01-.14.82l-.32 1.1a3.07 3.07 0 01-.81 1.51 2.18 2.18 0 01-1.46.41 1.41 1.41 0 01-1.24-.51zm1.87-.55a3.17 3.17 0 00.33-.86l.32-1.1a2.75 2.75 0 00.15-.87c0-.14-.15-.21-.37-.21a.49.49 0 00-.42.21 3.21 3.21 0 00-.32.87l-.32 1.1a2.48 2.48 0 00-.16.85c0 .14.15.22.38.22a.46.46 0 00.41-.21zm3.42-3.8h1.32l-1.38 4.76h-1.33zm.61-2.08h1.29l-.33 1.16h-1.3zm.87 6.43a1.23 1.23 0 01-.19-.71 2.35 2.35 0 01.11-.7l.32-1.1a3.09 3.09 0 01.81-1.52 2.22 2.22 0 011.47-.42 1.46 1.46 0 011.28.47 1.28 1.28 0 01.18.65 3.52 3.52 0 01-.14.82l-.32 1.1a3.07 3.07 0 01-.82 1.51 2.18 2.18 0 01-1.46.41 1.41 1.41 0 01-1.24-.51zm1.88-.55a3.65 3.65 0 00.32-.86l.32-1.1a2.25 2.25 0 00.15-.87c0-.14-.14-.21-.37-.21a.49.49 0 00-.42.21 3.21 3.21 0 00-.32.87l-.32 1.1a2.48 2.48 0 00-.16.85c0 .14.16.22.38.22a.49.49 0 00.42-.21zm5.43 1.06a.89.89 0 01-.86-.42 1.21 1.21 0 01-.13-.52 2.77 2.77 0 01.11-.64 2 2 0 01.73-1.21 2.71 2.71 0 011.52-.32h.45l.13-.45a.53.53 0 000-.41c0-.09-.14-.13-.29-.13a.4.4 0 00-.31.12 1.47 1.47 0 00-.25.51h-1.31a2 2 0 01.63-1.14 2.06 2.06 0 011.28-.33 1.85 1.85 0 011.27.38.85.85 0 01.28.65 1.18 1.18 0 010 .35l-.61 2.1a8 8 0 00-.29 1.36H96l.13-.42-.07.07a1.51 1.51 0 01-1.06.45zm1.6-2.36h-.2a1.13 1.13 0 00-.66.15 1.19 1.19 0 00-.33.59v.16a.6.6 0 000 .46.3.3 0 00.3.17.48.48 0 00.41-.21 3.43 3.43 0 00.38-.84zm.06-3.06l-.49-1.51h1.36l.15 1.51zm4.23 2.03a1.49 1.49 0 00.09-.57.18.18 0 00-.2-.14.31.31 0 00-.24.12.85.85 0 00-.16.37.73.73 0 000 .36.41.41 0 00.23.22 2.81 2.81 0 011 .75.82.82 0 01.17.51v.32a1.86 1.86 0 01-.66 1.13 2.29 2.29 0 01-1.37.32 1.38 1.38 0 01-1.17-.41 1 1 0 01-.17-.59 2.52 2.52 0 01.11-.67h1.28a2.11 2.11 0 00-.09.67c0 .1.1.15.25.15a.39.39 0 00.28-.13 1.23 1.23 0 00.17-.41.57.57 0 000-.41.62.62 0 00-.29-.29 2.3 2.3 0 01-.87-.67 1 1 0 01-.16-.52 1.24 1.24 0 010-.27 1.86 1.86 0 01.67-1.07 2.18 2.18 0 011.3-.34 1.32 1.32 0 011.1.39 1 1 0 01.18.62 1.94 1.94 0 01-.08.56zm4.88 3.29h-1.29l2.1-6.84h2.07l-.64 5 2.4-5h2.1l-2 6.84h-1.29l1.78-5.77-2.78 5.77h-1.46l.69-5.9zm7.35-4.76h1.33l-1.38 4.76h-1.33zm.62-2.08H115l-.34 1.16h-1.26zm4.07 5.12a2.9 2.9 0 01-.73 1.41 1.89 1.89 0 01-1.31.41 1.1 1.1 0 01-1.38-1.14 3.81 3.81 0 01.15-.91l.25-.85a3.78 3.78 0 01.81-1.62 1.93 1.93 0 011.36-.44 1.31 1.31 0 011.18.44 1.28 1.28 0 01.15.59 3.68 3.68 0 01-.14.83h-1.25a2.24 2.24 0 00.13-.79c0-.14-.12-.21-.3-.21s-.25.11-.35.33a14.41 14.41 0 00-.46 1.37l-.25.85a1.32 1.32 0 00-.06.55c0 .12.12.17.26.17a.39.39 0 00.32-.22 2.76 2.76 0 00.33-.77zm1.73-3.04h1.19l-.16.58a2 2 0 011.4-.68h.16l-.4 1.34a.6.6 0 00-.24-.05 1.21 1.21 0 00-.91.33A2.93 2.93 0 00120 136l-.6 2h-1.28zm2.4 4.35a1.24 1.24 0 01-.2-.71 2.39 2.39 0 01.12-.7l.31-1.1a3.09 3.09 0 01.82-1.52 2.2 2.2 0 011.47-.42 1.44 1.44 0 011.27.47 1.11 1.11 0 01.18.65 3.06 3.06 0 01-.14.82l-.32 1.1a3 3 0 01-.82 1.51 2.15 2.15 0 01-1.45.41 1.4 1.4 0 01-1.24-.51zm1.87-.55a3.55 3.55 0 00.33-.86l.32-1.1a2.75 2.75 0 00.15-.87c0-.14-.15-.21-.37-.21a.46.46 0 00-.42.21 3.13 3.13 0 00-.33.87l-.31 1.1a2.48 2.48 0 00-.16.85c0 .14.15.22.37.22a.47.47 0 00.42-.21zm5.97 1.06a1.45 1.45 0 01-1.27-.5 1.18 1.18 0 01-.22-.71 2.52 2.52 0 01.11-.67l.18-.59a5.19 5.19 0 01.91-2 1.82 1.82 0 011.39-.53 1.51 1.51 0 011.32.48 1.14 1.14 0 01.19.68 2.6 2.6 0 01-.12.78l-.27.88h-2.17l-.11.35a2.06 2.06 0 00-.13.82c0 .14.14.21.34.21a.44.44 0 00.34-.2 2.53 2.53 0 00.3-.67h1.25a2.41 2.41 0 01-.72 1.33 2 2 0 01-1.32.34zm1.2-3a2.75 2.75 0 00.15-.87c0-.14-.12-.21-.31-.21a.46.46 0 00-.42.2 2.55 2.55 0 00-.34.83v.06zm5.52-3.94h1.73a2 2 0 011.69.56 1.33 1.33 0 01.21.78 4.2 4.2 0 01-.17 1.06v.08a2.23 2.23 0 01-.78 1.3 2.8 2.8 0 01-1.59.34h-.82l-.79 2.72h-1.43zm.54 3.09h.46a1.23 1.23 0 00.7-.19 1.08 1.08 0 00.37-.59l.05-.16a1.23 1.23 0 000-.86c-.09-.17-.3-.26-.63-.26h-.39zm4.27 3.85a1.44 1.44 0 01-1.27-.5 1.18 1.18 0 01-.22-.71 2.21 2.21 0 01.12-.67l.17-.59a5.19 5.19 0 01.91-2 1.82 1.82 0 011.39-.53 1.52 1.52 0 011.32.48 1.21 1.21 0 01.19.68 3 3 0 01-.12.78l-.24.79h-2.17l-.1.35a2 2 0 00-.14.82c0 .14.14.21.34.21a.44.44 0 00.34-.2 2.91 2.91 0 00.3-.67h1.25a2.47 2.47 0 01-.72 1.33 2 2 0 01-1.35.43zm1.2-3a2.57 2.57 0 00.16-.87c0-.14-.12-.21-.31-.21a.49.49 0 00-.43.2 3.19 3.19 0 00-.33.83v.06zm2.42 3a.82.82 0 01-.85-.51 1.21 1.21 0 01-.08-.52 2.59 2.59 0 01.15-.89l.31-1.1a4.21 4.21 0 01.68-1.47 1.16 1.16 0 01.91-.47 1.33 1.33 0 011 .43l.09.1.12-.43h1.22l-1.9 6.54h-1.27l.58-2a1.43 1.43 0 01-.96.32zm1.63-4.12a.57.57 0 00-.43.22 2 2 0 00-.33.7l-.42 1.45a1.27 1.27 0 00-.06.67c0 .17.13.25.28.25a.51.51 0 00.42-.21 2.59 2.59 0 00.36-.75l.46-1.61a.88.88 0 000-.53.27.27 0 00-.28-.19zm3.31 2.78a.6.6 0 000 .37.23.23 0 00.23.13.56.56 0 00.46-.27 2.59 2.59 0 00.38-.83l.85-2.92h1.32l-1.38 4.76h-1.23l.14-.47h-.05a1.67 1.67 0 01-1.21.53.82.82 0 01-.76-.34.84.84 0 01-.11-.44 1.52 1.52 0 01.08-.49l1-3.59h1.29zm4.61 1.34a1.43 1.43 0 01-1.26-.5 1.11 1.11 0 01-.22-.68 2.52 2.52 0 01.11-.67l.18-.59a5.2 5.2 0 01.9-2 1.85 1.85 0 011.4-.53 1.53 1.53 0 011.32.48 1.21 1.21 0 01.19.68 2.64 2.64 0 01-.13.78l-.23.79h-2.18l-.1.35a2.37 2.37 0 00-.14.82c0 .14.14.21.34.21a.43.43 0 00.34-.2 2.5 2.5 0 00.31-.67h1.25a2.53 2.53 0 01-.71 1.33 2.06 2.06 0 01-1.37.4zm1.21-3a2.57 2.57 0 00.16-.87c0-.14-.12-.21-.31-.21a.49.49 0 00-.43.2 2.86 2.86 0 00-.33.83v.06zm2.64-1.86h1.28l-.12.45a1.64 1.64 0 011.18-.53.8.8 0 01.75.34 1.1 1.1 0 010 .94l-1 3.58h-1.28l1-3.51a.6.6 0 000-.37.24.24 0 00-.23-.14.6.6 0 00-.48.27 3.2 3.2 0 00-.38.84l-.84 2.91H157zm4.39 4.86a.89.89 0 01-.86-.42 1.08 1.08 0 01-.12-.52 2.79 2.79 0 01.84-1.85 2.69 2.69 0 011.51-.32h.45l.14-.45a.64.64 0 000-.41.29.29 0 00-.29-.13.41.41 0 00-.32.12 1.5 1.5 0 00-.24.51h-1.31a2 2 0 01.62-1.14 2.08 2.08 0 011.29-.33 1.87 1.87 0 011.27.38.88.88 0 01.28.65 1.22 1.22 0 01-.06.35l-.61 2.1a4.78 4.78 0 00-.17.7 6.7 6.7 0 00-.12.66h-1.27l.12-.42-.07.07a1.51 1.51 0 01-1.08.45zm1.6-2.36h-.19a1.16 1.16 0 00-.67.15 1.27 1.27 0 00-.32.59v.16a.66.66 0 000 .46.31.31 0 00.31.17.49.49 0 00.41-.21 3.52 3.52 0 00.37-.84zm4.31-1.03a1.41 1.41 0 00.08-.57c0-.09-.08-.14-.19-.14a.3.3 0 00-.25.12 1 1 0 00-.15.37.55.55 0 000 .36.45.45 0 00.21.22 2.77 2.77 0 011 .75.82.82 0 01.17.51 1.25 1.25 0 01-.05.32 1.85 1.85 0 01-.65 1.13 2.31 2.31 0 01-1.37.32 1.36 1.36 0 01-1.17-.41.94.94 0 01-.18-.59 2.52 2.52 0 01.11-.67h1.29a1.94 1.94 0 00-.1.67c0 .1.11.15.25.15a.37.37 0 00.28-.13 1.22 1.22 0 00.18-.41.62.62 0 000-.41.58.58 0 00-.29-.29 2.17 2.17 0 01-.86-.67.9.9 0 01-.17-.52 1.26 1.26 0 010-.27 1.8 1.8 0 01.66-1.07 2.22 2.22 0 011.3-.34 1.32 1.32 0 011.1.39 1 1 0 01.18.62 2.36 2.36 0 01-.08.56zM38.34 150l2-6.84h3.41l-.15.51-.15.52h-2l-.51 1.81h1.83l-.15.52-.15.52h-1.83l-.57 2h2l-.15.51-.15.52zm5.8-4.76h1.13l-.13.46a1.68 1.68 0 011.2-.53.84.84 0 01.78.35l.09.2a1.82 1.82 0 011.26-.53.89.89 0 01.82.36.9.9 0 01.12.48 1.8 1.8 0 01-.08.53l-1 3.49h-1.24l1-3.51a.55.55 0 000-.38.23.23 0 00-.23-.13.6.6 0 00-.48.27 2.59 2.59 0 00-.38.83l-.81 2.87h-1.26l1-3.49a.58.58 0 000-.39.23.23 0 00-.23-.14.6.6 0 00-.48.27 2.82 2.82 0 00-.38.83L44 150h-1.24zm6.52 0h1.16l-.16.53.09-.1a1.52 1.52 0 011.19-.53.78.78 0 01.82.51 1.38 1.38 0 01.08.48 3.66 3.66 0 01-.18 1l-.27.95a4.17 4.17 0 01-.72 1.54 1.32 1.32 0 01-1 .46 1 1 0 01-.93-.48l-.63 2.2h-1.34zm.61 4a.55.55 0 00.41-.18 1.44 1.44 0 00.27-.57l.48-1.64a1.18 1.18 0 000-.65.28.28 0 00-.3-.23.56.56 0 00-.45.29 4.64 4.64 0 00-.4 1l-.28 1.18a1.1 1.1 0 000 .6.31.31 0 00.27.22zm3.92-4h1.19l-.16.58a1.9 1.9 0 011.39-.68h.17l-.4 1.33a.66.66 0 00-.25 0 1.19 1.19 0 00-.9.33 2.92 2.92 0 00-.55 1.2l-.59 2h-1.28zm3.65 4.86a1.47 1.47 0 01-1.27-.5 1.17 1.17 0 01-.21-.71 2.47 2.47 0 01.1-.67l.18-.6a5.21 5.21 0 01.91-2 1.78 1.78 0 011.39-.53 1.53 1.53 0 011.32.48 1.12 1.12 0 01.19.68 2.75 2.75 0 01-.13.78l-.23.79h-2.2l-.11.35a2 2 0 00-.13.82c0 .14.14.2.34.2a.39.39 0 00.33-.2 2 2 0 00.31-.66h1.25a2.57 2.57 0 01-.71 1.33 2 2 0 01-1.33.44zm1.2-3a2.61 2.61 0 00.16-.87c0-.15-.12-.22-.31-.22a.49.49 0 00-.43.21 2.86 2.86 0 00-.33.83v.06zm3.96-.39a1.72 1.72 0 00.09-.57.18.18 0 00-.2-.15.32.32 0 00-.25.12 1.18 1.18 0 00-.15.37.55.55 0 000 .36.49.49 0 00.22.23 2.62 2.62 0 011 .74.85.85 0 01.17.52 1.32 1.32 0 010 .32 1.9 1.9 0 01-.65 1.13 2.29 2.29 0 01-1.37.32 1.38 1.38 0 01-1.17-.42.92.92 0 01-.18-.59 2.45 2.45 0 01.11-.66h1.29a1.79 1.79 0 00-.09.66c0 .1.1.15.25.15a.32.32 0 00.27-.13 1.13 1.13 0 00.18-.41.55.55 0 00-.31-.69 2.27 2.27 0 01-.86-.68 1 1 0 01-.17-.51 2.7 2.7 0 010-.28 1.83 1.83 0 01.67-1.06 2.17 2.17 0 011.29-.34 1.31 1.31 0 011.1.39 1 1 0 01.18.61 2.46 2.46 0 01-.07.57zm2.53 3.39a.91.91 0 01-.87-.42 1.22 1.22 0 01-.12-.53 2.86 2.86 0 01.11-.64 2.08 2.08 0 01.73-1.21 2.8 2.8 0 011.52-.3h.45l.13-.45a.55.55 0 000-.4.29.29 0 00-.29-.14.36.36 0 00-.31.13 1.47 1.47 0 00-.25.51h-1.3a2.05 2.05 0 01.62-1.15 2.17 2.17 0 011.29-.32 1.8 1.8 0 011.27.38.86.86 0 01.28.64 1.48 1.48 0 01-.05.35l-.62 2.1c-.06.23-.12.46-.17.7s-.09.46-.12.67h-1.27l.12-.42-.06.06a1.5 1.5 0 01-1.09.44zm1.6-2.36h-.19a1.14 1.14 0 00-.67.15 1.1 1.1 0 00-.33.59v.15a.69.69 0 000 .47.31.31 0 00.31.16.48.48 0 00.41-.21 3.31 3.31 0 00.38-.83zm4.31-1.03a1.92 1.92 0 00.08-.57.18.18 0 00-.2-.15.33.33 0 00-.25.12 1.18 1.18 0 00-.15.37.72.72 0 000 .36.49.49 0 00.22.23 2.62 2.62 0 011 .74.85.85 0 01.17.52 2 2 0 010 .32 1.91 1.91 0 01-.66 1.13 2.29 2.29 0 01-1.37.32 1.38 1.38 0 01-1.17-.42 1 1 0 01-.18-.59 2.92 2.92 0 01.11-.66h1.29a2.06 2.06 0 00-.09.66c0 .1.1.15.25.15a.32.32 0 00.27-.13.87.87 0 00.18-.41.63.63 0 000-.41.63.63 0 00-.3-.28 2.27 2.27 0 01-.86-.68.88.88 0 01-.16-.51 1.33 1.33 0 010-.28 1.83 1.83 0 01.67-1.06 2.17 2.17 0 011.29-.34 1.29 1.29 0 011.1.39 1 1 0 01.18.61 2 2 0 01-.07.57zm4.7 3.39a.82.82 0 01-.84-.51 1.26 1.26 0 01-.09-.53 3.6 3.6 0 01.14-.89l.32-1.09a4.12 4.12 0 01.68-1.47 1.13 1.13 0 01.91-.47 1.28 1.28 0 011 .43l.07.07.72-2.48h1.28l-2 6.84h-1.11l.14-.47-.13.13a1.5 1.5 0 01-1.09.44zm1.63-4.1a.57.57 0 00-.44.23 2.09 2.09 0 00-.32.7l-.42 1.44a1.6 1.6 0 00-.07.68.28.28 0 00.29.24.53.53 0 00.42-.2 3.14 3.14 0 00.35-.75l.47-1.62a.85.85 0 000-.52.3.3 0 00-.28-.2zm2.06 3.59a1.26 1.26 0 01-.19-.71 2.41 2.41 0 01.11-.71l.32-1.09a3.18 3.18 0 01.81-1.53 2.22 2.22 0 011.47-.41 1.43 1.43 0 011.28.47 1.16 1.16 0 01.17.65 3.52 3.52 0 01-.13.82l-.32 1.09a3.06 3.06 0 01-.82 1.52 2.23 2.23 0 01-1.46.41 1.41 1.41 0 01-1.24-.51zm1.88-.56a3.31 3.31 0 00.32-.86l.32-1.09a2.27 2.27 0 00.15-.87c0-.15-.15-.22-.37-.22a.49.49 0 00-.42.21 3.56 3.56 0 00-.32.88l-.32 1.09a2.19 2.19 0 00-.15.86c0 .14.15.21.37.21a.49.49 0 00.42-.24zm6.29-5.87h1.64a2 2 0 011.59.49 1.14 1.14 0 01.21.72 3.17 3.17 0 01-.15.88v.06a1.75 1.75 0 01-.73 1.05 2.23 2.23 0 01-1 .31 1.53 1.53 0 01.83.33c.24.23.28.61.13 1.13-.08.26-.14.52-.19.76s-.1.53-.13.7a3.43 3.43 0 000 .41h-1.51a3.87 3.87 0 010-.48 5 5 0 01.12-.61c0-.23.12-.49.2-.78s.11-.62 0-.75-.32-.21-.68-.21h-.15L88.4 150H87zm.54 3h.24a1.32 1.32 0 00.73-.18 1 1 0 00.38-.56v-.14a1.14 1.14 0 000-.82c-.09-.16-.31-.24-.64-.24h-.21zm3.9-.92h1.32L93.38 150h-1.32zm.62-2.08h1.28l-.34 1.16h-1.28zm.87 6.43a1.26 1.26 0 01-.2-.71 2.45 2.45 0 01.12-.71l.31-1.09a3.18 3.18 0 01.82-1.53 2.22 2.22 0 011.47-.41 1.43 1.43 0 011.28.47 1.16 1.16 0 01.17.65 3.12 3.12 0 01-.14.82l-.32 1.09a3.06 3.06 0 01-.81 1.52 2.24 2.24 0 01-1.47.41 1.38 1.38 0 01-1.23-.51zm1.87-.59a2.9 2.9 0 00.33-.86l.32-1.09a2.79 2.79 0 00.15-.87c0-.15-.15-.22-.37-.22a.49.49 0 00-.42.21 3.18 3.18 0 00-.32.88l-.33 1.09a2.4 2.4 0 00-.16.86c0 .14.15.21.38.21a.46.46 0 00.42-.21zm6.79 1.1a2 2 0 01-1.72-.65 1.57 1.57 0 01-.24-.9 3.94 3.94 0 01.17-1.05l.53-1.83a4.77 4.77 0 011-2.08 2.62 2.62 0 011.82-.53 1.79 1.79 0 011.43.53 1.33 1.33 0 01.22 1.35l-.1.34h-1.38l.1-.34a.85.85 0 000-.64.57.57 0 00-.52-.21.76.76 0 00-.65.35 4.08 4.08 0 00-.51 1.22l-.53 1.83a2.61 2.61 0 00-.15 1.22c.08.24.29.36.64.36a1.76 1.76 0 00.52-.1l.47-1.57H104l.3-1h2.14l-1 3.42a5 5 0 01-1.85.28zm4.33-4.86h1.18l-.16.58a1.92 1.92 0 011.4-.68h.17l-.4 1.33a.69.69 0 00-.25 0 1.22 1.22 0 00-.91.33 2.93 2.93 0 00-.54 1.2l-.6 2h-1.27zm3.08 4.86a.89.89 0 01-.87-.42 1.09 1.09 0 01-.12-.53 2.38 2.38 0 01.11-.64 2 2 0 01.73-1.21 2.78 2.78 0 011.51-.32h.45l.14-.45a.61.61 0 000-.4.3.3 0 00-.29-.14.41.41 0 00-.32.13 1.73 1.73 0 00-.24.51h-1.31a2 2 0 01.63-1.15 2.11 2.11 0 011.28-.32 1.82 1.82 0 011.27.38.86.86 0 01.28.64 1.12 1.12 0 01-.06.35l-.61 2.1c-.06.23-.12.46-.17.7a4.44 4.44 0 00-.11.67h-1.28l.12-.42-.06.06a1.5 1.5 0 01-1.08.46zm1.59-2.36h-.19a1.16 1.16 0 00-.67.15 1.1 1.1 0 00-.32.59v.15a.69.69 0 000 .47.31.31 0 00.31.16.51.51 0 00.41-.21 3 3 0 00.37-.83zm3-2.5h1.28l-.11.44a1.66 1.66 0 011.18-.53.84.84 0 01.76.33 1.17 1.17 0 010 .95l-1 3.58h-1.28l1-3.51a.55.55 0 000-.38.21.21 0 00-.22-.13.59.59 0 00-.47.27 2.59 2.59 0 00-.38.83l-.84 2.92h-1.33zm4.41 4.86a.84.84 0 01-.85-.51 1.44 1.44 0 01-.08-.53 2.85 2.85 0 01.14-.89l.32-1.09a4.12 4.12 0 01.68-1.47 1.12 1.12 0 01.91-.47 1.28 1.28 0 011 .43l.07.07.72-2.48h1.27l-2 6.84h-1.15l.14-.47-.13.13a1.47 1.47 0 01-1.04.44zm1.63-4.13a.57.57 0 00-.44.23 2.09 2.09 0 00-.32.7l-.42 1.44a1.31 1.31 0 00-.06.68.26.26 0 00.28.24.53.53 0 00.42-.2 2.74 2.74 0 00.36-.75l.46-1.62a.87.87 0 000-.52.31.31 0 00-.3-.17zm3.29 4.13a1.5 1.5 0 01-1.27-.5 1.17 1.17 0 01-.2-.71 2.17 2.17 0 01.11-.67l.16-.6a5.37 5.37 0 01.91-2 1.79 1.79 0 011.39-.53 1.53 1.53 0 011.32.48 1.19 1.19 0 01.19.68 2.75 2.75 0 01-.13.78l-.23.79H125l-.1.35a2.34 2.34 0 00-.14.82c0 .14.14.2.34.2a.4.4 0 00.34-.2 2.27 2.27 0 00.31-.66H127a2.51 2.51 0 01-.72 1.33 2 2 0 01-1.36.44zm1.2-3a2.61 2.61 0 00.16-.87c0-.15-.13-.22-.31-.22a.48.48 0 00-.43.21 2.86 2.86 0 00-.33.83v.06zm4.66 3a.83.83 0 01-.85-.51 1.26 1.26 0 01-.08-.53 2.85 2.85 0 01.14-.89l.32-1.09a4.3 4.3 0 01.68-1.47 1.12 1.12 0 01.91-.47 1.28 1.28 0 011 .43l.07.07.71-2.48H135l-2 6.84h-1.16l.14-.47-.13.13a1.5 1.5 0 01-1.07.44zm1.63-4.13a.57.57 0 00-.44.23 1.91 1.91 0 00-.32.7l-.42 1.44a1.33 1.33 0 00-.07.68.27.27 0 00.29.24.5.5 0 00.41-.2 2.74 2.74 0 00.36-.75l.46-1.62a.8.8 0 000-.52.3.3 0 00-.27-.17zm2.06 3.62a1.18 1.18 0 01-.19-.71 2.12 2.12 0 01.11-.71l.32-1.09a3.1 3.1 0 01.81-1.53 2.22 2.22 0 011.47-.41 1.45 1.45 0 011.28.47 1.16 1.16 0 01.17.65 3.52 3.52 0 01-.13.82l-.33 1.09a3.06 3.06 0 01-.81 1.52 2.23 2.23 0 01-1.46.41 1.41 1.41 0 01-1.24-.51zm1.88-.56a3.31 3.31 0 00.32-.86l.32-1.09a2.79 2.79 0 00.15-.87c0-.15-.15-.22-.37-.22a.47.47 0 00-.42.21 3.1 3.1 0 00-.33.88l-.31 1.09a2.49 2.49 0 00-.16.86c0 .14.16.21.38.21a.49.49 0 00.42-.24zm5.57.97h-1.24l2-6.84h1.72v5l1.44-5h1.25l-2 6.84h-1.79v-4.83zm4.82-.41a1.26 1.26 0 01-.2-.71 2.16 2.16 0 01.12-.71l.31-1.09a3.27 3.27 0 01.81-1.53 2.25 2.25 0 011.48-.41 1.42 1.42 0 011.27.47 1.16 1.16 0 01.18.65 3.12 3.12 0 01-.14.82l-.32 1.09a3.06 3.06 0 01-.81 1.52 2.26 2.26 0 01-1.47.41 1.38 1.38 0 01-1.23-.51zm1.87-.56a2.7 2.7 0 00.32-.86l.33-1.09a2.79 2.79 0 00.15-.87c0-.15-.15-.22-.38-.22a.46.46 0 00-.41.21 3.1 3.1 0 00-.33.88l-.32 1.09a2.4 2.4 0 00-.15.86c0 .14.15.21.38.21a.47.47 0 00.41-.24zm3.39-3.79h1.19l-.16.58a1.91 1.91 0 011.4-.68h.17l-.41 1.33a.62.62 0 00-.25 0 1.19 1.19 0 00-.9.33 3.21 3.21 0 00-.55 1.2l-.59 2h-1.28zm4.15 4.81a4.34 4.34 0 01-.63 0 1.15 1.15 0 01-1.06-.41 1.59 1.59 0 010-1.3l.72-2.33h-.62l.25-.82h.63l.23-.76 1.44-.39-.35 1.15h.72l-.26.82h-.72l-.71 2.33c-.12.36-.14.6-.08.7s.24.15.56.15h.11zm2.64.05a1.48 1.48 0 01-1.27-.5 1.17 1.17 0 01-.21-.71 2.94 2.94 0 01.1-.67l.18-.6a5.21 5.21 0 01.91-2 1.78 1.78 0 011.39-.53 1.56 1.56 0 011.32.48 1.19 1.19 0 01.18.68 2.7 2.7 0 01-.12.78l-.24.79h-2.18l-.1.35a2.62 2.62 0 00-.14.82c0 .14.15.2.35.2a.42.42 0 00.34-.2 2.27 2.27 0 00.31-.66h1.25a2.51 2.51 0 01-.72 1.33 2 2 0 01-1.35.44zm1.2-3a2.91 2.91 0 00.16-.87c0-.15-.13-.22-.32-.22a.49.49 0 00-.43.21 2.65 2.65 0 00-.32.83v.06z" fill="#006eb6"/></svg>