<svg xmlns="http://www.w3.org/2000/svg" xmlns:xlink="http://www.w3.org/1999/xlink" width="1500" zoomAndPan="magnify" viewBox="0 0 1125 74.999997" height="100" preserveAspectRatio="xMidYMid meet" version="1.0"><defs><clipPath id="6d11be3814"><path d="M 0 30 L 281.25 30 L 281.25 75 L 0 75 Z M 0 30 " clip-rule="nonzero"/></clipPath><clipPath id="47f770594a"><path d="M 281.25 30 L 562.5 30 L 562.5 75 L 281.25 75 Z M 281.25 30 " clip-rule="nonzero"/></clipPath><clipPath id="bbceaa5814"><path d="M 562.5 30 L 843.75 30 L 843.75 75 L 562.5 75 Z M 562.5 30 " clip-rule="nonzero"/></clipPath><clipPath id="b49375f459"><path d="M 843.75 30 L 1125 30 L 1125 75 L 843.75 75 Z M 843.75 30 " clip-rule="nonzero"/></clipPath><clipPath id="ebff489c93"><path d="M 556.875 30 L 568.125 30 L 568.125 75 L 556.875 75 Z M 556.875 30 " clip-rule="nonzero"/></clipPath><clipPath id="b1e6e17d0f"><path d="M 556.875 35.625 L 556.875 81.5625 L 568.125 81.5625 L 568.125 35.625 L 562.5 30 Z M 556.875 35.625 " clip-rule="nonzero"/></clipPath><clipPath id="23a5c80021"><path d="M 0 30 L 5.625 30 L 5.625 75 L 0 75 Z M 0 30 " clip-rule="nonzero"/></clipPath><clipPath id="8ee5adaa7d"><path d="M -5.625 35.625 L -5.625 81.5625 L 5.625 81.5625 L 5.625 35.625 L 0 30 Z M -5.625 35.625 " clip-rule="nonzero"/></clipPath><clipPath id="794001ab3b"><path d="M 275.625 34.773438 L 286.875 34.773438 L 286.875 75 L 275.625 75 Z M 275.625 34.773438 " clip-rule="nonzero"/></clipPath><clipPath id="7e6924412b"><path d="M 275.625 40.398438 L 275.625 86.335938 L 286.875 86.335938 L 286.875 40.398438 L 281.25 34.773438 Z M 275.625 40.398438 " clip-rule="nonzero"/></clipPath><clipPath id="8330f72596"><path d="M 838.125 34.773438 L 849.375 34.773438 L 849.375 75 L 838.125 75 Z M 838.125 34.773438 " clip-rule="nonzero"/></clipPath><clipPath id="1860ae9b5d"><path d="M 838.125 40.398438 L 838.125 86.335938 L 849.375 86.335938 L 849.375 40.398438 L 843.75 34.773438 Z M 838.125 40.398438 " clip-rule="nonzero"/></clipPath><clipPath id="66219e2ec1"><path d="M 1119.375 30 L 1125 30 L 1125 75 L 1119.375 75 Z M 1119.375 30 " clip-rule="nonzero"/></clipPath><clipPath id="a033ed09a1"><path d="M 1119.375 35.625 L 1119.375 81.5625 L 1130.625 81.5625 L 1130.625 35.625 L 1125 30 Z M 1119.375 35.625 " clip-rule="nonzero"/></clipPath><clipPath id="33c31033fc"><path d="M 0 56.25 L 1125 56.25 L 1125 75 L 0 75 Z M 0 56.25 " clip-rule="nonzero"/></clipPath><clipPath id="7fe3af0f3d"><path d="M 420 23 L 452 23 L 452 51.300781 L 420 51.300781 Z M 420 23 " clip-rule="nonzero"/></clipPath><clipPath id="73d8bb9c04"><path d="M 128 40 L 160 40 L 160 67.5 L 128 67.5 Z M 128 40 " clip-rule="nonzero"/></clipPath><clipPath id="04911581b6"><path d="M 1002 40 L 1034 40 L 1034 67.5 L 1002 67.5 Z M 1002 40 " clip-rule="nonzero"/></clipPath><clipPath id="fc8abf2a7c"><path d="M 756 40 L 788 40 L 788 67.5 L 756 67.5 Z M 756 40 " clip-rule="nonzero"/></clipPath><clipPath id="8bf83ef13f"><path d="M 879 25 L 911 25 L 911 52.5 L 879 52.5 Z M 879 25 " clip-rule="nonzero"/></clipPath></defs><rect x="-112.5" width="1350" fill="#ffffff" y="-7.5" height="89.999996" fill-opacity="1"/><rect x="-112.5" width="1350" fill="#202850" y="-7.5" height="89.999996" fill-opacity="1"/><g clip-path="url(#6d11be3814)"><path fill="#c1d2e8" d="M 0 30 L 7.8125 32.71875 C 15.625 35.40625 31.25 40.84375 46.875 39.90625 C 62.5 38.96875 78.125 31.65625 93.75 31.46875 C 109.375 31.25 125 38.125 140.625 39.21875 C 156.25 40.3125 171.875 35.625 187.5 35.84375 C 203.125 36.03125 218.75 41.15625 234.375 41.78125 C 250 42.40625 265.625 38.53125 273.4375 36.625 L 281.25 34.6875 L 281.25 81.5625 L 273.4375 81.5625 C 265.625 81.5625 250 81.5625 234.375 81.5625 C 218.75 81.5625 203.125 81.5625 187.5 81.5625 C 171.875 81.5625 156.25 81.5625 140.625 81.5625 C 125 81.5625 109.375 81.5625 93.75 81.5625 C 78.125 81.5625 62.5 81.5625 46.875 81.5625 C 31.25 81.5625 15.625 81.5625 7.8125 81.5625 L 0 81.5625 Z M 0 30 " fill-opacity="1" fill-rule="nonzero"/></g><g clip-path="url(#47f770594a)"><path fill="#c1d2e8" d="M 562.5 30 L 554.6875 32.71875 C 546.875 35.40625 531.25 40.84375 515.625 39.90625 C 500 38.96875 484.375 31.65625 468.75 31.46875 C 453.125 31.25 437.5 38.125 421.875 39.21875 C 406.25 40.3125 390.625 35.625 375 35.84375 C 359.375 36.03125 343.75 41.15625 328.125 41.78125 C 312.5 42.40625 296.875 38.53125 289.0625 36.625 L 281.25 34.6875 L 281.25 81.5625 L 289.0625 81.5625 C 296.875 81.5625 312.5 81.5625 328.125 81.5625 C 343.75 81.5625 359.375 81.5625 375 81.5625 C 390.625 81.5625 406.25 81.5625 421.875 81.5625 C 437.5 81.5625 453.125 81.5625 468.75 81.5625 C 484.375 81.5625 500 81.5625 515.625 81.5625 C 531.25 81.5625 546.875 81.5625 554.6875 81.5625 L 562.5 81.5625 Z M 562.5 30 " fill-opacity="1" fill-rule="nonzero"/></g><g clip-path="url(#bbceaa5814)"><path fill="#c1d2e8" d="M 562.5 30 L 570.3125 32.71875 C 578.125 35.40625 593.75 40.84375 609.375 39.90625 C 625 38.96875 640.625 31.65625 656.25 31.46875 C 671.875 31.25 687.5 38.125 703.125 39.21875 C 718.75 40.3125 734.375 35.625 750 35.84375 C 765.625 36.03125 781.25 41.15625 796.875 41.78125 C 812.5 42.40625 828.125 38.53125 835.9375 36.625 L 843.75 34.6875 L 843.75 81.5625 L 835.9375 81.5625 C 828.125 81.5625 812.5 81.5625 796.875 81.5625 C 781.25 81.5625 765.625 81.5625 750 81.5625 C 734.375 81.5625 718.75 81.5625 703.125 81.5625 C 687.5 81.5625 671.875 81.5625 656.25 81.5625 C 640.625 81.5625 625 81.5625 609.375 81.5625 C 593.75 81.5625 578.125 81.5625 570.3125 81.5625 L 562.5 81.5625 Z M 562.5 30 " fill-opacity="1" fill-rule="nonzero"/></g><g clip-path="url(#b49375f459)"><path fill="#c1d2e8" d="M 1125 30 L 1117.1875 32.71875 C 1109.375 35.40625 1093.75 40.84375 1078.125 39.90625 C 1062.5 38.96875 1046.875 31.65625 1031.25 31.46875 C 1015.625 31.25 1000 38.125 984.375 39.21875 C 968.75 40.3125 953.125 35.625 937.5 35.84375 C 921.875 36.03125 906.25 41.15625 890.625 41.78125 C 875 42.40625 859.375 38.53125 851.5625 36.625 L 843.75 34.6875 L 843.75 81.5625 L 851.5625 81.5625 C 859.375 81.5625 875 81.5625 890.625 81.5625 C 906.25 81.5625 921.875 81.5625 937.5 81.5625 C 953.125 81.5625 968.75 81.5625 984.375 81.5625 C 1000 81.5625 1015.625 81.5625 1031.25 81.5625 C 1046.875 81.5625 1062.5 81.5625 1078.125 81.5625 C 1093.75 81.5625 1109.375 81.5625 1117.1875 81.5625 L 1125 81.5625 Z M 1125 30 " fill-opacity="1" fill-rule="nonzero"/></g><g clip-path="url(#ebff489c93)"><g clip-path="url(#b1e6e17d0f)"><path fill="#c1d2e8" d="M 556.875 30 L 568.125 30 L 568.125 81.5625 L 556.875 81.5625 Z M 556.875 30 " fill-opacity="1" fill-rule="nonzero"/></g></g><g clip-path="url(#23a5c80021)"><g clip-path="url(#8ee5adaa7d)"><path fill="#c1d2e8" d="M -5.625 30 L 5.625 30 L 5.625 81.5625 L -5.625 81.5625 Z M -5.625 30 " fill-opacity="1" fill-rule="nonzero"/></g></g><g clip-path="url(#794001ab3b)"><g clip-path="url(#7e6924412b)"><path fill="#c1d2e8" d="M 275.625 34.773438 L 286.875 34.773438 L 286.875 86.335938 L 275.625 86.335938 Z M 275.625 34.773438 " fill-opacity="1" fill-rule="nonzero"/></g></g><g clip-path="url(#8330f72596)"><g clip-path="url(#1860ae9b5d)"><path fill="#c1d2e8" d="M 838.125 34.773438 L 849.375 34.773438 L 849.375 86.335938 L 838.125 86.335938 Z M 838.125 34.773438 " fill-opacity="1" fill-rule="nonzero"/></g></g><g clip-path="url(#66219e2ec1)"><g clip-path="url(#a033ed09a1)"><path fill="#c1d2e8" d="M 1119.375 30 L 1130.625 30 L 1130.625 81.5625 L 1119.375 81.5625 Z M 1119.375 30 " fill-opacity="1" fill-rule="nonzero"/></g></g><g clip-path="url(#33c31033fc)"><path fill="#c1d2e8" d="M -16.664062 56.25 L 1134.140625 56.25 L 1134.140625 105 L -16.664062 105 Z M -16.664062 56.25 " fill-opacity="1" fill-rule="nonzero"/></g><g clip-path="url(#7fe3af0f3d)"><path fill="#e6bf89" d="M 435.386719 31.148438 C 437.964844 24.742188 444.527344 21.300781 449.410156 26.117188 C 458.484375 35.039062 435.75 51.300781 435.75 51.300781 C 424.191406 41.835938 415.816406 33.722656 422.613281 26.480469 C 426.425781 22.414062 432.71875 25.03125 435.386719 31.148438 Z M 435.386719 31.148438 " fill-opacity="1" fill-rule="nonzero"/></g><g clip-path="url(#73d8bb9c04)"><path fill="#e6bf89" d="M 143.820312 47.347656 C 146.402344 40.941406 152.964844 37.5 157.847656 42.316406 C 166.921875 51.238281 144.1875 67.5 144.1875 67.5 C 132.625 58.035156 124.253906 49.921875 131.050781 42.679688 C 134.859375 38.613281 141.15625 41.230469 143.820312 47.347656 Z M 143.820312 47.347656 " fill-opacity="1" fill-rule="nonzero"/></g><path fill="#bd651d" d="M 56.5 24.847656 C 59.078125 18.441406 65.644531 15 70.527344 19.816406 C 79.601562 28.738281 56.863281 45 56.863281 45 C 45.304688 35.535156 36.933594 27.421875 43.730469 20.179688 C 47.539062 16.113281 53.832031 18.730469 56.5 24.847656 Z M 56.5 24.847656 " fill-opacity="1" fill-rule="nonzero"/><path fill="#bd651d" d="M 278 39.847656 C 280.578125 33.441406 287.144531 30 292.027344 34.816406 C 301.101562 43.738281 278.363281 60 278.363281 60 C 266.804688 50.535156 258.433594 42.421875 265.230469 35.179688 C 269.039062 31.113281 275.332031 33.730469 278 39.847656 Z M 278 39.847656 " fill-opacity="1" fill-rule="nonzero"/><path fill="#bd651d" d="M 546.507812 54.847656 C 549.085938 48.441406 555.652344 45 560.535156 49.816406 C 569.609375 58.738281 546.871094 75 546.871094 75 C 535.3125 65.535156 526.941406 57.421875 533.738281 50.179688 C 537.546875 46.113281 543.839844 48.730469 546.507812 54.847656 Z M 546.507812 54.847656 " fill-opacity="1" fill-rule="nonzero"/><g clip-path="url(#04911581b6)"><path fill="#bd651d" d="M 1017.570312 47.347656 C 1020.148438 40.941406 1026.714844 37.5 1031.597656 42.316406 C 1040.671875 51.238281 1017.933594 67.5 1017.933594 67.5 C 1006.375 58.035156 998.003906 49.921875 1004.800781 42.679688 C 1008.609375 38.613281 1014.902344 41.230469 1017.570312 47.347656 Z M 1017.570312 47.347656 " fill-opacity="1" fill-rule="nonzero"/></g><g clip-path="url(#fc8abf2a7c)"><path fill="#bd651d" d="M 771.382812 47.347656 C 773.960938 40.941406 780.523438 37.5 785.40625 42.316406 C 794.480469 51.238281 771.746094 67.5 771.746094 67.5 C 760.183594 58.035156 751.8125 49.921875 758.609375 42.679688 C 762.417969 38.613281 768.714844 41.230469 771.382812 47.347656 Z M 771.382812 47.347656 " fill-opacity="1" fill-rule="nonzero"/></g><path fill="#e6bf89" d="M 657.632812 24.847656 C 660.210938 18.441406 666.773438 15 671.65625 19.816406 C 680.730469 28.738281 657.996094 45 657.996094 45 C 646.4375 35.535156 638.0625 27.421875 644.859375 20.179688 C 648.667969 16.113281 654.964844 18.730469 657.632812 24.847656 Z M 657.632812 24.847656 " fill-opacity="1" fill-rule="nonzero"/><g clip-path="url(#8bf83ef13f)"><path fill="#e6bf89" d="M 894.640625 32.347656 C 897.222656 25.941406 903.785156 22.5 908.667969 27.316406 C 917.742188 36.238281 895.007812 52.5 895.007812 52.5 C 883.445312 43.035156 875.074219 34.921875 881.871094 27.679688 C 885.679688 23.613281 891.976562 26.230469 894.640625 32.347656 Z M 894.640625 32.347656 " fill-opacity="1" fill-rule="nonzero"/></g></svg>