<svg xmlns="http://www.w3.org/2000/svg" viewBox="0 0 24 24" fill="none" stroke="#000000" stroke-linecap="round" stroke-linejoin="round" id="Heart-Handshake--Streamline-Lucide" height="24" width="24">
  <desc>
    Heart Handshake Streamline Icon: https://streamlinehq.com
  </desc>
  <path d="M19 14c1.49 -1.46 3 -3.21 3 -5.5A5.5 5.5 0 0 0 16.5 3c-1.76 0 -3 0.5 -4.5 2 -1.5 -1.5 -2.74 -2 -4.5 -2A5.5 5.5 0 0 0 2 8.5c0 2.3 1.5 4.05 3 5.5l7 7Z" stroke-width="2"></path>
  <path d="M12 5 9.04 7.96a2.17 2.17 0 0 0 0 3.08v0c0.82 0.82 2.13 0.85 3 0.07l2.07 -1.9a2.82 2.82 0 0 1 3.79 0l2.96 2.66" stroke-width="2"></path>
  <path d="m18 15 -2 -2" stroke-width="2"></path>
  <path d="m15 18 -2 -2" stroke-width="2"></path>
</svg>