<svg xmlns="http://www.w3.org/2000/svg" viewBox="0 0 24 24" fill="none" stroke="#000000" stroke-linecap="round" stroke-linejoin="round" id="Message-Square-Heart--Streamline-Lucide" height="24" width="24">
  <desc>
    Message Square Heart Streamline Icon: https://streamlinehq.com
  </desc>
  <path d="M21 15a2 2 0 0 1 -2 2H7l-4 4V5a2 2 0 0 1 2 -2h14a2 2 0 0 1 2 2z" stroke-width="2"></path>
  <path d="M14.8 7.5a1.84 1.84 0 0 0 -2.6 0l-0.2 0.3 -0.3 -0.3a1.84 1.84 0 1 0 -2.4 2.8L12 13l2.7 -2.7c0.9 -0.9 0.8 -2.1 0.1 -2.8" stroke-width="2"></path>
</svg>