<svg xmlns="http://www.w3.org/2000/svg" viewBox="0 0 24 24" fill="none" stroke="#000000" stroke-linecap="round" stroke-linejoin="round" id="Tag--Streamline-Lucide" height="24" width="24">
  <desc>
    Tag Streamline Icon: https://streamlinehq.com
  </desc>
  <path d="M12.586 2.586A2 2 0 0 0 11.172 2H4a2 2 0 0 0 -2 2v7.172a2 2 0 0 0 0.586 1.414l8.704 8.704a2.426 2.426 0 0 0 3.42 0l6.58 -6.58a2.426 2.426 0 0 0 0 -3.42z" stroke-width="2"></path>
  <path fill="#000000" d="M7 7.5a0.5 0.5 0 1 0 1 0 0.5 0.5 0 1 0 -1 0" stroke-width="2"></path>
</svg>