<svg xmlns="http://www.w3.org/2000/svg" viewBox="0 0 24 24" fill="none" stroke="#000000" stroke-linecap="round" stroke-linejoin="round" id="Ticket--Streamline-Lucide" height="24" width="24">
  <desc>
    Ticket Streamline Icon: https://streamlinehq.com
  </desc>
  <path d="M2 9a3 3 0 0 1 0 6v2a2 2 0 0 0 2 2h16a2 2 0 0 0 2 -2v-2a3 3 0 0 1 0 -6V7a2 2 0 0 0 -2 -2H4a2 2 0 0 0 -2 2Z" stroke-width="2"></path>
  <path d="M13 5v2" stroke-width="2"></path>
  <path d="M13 17v2" stroke-width="2"></path>
  <path d="M13 11v2" stroke-width="2"></path>
</svg>