<svg xml:space="preserve" viewBox="0 0 384.74 298.337" version="1.1" id="svg31" sodipodi:docname="caramelo_hero.svg"
  inkscape:version="1.4.2 (ebf0e940, 2025-05-08)" xmlns:inkscape="http://www.inkscape.org/namespaces/inkscape"
  xmlns:sodipodi="http://sodipodi.sourceforge.net/DTD/sodipodi-0.dtd" xmlns="http://www.w3.org/2000/svg"
  xmlns:svg="http://www.w3.org/2000/svg">
  <sodipodi:namedview id="namedview31" pagecolor="#ffffff" bordercolor="#000000" borderopacity="0.25"
    inkscape:showpageshadow="2" inkscape:pageopacity="0.0" inkscape:pagecheckerboard="0" inkscape:deskcolor="#d1d1d1"
    inkscape:zoom="1.997056" inkscape:cx="219.32284" inkscape:cy="180.26535" inkscape:window-width="2056"
    inkscape:window-height="1257" inkscape:window-x="0" inkscape:window-y="44" inkscape:window-maximized="1"
    inkscape:current-layer="svg31" />
  <defs id="defs3">
    <filter id="b" width="1.0636456" height="1.0747389" x="-0.031822873" y="-0.035678126"
      style="color-interpolation-filters:sRGB">
      <feGaussianBlur stdDeviation=".514" id="feGaussianBlur1" />
    </filter>
    <filter id="a" width="1.0859293" height="1.4599012" x="-0.042964642" y="-0.22995062"
      style="color-interpolation-filters:sRGB">
      <feGaussianBlur stdDeviation="3.511" id="feGaussianBlur2" />
    </filter>
    <filter id="c" width="1.0489443" height="1.1065243" x="-0.024474486" y="-0.053221084"
      style="color-interpolation-filters:sRGB">
      <feGaussianBlur stdDeviation=".395" id="feGaussianBlur3" />
    </filter>
  </defs>
  <ellipse cx="357.00601" cy="20.719999" rx="101.299" ry="18.927"
    style="opacity:0.21148;fill:#1a1a1a;fill-opacity:1;stroke:#000000;stroke-width:0.556302;stroke-dasharray:none;stroke-opacity:1;filter:url(#a)"
    transform="matrix(1.1517064,0,0,0.56944284,-280.54213,256.19183)" id="ellipse3" />
  <path
    d="m 57.204,32.813 c -0.974,0 -1.894,0.744 -1.914,1.733 a 778.135,778.135 0 0 0 -0.127,10.388 c -0.121,2.02 0.386,2.51 2.111,2.654 l -2.003,4.527 c -0.421,0.951 8.87,-4.414 9.737,-4.416 l 30.607,-0.057 a 1.77,1.77 0 0 0 1.758,-1.785 V 34.599 c 0,-0.99 -0.784,-1.786 -1.758,-1.786 z"
    style="opacity:0.251953;mix-blend-mode:normal;fill:#1a1a1a;stroke:#000000;stroke-width:0.170573;stroke-opacity:1;filter:url(#c)"
    transform="matrix(2.47961,0,0,2.82625,130.689,-89.817)" id="path5" />
  <path
    d="m 275.68996,1.9723337 c -2.41793,0 -4.70311,2.0083546 -4.75395,4.6805113 -0.12711,6.799029 -0.25422,17.326648 -0.31072,28.06612 -0.30506,5.454476 0.95757,6.779256 5.2398,7.169063 l -4.97428,12.230908 c -1.04513,2.570468 22.01846,-11.928666 24.1737,-11.931491 l 75.98416,-0.152533 c 2.41794,-0.0056 4.36415,-2.152414 4.36415,-4.824571 V 6.7969042 c 0,-2.6749814 -1.94621,-4.8245705 -4.36415,-4.8245705 z"
    style="fill:#f9d56e;stroke:#000000;stroke-width:0;stroke-dasharray:none;stroke-opacity:1" id="path6" /><text
    xml:space="preserve" x="276.28033" y="17.064648"
    style="font-weight:700;font-size:12.329px;font-family:Courier;-inkscape-font-specification:'Courier Bold';text-align:start;writing-mode:lr-tb;direction:ltr;text-anchor:start;fill:#ffffff;fill-opacity:1;stroke:#000000;stroke-width:2.19397;stroke-dasharray:none;stroke-opacity:1"
    id="text7">
    <tspan x="276.28033" y="17.064648" style="fill:#ffffff;stroke:none;stroke-width:2.19397" id="tspan6">Bah tchê,
    </tspan>
    <tspan x="276.28033" y="32.476162" style="fill:#ffffff;stroke:none;stroke-width:2.19397" id="tspan7">que evento tri!
    </tspan>
  </text>
  <g style="display:inline" id="g22" transform="translate(-222.668,248.001)">
    <path
      d="m 816.682,96.322 c 0,-0.18 1.262,-2.2 1.93,-3.519 0.67,-1.32 1.184,-3.874 1.184,-4.647 0,-1.165 0.38,-0.868 2.598,-2.341 3.576,-2.375 8.723,-7.32 10.376,-10.161 2.213,-3.806 1.839,-3.289 -1.363,0.63 -5.835,7.14 -14.237,13.59 -19.954,15.356 -4.566,1.41 -7.984,2.997 -3.652,-1.717 2.25,-2.448 3.038,-3.822 1.352,-3.295 -2.374,0.74 -8.774,0.676 -10.343,-0.129 l -2.249,-1.153 3.649,-2.134 c 4.562,-2.669 9.629,-6.854 16.855,-14.312 5.885,-6.075 14.544,-17.1 18.084,-22.942 1.453,-2.397 3.379,-6.639 2.961,-7.107 -0.08,-0.09 -1.677,0.8 -3.972,1.875 -2.295,1.075 -5.507,2.452 -5.507,2.36 0,-0.328 13.993,-21.866 14.661,-22.567 0.59,-0.618 1.314,0.527 1.314,1.576 0,5.92 -6.612,48.133 -9.383,60.445 -1.645,7.31 -5.295,10.55 -10.385,12.455 -2.85,1.066 -8.156,1.874 -8.156,1.327 z m -109.049,90.105 c -1.115,-0.759 -3.377,-0.749 -3.377,-0.96 0,-0.212 3.434,-1.446 5.105,-1.906 7.659,-2.112 14.495,-8.11 18.518,-15.982 2.975,-5.822 4.286,-10.042 6.945,-23.398 3.418,-17.176 6.269,-24.42 12.844,-31.007 4.564,-4.572 7.867,-6.062 14.393,-6.244 l 6.219,-0.226 -3.428,2.65 c -7.769,6.002 -13.761,17.015 -14.607,28.528 -0.158,2.153 -0.074,8.903 0.28,15.054 2.073,17.073 0.846,19.77 -0.18,21.675 -1.933,3.584 -8.004,8.85 -13.096,10.785 -2.543,0.966 -2.74,0.073 -1.939,-2.036 0.27,-0.708 0.662,-1.192 0.459,-1.089 -3.418,1.751 -7.039,3.14 -9.355,3.786 -3.708,1.033 -16.315,2.048 -18.78,0.37 z m 23.331,-3.418 c 2.678,-0.232 9.645,-7.885 11.673,-11.768 3.327,-6.373 4.083,-10.331 5.956,-30.495 0.422,-4.546 0.688,-8.73 0.824,-9.598 0.18,-1.155 0.635,-1.468 0.133,-1.468 -0.849,0 -0.662,1.539 -1.305,10.087 -1.301,17.309 -2.169,24.27 -5.529,30.054 -1.51,2.6 -3.644,4.975 -6.256,8.037 -2.576,3.02 -3.476,3.597 -4.44,4.424 -0.593,0.508 -1.358,0.753 -1.056,0.727 z"
      style="fill:#692305;fill-opacity:1;stroke:none;stroke-width:0;stroke-linecap:round;stroke-linejoin:round;stroke-dasharray:none;stroke-opacity:1"
      transform="translate(-476.265,-202.833)" id="path7" />
    <path
      d="m 904.63,18.186 c -0.242,0.052 -4.234,0.37 -11.95,0.133 -14.268,-0.44 -18.25,-1.365 -20.906,-3.105 -0.713,-0.467 -1.432,-1.704 -1.342,-1.79 0.09,-0.088 11.829,0.04 24.799,0.407 12.97,0.366 31.86,1.04 33.33,1.067 2.623,0.045 1.183,-0.31 -4.301,1.067 -6.013,1.51 -19.629,2.221 -19.629,2.221 z"
      style="fill:#ffffff;fill-opacity:1;stroke:none;stroke-width:0;stroke-linecap:round;stroke-linejoin:round;stroke-dasharray:none;stroke-opacity:1"
      transform="translate(-476.265,-202.833)" id="path8" />
    <path
      d="m 925.15,53.459 c -5.236,-0.335 -8.594,-1.129 -11.31,-2.102 -2.256,-0.809 -4.998,-2.116 -5.2,-2.129 -0.203,-0.012 0.38,-1.302 1.462,-1.724 l 1.098,-0.67 -0.42,-0.11 c -0.807,-0.214 -1.974,0.982 -3.006,1.85 l -2.728,2.296 -0.27,-3.087 c 0.01,-5.66 2.897,-18.734 5.438,-25.296 0.95,-2.456 2.084,-3.778 2.665,-3.778 0.187,0 4.21,-0.904 8.647,-1.877 10.843,-2.378 18.455,-2.79 22.947,-0.562 5.744,2.848 9.048,9.273 8.412,17.838 -0.576,7.75 -5.225,15.617 -10.122,18.15 -2.519,1.304 -7.815,1.787 -16.741,1.217 z"
      style="fill:#ffe090;fill-opacity:1;stroke:none;stroke-width:0;stroke-linecap:round;stroke-linejoin:round;stroke-dasharray:none;stroke-opacity:1"
      transform="translate(-476.265,-202.833)" id="path9" />
    <path
      d="m 910.236,62.959 c -0.504,-1.225 -2.032,-2.575 -3.047,-4.312 -1.233,-2.109 -2.374,-7.076 -2.047,-8.82 0.402,-2.144 2.963,-0.405 6.25,1.055 6.189,2.748 9.581,3.567 20.55,3.567 3.816,0 7.716,-0.258 7.716,-0.146 0,0.423 -3.596,4.164 -5.078,5.163 -2.981,2.01 -7.228,3.333 -11.56,3.864 -6.843,0.84 -12.234,0.964 -12.784,-0.371 z"
      style="fill:#ffe090;fill-opacity:1;stroke:none;stroke-width:0;stroke-linecap:round;stroke-linejoin:round;stroke-dasharray:none;stroke-opacity:1"
      transform="translate(-476.265,-202.833)" id="path10" />
    <path
      d="m 850.719,216.744 c -0.19,-0.078 -1.01,-0.014 -1.698,-0.128 -2.61,-0.435 -3.494,-2.738 -4.915,-10.584 -0.98,-5.403 -2.706,-10.079 -7.016,-23.279 -1.697,-5.2 -3.76,-13.006 -4.924,-17.166 -2.732,-9.756 -2.646,-10.344 -3.404,-11.28 -1.58,-1.947 -0.54,0.534 1.732,7.755 1.713,5.443 1.143,6.204 -2.135,6.204 -2.674,0 -10.102,-0.912 -15.676,-1.838 -6.558,-1.089 -19.519,-4.467 -19.519,-5.129 0,-0.14 0.963,-2.08 1.995,-3.885 3.166,-5.542 4.056,-10.404 4.022,-16.88 -0.024,-4.707 -0.18,-8.317 -1.206,-8.51 -0.577,-0.109 -0.225,-0.213 -0.044,1.61 0.606,6.073 0.804,11.174 0.23,14.01 -1.13,5.592 -4.256,11.32 -8.088,14.939 -1.116,1.053 -4.097,3.24 -6.46,4.82 -7.062,4.718 -9.642,7.674 -11.391,13.714 -0.72,2.485 -1.025,3.29 -0.983,9.53 0.035,5.396 0.578,8.014 1.249,12.465 0.47,3.12 0.819,5.964 0.775,6.016 -0.044,0.053 -1.288,0.524 -2.874,0.826 -2.275,0.434 -4.57,0.662 -9.026,0.491 -6.367,-0.244 -7.606,-0.756 -8.126,-2.828 -0.178,-0.71 -0.135,-10.865 -0.344,-22.211 -0.21,-11.346 -0.62,-23.775 -0.913,-27.84 -1.075,-14.94 -0.824,-23.51 1.294,-30.05 3.343,-10.32 11.63,-19.379 21.417,-23.16 7.613,-2.941 11.355,-3.31 30.464,-3.68 14.417,-0.277 20.793,-0.648 24.3,-1.302 0.73,-0.136 1.546,-0.626 1.424,-0.27 -0.958,2.79 -3.241,9.966 -3.071,10.157 0.264,0.298 0.574,-0.046 1.11,-1.084 0.69,-1.333 3.66,-11.935 5.023,-17.472 2.704,-10.984 7.209,-35.336 8.895,-48.275 3.017,-23.155 3.09,-21.281 1.938,-22.65 -0.522,-0.621 -2.158,-1.596 -3.793,-2.695 -3.312,-2.227 -5.827,-4.925 -8.2,-8.496 -2.977,-4.477 -7.047,-13.552 -7.478,-16.699 -0.398,-2.901 2.124,-3.305 5.519,-0.594 5.438,4.343 11.234,10.347 16.063,15.152 4.852,4.828 8.791,8.778 11.696,7.666 1.489,-0.57 5.299,-0.642 7.38,-0.69 l 3.895,-0.09 0.732,1.32 c 1.08,1.946 2.717,2.308 9.48,3.11 8.8,1.044 13.803,0.904 19.826,0.91 2.95,0.003 6.694,-0.229 8.115,-0.322 l 4.693,-0.311 0.587,0.53 -2.369,2.498 -1.772,3.94 c -0.329,0.73 -5.996,24.263 -4.434,28.873 0.332,0.982 1.403,3.093 2.353,4.664 1.986,3.286 3.411,5.524 3.253,5.67 -0.232,0.215 -7.477,2.49 -9.213,2.845 -3.07,0.63 -7.016,0.487 -10.578,-0.448 -3.843,-1.009 -7.106,-1.696 -7.106,-1.169 0,0.197 0.57,0.246 1.617,0.837 1.14,0.643 2.284,1.515 2.482,2.036 0.564,1.481 0.364,4.973 -0.544,8.923 -1.92,8.352 -1.735,13.56 0.861,24.642 3.468,14.801 4.765,21.908 10.075,52.084 3.253,18.488 4.187,23.167 8.523,42.296 1.221,5.39 2.387,10.238 2.511,10.834 l 0.274,1.321 -3.55,1.39 c -6.11,2.39 -13.795,3.48 -15.053,2.221 -0.928,-0.927 -6.631,-24.924 -8.884,-37.305 -0.67,-3.684 -1.461,-8.338 -1.932,-10.458 -1.001,-4.513 -1.352,-7.744 -0.543,-9.316 0.312,-0.605 1.85,-2.499 3.068,-3.917 3.277,-3.814 5.25,-7.632 6.857,-14.268 0.645,-2.665 0.785,-3.237 0.457,-3.445 -0.234,-0.148 -0.405,-0.269 -0.594,-0.21 -0.189,0.059 -0.48,2.313 -1.288,5.108 -2.167,7.49 -4.48,11.183 -8.819,15.571 -4.754,4.809 -10.208,8.546 -16.974,9.069 l -1.603,0.124 0.189,-2.963 c 0.113,-1.56 0.298,-4.905 0.428,-7.335 l 0.223,-4.196 -0.425,0.31 c -0.367,0.266 -0.498,0.621 -0.586,1.041 -0.342,1.618 -1.157,29.308 -0.955,33.913 0.241,5.51 1.174,9.13 3.665,17.126 1.577,5.06 3.096,10.745 3.381,13.23 l 0.176,1.532 -2.885,0.571 c -2.65,0.525 -12.045,0.718 -12.642,0.47 z M 879.492,34.783 c 0.184,-3.255 -0.324,-7.185 -2.41,-9.272 -1.887,-1.887 -3.617,-2.422 -6.293,-2.148 -3.368,0.345 -6.012,2.455 -6.794,5.343 -0.765,2.828 0.24,6.54 2.124,8.654 6.124,6.87 13.174,-2.217 13.373,-2.577 z m -16.728,-10.676 2.14,-2.079 4.455,-1.126 c 3.127,-0.79 3.813,-0.909 3.733,-1.317 -0.084,-0.427 -0.443,-0.494 -2.944,-0.494 -3.906,0 -7.266,2.074 -8.237,3.19 -1.398,1.606 -1.056,1.82 -1.056,3.157 0,0.455 -0.384,1.153 -0.246,1.153 0.139,0 0.879,-1.243 2.155,-2.484 z"
      style="fill:#b14817;fill-opacity:1;stroke:none;stroke-width:0;stroke-linecap:round;stroke-linejoin:round;stroke-dasharray:none;stroke-opacity:1"
      transform="translate(-476.265,-202.833)" id="path11" />
    <path
      d="m 764.227,210.561 -9.741,-0.665 -1.528,-2.576 c -0.437,-0.738 -0.329,-3.162 -0.303,-4.91 0.065,-4.306 0.53,-10.015 -0.06,-12.648 -0.395,-1.77 -0.562,-2.618 0.374,-3.1 1.569,-0.808 20.8,-1 18.53,-0.807 l -0.223,2.358 0.542,9.487 c 0.29,5.064 1.628,10.562 1.63,11.274 0,1.408 -9.221,1.587 -9.221,1.587 z"
      style="fill:#ffffff;fill-opacity:1;stroke:none;stroke-width:0.199999;stroke-linecap:round;stroke-linejoin:round;stroke-dasharray:none"
      transform="translate(-476.265,-202.833)" id="path12" />
    <path
      d="m 798.638,219.292 c -2.634,-0.796 -4.669,-2.37 -5.855,-4.752 -0.662,-1.327 -1.002,-2.765 -1.084,-3.315 l -0.27,-1.8 8.48,0.903 c 4.346,0.463 8.63,0.776 8.805,0.79 0.437,0.035 1.813,5.006 1.813,6.28 0,1.846 -1.368,2.46 -6.017,2.416 -2.42,-0.023 -5.161,-0.307 -5.872,-0.522 z"
      style="fill:#692305;fill-opacity:1;stroke:none;stroke-width:0;stroke-linecap:round;stroke-linejoin:round;stroke-dasharray:none;stroke-opacity:1"
      transform="translate(-476.265,-202.833)" id="path13" />
    <path
      d="m 800.338,210.248 c -6.04,-0.865 -8.631,-1.247 -9.446,-2.149 -0.838,-0.925 -0.83,-2.547 -0.83,-22.323 0,-11.81 0.133,-18.56 0.673,-21.385 0.612,-3.206 2.542,-1.861 5.82,-0.804 2.215,0.714 6.168,1.86 8.709,2.429 2.54,0.57 5.514,1.233 5.705,1.407 0.191,0.174 -0.73,2.47 -1.394,4.605 -3.836,12.316 -4.162,26.173 -2.01,33.677 1.646,5.735 1.397,4.735 -2.21,4.657 -1.671,-0.037 -4.348,-0.018 -5.017,-0.114 z"
      style="fill:#b14817;fill-opacity:1;stroke:none;stroke-width:0;stroke-linecap:round;stroke-linejoin:round;stroke-dasharray:none;stroke-opacity:1"
      transform="translate(-476.265,-202.833)" id="path14" />
    <path
      d="m 799.44,209.602 -7.937,-0.75 -1.42,-3.66 c -0.342,-0.882 -0.413,-3.81 -0.39,-5.862 0.057,-5.057 0.46,-11.761 -0.052,-14.853 -0.343,-2.078 -0.487,-3.074 0.324,-3.64 1.36,-0.95 18.072,-2.648 17.863,-0.678 l -0.283,2.679 -1.238,10.96 c -0.668,5.915 2.111,15.424 2.113,16.26 0,1.654 -8.98,-0.456 -8.98,-0.456 z"
      style="fill:#ffffff;fill-opacity:1;stroke:none;stroke-width:0.199999;stroke-linecap:round;stroke-linejoin:round;stroke-dasharray:none"
      transform="translate(-476.265,-202.833)" id="path15" />
    <path
      d="m 755.853,222.09 c -0.342,-0.553 -2.193,-11.47 -1.978,-11.679 0.095,-0.093 8.453,0.652 10.164,0.496 l 9.698,-0.886 1.263,5.144 c 0.605,2.468 1.355,6.101 1.495,6.639 0.25,0.955 -0.584,0.573 -10.115,0.573 -5.364,0 -10.391,-0.067 -10.527,-0.287 z m 95.027,4.464 c -1.853,-0.423 -1.347,-0.533 -2.578,-4.527 -0.68,-2.207 -1.741,-4.907 -1.62,-5.028 0.123,-0.122 5.594,0.008 10.566,-0.177 8.618,-0.321 9.594,-0.675 9.858,0.206 0.152,0.508 0.779,3.074 1.2,4.926 0.93,4.1 2.086,4.597 -2.966,4.607 -2.033,0.004 -7.085,0.225 -8.662,0.337 -1.576,0.11 -2.962,0.302 -3.986,0.069 z m 43.063,-2.861 c -1.2,-0.841 -2.219,-3.369 -3.042,-7.036 l -0.735,-3.274 4.286,-0.857 a 423.23,423.23 0 0 0 8.54,-1.804 c 3.516,-0.79 6.897,-1.669 7.151,-1.388 0.336,0.37 3.207,13.768 3.207,14.664 0,0.141 -4.616,0.394 -9.37,0.394 -6.905,0 -9.204,-0.116 -10.037,-0.7 z"
      style="fill:#692305;fill-opacity:1;stroke:none;stroke-width:0;stroke-linecap:round;stroke-linejoin:round;stroke-dasharray:none;stroke-opacity:1"
      transform="translate(-476.265,-202.833)" id="path16" />
    <path
      d="M 849.463,4.218 C 848.955,3.67 848.4,3.166 847.898,2.613 c -1.395,-1.535 -2.352,-3.407 -3.476,-5.15 -1.328,-2.059 -2.925,-4.001 -3.68,-6.332 -0.193,-0.597 -0.328,-1.245 -0.159,-1.85 a 1.62,1.62 0 0 1 0.485,-0.792 1.22,1.22 0 0 1 0.866,-0.305 c 0.188,0.013 0.37,0.075 0.537,0.161 0.167,0.086 0.321,0.195 0.472,0.308 0.396,0.293 0.775,0.61 1.17,0.904 0.765,0.567 1.59,1.049 2.37,1.597 3.918,2.754 6.525,7.064 10.42,9.851 0.516,0.37 1.056,0.714 1.5,1.167 0.223,0.226 0.42,0.48 0.565,0.761 0.146,0.282 0.239,0.594 0.25,0.91 0.012,0.354 -0.078,0.706 -0.224,1.028 -0.147,0.321 -0.35,0.614 -0.57,0.89 -0.822,1.031 -1.891,1.833 -2.977,2.58 a 50.013,50.013 0 0 1 -2.844,1.82 13.079,13.079 0 0 0 -3.14,-5.943 z"
      style="opacity:1;fill:#b14817;fill-opacity:1;stroke:#000000;stroke-width:0.934753;stroke-linecap:round;stroke-linejoin:round;stroke-dasharray:none;stroke-opacity:1"
      transform="matrix(1.08896,0.30282,-0.37482,0.94675,-546.702,-457.882)" id="path17" />
    <path
      d="m 850.813,-9.803 c 0.223,0.811 0.558,1.592 0.99,2.314 0.601,1.002 1.385,1.88 2.023,2.859 a 10.629,10.629 0 0 1 1.423,3.213 c 0.068,0.273 0.127,0.555 0.273,0.796 0.188,0.312 0.522,0.533 0.883,0.585 0.362,0.052 0.744,-0.066 1.013,-0.313 0.269,-0.247 0.42,-0.617 0.399,-0.982 a 1.256,1.256 0 0 0 -0.508,-0.93 l -2.43,-3.617 -3.864,-4.624 z"
      style="opacity:0.342428;fill:#1a1a1a;fill-opacity:1;stroke:none;stroke-width:1;stroke-linecap:round;stroke-linejoin:round;stroke-dasharray:none;stroke-opacity:1"
      transform="translate(-476.172,-202.88)" id="path18" />
    <path
      d="m 854.268,13.302 c -1.555,-0.294 -3.821,-2.988 -3.821,-4.614 0,-0.746 0.587,-3.087 1.21,-4.23 1.155,-2.119 12.784,-15.9 13.102,-15.589 0.097,0.094 -0.388,3.4 -0.718,5.596 -0.329,2.196 -0.695,3.466 -0.542,3.615 0.608,0.593 3.485,-0.857 8.129,-3.887 3.92,-2.558 6.56,-3.866 6.699,-3.198 0.24,1.154 -2.041,5.978 -4.331,9.798 -1.063,1.774 -1.778,2.98 -1.636,3.203 0.141,0.223 0.946,-0.428 2.384,-1.166 1.437,-0.737 2.925,-1.704 3.122,-1.792 0.085,-0.038 0.587,-0.248 0.725,0.02 0.183,0.355 -0.024,1.282 -0.261,1.946 -0.055,2.84 -4.521,7.91 -6.386,8.851 -2.079,1.048 -14.426,2.06 -17.676,1.447 z"
      style="fill:#692305;fill-opacity:1;stroke:none;stroke-width:0;stroke-linecap:round;stroke-linejoin:round;stroke-dasharray:none;stroke-opacity:1"
      transform="translate(-476.265,-202.833)" id="path19" />
    <path
      d="m -5852.713,-1008.374 a 52.054,52.054 0 0 1 12.315,-1.449 c 4.109,0.01 8.206,0.507 12.315,0.483 4.274,-0.025 8.526,-0.612 12.799,-0.724 5.797,-0.152 11.615,0.571 17.386,0 5.59,-0.554 11.045,-2.316 16.662,-2.415 1.61,-0.028 3.222,0.08 4.83,0 a 20.554,20.554 0 0 0 7.039,-1.628 l 1.118,3.948 a 374.25,374.25 0 0 1 3.335,18.08 l 3.025,9.514 2.69,12.54 -92.597,22.105 -6.771,-30.233 -1.903,-7.196 -1.262,-7.516 -4.28,-11.877 13.298,-3.632 z"
      style="fill:#ffffff;fill-opacity:1;stroke:none;stroke-width:0.949685;stroke-linecap:round;stroke-linejoin:round;stroke-dasharray:none"
      transform="matrix(0.2106,0,0,0.2106,1645.976,209.865)" id="path20" />
    <path
      d="m 870.706,39.106 c -1.229,-0.222 -2.381,-0.882 -3.371,-1.929 -1.982,-2.096 -2.86,-5.445 -2.113,-8.058 0.49,-1.715 1.518,-2.946 3.07,-3.68 1.048,-0.496 2.077,-0.703 3.488,-0.702 1.02,0 1.474,0.057 2.197,0.275 1.43,0.432 2.859,1.497 3.69,2.752 0.314,0.475 0.747,1.329 0.697,1.378 -0.019,0.019 -0.386,-0.176 -0.817,-0.433 -0.93,-0.555 -1.502,-0.824 -2.208,-1.039 -0.457,-0.14 -0.625,-0.159 -1.371,-0.157 -0.744,10e-4 -0.919,0.022 -1.386,0.163 -1.37,0.413 -2.487,1.29 -3.165,2.487 -1.138,2.005 -0.864,4.297 0.714,5.984 1.068,1.142 2.514,1.71 4.653,1.827 l 0.755,0.042 -0.604,0.314 c -1.46,0.758 -2.883,1.02 -4.23,0.776 z"
      style="fill:#ffffff;fill-opacity:1;stroke:none;stroke-width:0;stroke-linecap:round;stroke-linejoin:round;stroke-dasharray:none;stroke-opacity:1"
      transform="translate(-476.265,-202.833)" id="path21" />
    <path
      d="m 871.258,14.124 32.442,0.85 18.164,0.197 1.683,-0.36 c -0.132,0.028 -0.265,0.05 -0.4,0.062 -0.32,0.031 -0.645,0.016 -0.967,0 -8.535,-0.406 -17.08,-0.53 -25.623,-0.694 a 2812,2812 0 0 1 -25.59,-0.607 z"
      style="opacity:0.161277;fill:#1a1a1a;fill-opacity:1;stroke:none;stroke-width:1;stroke-linecap:round;stroke-linejoin:round;stroke-dasharray:none;stroke-opacity:1"
      transform="translate(-476.312,-202.88)" id="path22" />
  </g>
  <path
    d="m 150.0086,94.922517 a 15.254801,14.383695 3.3323723 0 0 1.06022,4.190985 c 2.41772,6.399278 7.91795,11.714118 14.64224,14.149538 1.09999,0.39812 2.23306,0.72368 3.39507,0.90047 0.7156,0.10886 1.44074,0.16118 2.16509,0.15563"
    style="fill:none;stroke:#000000;stroke-width:0.564991;stroke-linecap:round;stroke-linejoin:round;stroke-dasharray:none;stroke-opacity:1"
    id="path23" />
  <path
    d="m 180.345,114.08 c -1.896,0.213 -3.8,0.348 -5.706,0.404 a 104.513,104.513 0 0 0 9.375,29.155 c 0.555,1.126 1.131,2.242 1.705,3.36 0.434,0.844 0.878,1.705 1.55,2.376 0.458,0.457 1.017,0.82 1.396,1.344 0.144,0.2 0.264,0.425 0.454,0.583 a 0.71,0.71 0 0 0 0.329,0.162 c 0.122,0.02 0.253,-0.001 0.353,-0.073 a 0.46,0.46 0 0 0 0.153,-0.196 0.645,0.645 0 0 0 0.047,-0.244 c 0.002,-0.167 -0.048,-0.33 -0.096,-0.49 -2.886,-9.54 -2.469,-19.749 -1.447,-29.663 0.205,-1.988 0.433,-3.973 0.684,-5.956 l -1.121,-2.06 a 69.66,69.66 0 0 1 -7.676,1.298 z"
    style="display:inline;opacity:0.338058;fill:#333333;stroke-width:0;stroke-linecap:round;stroke-linejoin:round"
    id="path24" />
  <path
    d="m 186.864,138.2 a 967.23,967.23 0 0 1 3.53,15.997 c 0.304,1.435 0.604,2.87 0.918,4.303 0.447,2.044 0.92,4.083 1.315,6.139 0.217,1.13 0.41,2.266 0.621,3.398 0.376,2.015 0.81,4.018 1.206,6.03 a 160.484,160.484 0 0 1 1.498,8.941 l 0.684,3.458 a 1715.706,1715.706 0 0 1 1.447,7.997 l 0.607,3.915 0.607,2.932 c 0.36,2.518 0.764,5.029 1.214,7.532 0.37,2.058 0.77,4.11 1.176,6.162 0.379,1.918 0.762,3.834 1.15,5.75 0.282,1.54 0.593,3.077 0.932,4.606 0.88,3.97 1.953,7.894 2.817,11.867 0.24,1.1 0.462,2.205 0.694,3.307 0.508,2.42 1.057,4.832 1.644,7.235 a 244.836,244.836 0 0 0 5.19,21.376 3.058,3.058 0 0 0 -2.139,-0.018 c -0.253,0.093 -0.499,0.222 -0.767,0.253 a 0.824,0.824 0 0 1 -0.4,-0.044 0.55,0.55 0 0 1 -0.294,-0.264 0.469,0.469 0 0 1 0.091,-0.53 76.683,76.683 0 0 0 -0.785,-6.193 c -0.535,-2.246 -1.07,-4.49 -1.608,-6.736 -3.683,-15.386 -7.436,-30.762 -10.452,-46.293 -2.173,-11.187 -3.961,-22.444 -5.788,-33.693 a 4920.282,4920.282 0 0 0 -5.503,-33.166 z"
    style="display:inline;opacity:0.338058;fill:#ececec;stroke-width:0;stroke-linecap:round;stroke-linejoin:round"
    id="path25" />
  <path
    d="m 149.628,94.91 a 0.818,0.818 0 0 1 0.43,0.339 c 0.101,0.156 0.157,0.339 0.18,0.523 0.048,0.37 -0.028,0.742 -0.05,1.114 a 3.884,3.884 0 0 0 0.75,2.522 16.877,16.877 0 0 0 1.659,3.65 c 0.717,1.182 1.577,2.272 2.503,3.298 a 27.41,27.41 0 0 0 3.456,3.25 24.209,24.209 0 0 0 13.107,5.043 c -0.776,0.374 -1.593,0.661 -2.431,0.856 -2.53,0.587 -5.216,0.31 -7.672,-0.537 -3.092,-1.067 -5.86,-3.035 -7.92,-5.575 -2.06,-2.54 -3.412,-5.643 -3.916,-8.875 -0.145,-0.93 -0.225,-1.885 -0.588,-2.753 -0.12,-0.285 -0.268,-0.557 -0.39,-0.84 -0.124,-0.284 -0.222,-0.584 -0.233,-0.892 -0.01,-0.309 0.073,-0.63 0.278,-0.86 a 0.886,0.886 0 0 1 0.381,-0.256 0.75,0.75 0 0 1 0.456,-0.007 z m -55.893,112.756 -0.572,0.164 0.546,-0.164 0.556,0.13 c 0.584,0.138 1.167,0.286 1.73,0.49 0.616,0.223 1.205,0.512 1.81,0.763 0.749,0.31 1.523,0.56 2.312,0.75 l 3.54,0.916 c 1.195,0.336 2.402,0.629 3.617,0.879 1.266,0.26 2.542,0.474 3.798,0.775 0.288,0.069 0.581,0.145 0.827,0.31 0.247,0.165 0.433,0.414 0.537,0.692 0.103,0.278 0.126,0.583 0.079,0.876 -0.095,0.586 -0.458,1.102 -0.91,1.486 -0.906,0.767 -2.127,1.046 -3.116,1.7 -1.286,0.85 -2.073,2.252 -2.92,3.54 a 29.07,29.07 0 0 1 -6.382,6.925 57.015,57.015 0 0 0 -7.984,16.975 0.871,0.871 0 0 1 -0.284,-0.103 1.028,1.028 0 0 1 -0.446,-0.57 1.547,1.547 0 0 1 -0.043,-0.733 c 0.08,-0.487 0.329,-0.927 0.514,-1.384 0.474,-1.167 0.533,-2.463 0.435,-3.718 -0.097,-1.256 -0.344,-2.495 -0.46,-3.75 -0.256,-2.75 0.12,-5.514 0.336,-8.268 0.266,-3.42 0.284,-6.86 0.051,-10.283 l 0.078,-4.083 a 3.167,3.167 0 0 1 -0.177,-1.874 c 0.133,-0.624 0.46,-1.204 0.926,-1.64 a 3.165,3.165 0 0 1 1.602,-0.8 z m 35.605,-9.043 a 2.131,2.131 0 0 1 1.666,-0.781 c 0.635,0.01 1.259,0.326 1.641,0.833 0.411,0.543 0.532,1.245 0.672,1.912 0.298,1.415 0.738,2.795 1.137,4.186 1.2,4.186 2.032,8.478 3.41,12.609 0.687,2.058 1.507,4.068 2.274,6.097 1.765,4.669 3.248,9.438 4.703,14.211 0.788,2.586 1.567,5.173 2.377,7.752 0.63,2.007 1.28,4.01 1.809,6.046 0.268,1.031 0.505,2.07 0.775,3.1 0.386,1.477 0.838,2.936 1.292,4.393 0.223,0.719 0.448,1.438 0.62,2.17 0.395,1.68 0.513,3.409 0.78,5.112 0.268,1.704 0.701,3.421 1.649,4.862 0.161,0.246 0.338,0.483 0.466,0.748 0.128,0.265 0.205,0.565 0.154,0.854 a 1.081,1.081 0 0 1 -0.233,0.496 c -0.118,0.143 -0.27,0.255 -0.438,0.332 -0.336,0.154 -0.728,0.161 -1.084,0.062 -0.355,-0.1 -0.677,-0.3 -0.956,-0.542 a 6.223,6.223 0 0 1 -0.751,-0.813 c -0.397,-0.492 -0.775,-1 -1.086,-1.55 -0.86,-1.52 -1.172,-3.283 -1.411,-5.013 -0.24,-1.73 -0.425,-3.492 -1.07,-5.116 -0.306,-0.774 -0.713,-1.505 -1.033,-2.274 -0.825,-1.982 -1.05,-4.153 -1.498,-6.253 -0.36,-1.683 -0.867,-3.332 -1.24,-5.012 -0.524,-2.356 -0.784,-4.775 -1.5,-7.08 -0.535,-1.73 -1.32,-3.37 -1.963,-5.064 -0.88,-2.318 -1.493,-4.727 -2.274,-7.08 -0.978,-2.948 -2.224,-5.815 -2.945,-8.836 -0.427,-1.79 -0.669,-3.626 -1.24,-5.375 -0.504,-1.542 -1.257,-2.99 -1.86,-4.496 -0.477,-1.188 -0.86,-2.411 -1.293,-3.617 -0.422,-1.18 -0.893,-2.347 -1.188,-3.566 a 12.95,12.95 0 0 1 -0.362,-3.307 z m 51.594,1.204 c 0.108,-0.246 0.154,-0.515 0.251,-0.765 0.049,-0.125 0.111,-0.246 0.196,-0.35 a 0.755,0.755 0 0 1 0.32,-0.237 c 0.142,-0.05 0.301,-0.049 0.444,0 0.143,0.047 0.27,0.14 0.365,0.255 0.193,0.232 0.258,0.55 0.233,0.85 -0.024,0.3 -0.129,0.588 -0.245,0.866 -0.116,0.278 -0.245,0.552 -0.321,0.843 -0.138,0.523 -0.1,1.077 0.006,1.608 0.104,0.53 0.272,1.045 0.396,1.571 0.478,2.037 0.27,4.164 0.438,6.249 0.27,3.344 1.498,6.526 2.266,9.793 1.077,4.583 1.246,9.343 2.339,13.922 0.681,2.857 1.716,5.616 2.52,8.44 0.987,3.458 1.627,7.005 2.157,10.561 0.33,2.22 0.62,4.452 1.173,6.628 0.553,2.175 1.381,4.308 2.7,6.125 0.359,0.494 0.76,0.977 0.94,1.56 0.09,0.292 0.12,0.605 0.055,0.904 a 1.234,1.234 0 0 1 -0.483,0.751 c -0.251,0.173 -0.573,0.23 -0.873,0.181 a 1.63,1.63 0 0 1 -0.808,-0.4 c -0.369,-0.327 -0.6,-0.776 -0.84,-1.206 -0.56,-1 -1.214,-1.957 -1.608,-3.033 -0.356,-0.97 -0.488,-2.007 -0.622,-3.032 -0.213,-1.632 -0.438,-3.265 -0.84,-4.86 -0.31,-1.227 -0.723,-2.426 -1.023,-3.654 -0.568,-2.322 -0.726,-4.728 -1.28,-7.053 -0.578,-2.429 -1.579,-4.735 -2.301,-7.125 -1.123,-3.716 -1.562,-7.598 -2.339,-11.401 -0.493,-2.412 -1.123,-4.793 -1.79,-7.162 -0.9,-3.19 -1.876,-6.406 -1.974,-9.72 -0.043,-1.467 0.086,-2.957 -0.255,-4.385 -0.14,-0.588 -0.36,-1.155 -0.585,-1.717 -0.191,-0.476 -0.39,-0.953 -0.483,-1.457 -0.093,-0.504 -0.074,-1.044 0.154,-1.503 0.2,-0.401 0.542,-0.71 0.873,-1.013 0.33,-0.303 0.665,-0.622 0.845,-1.033 z M 244.88,63.026 a 26.427,26.427 0 0 1 6.158,7.336 23.666,23.666 0 0 1 0.31,13.798 17.528,17.528 0 0 1 -5.891,9.508 c -3.968,3.265 -9.432,4.63 -14.47,3.618 l -13.177,0.671 a 32.48,32.48 0 0 0 4.444,0.879 c 2.773,0.35 5.577,0.34 8.372,0.31 2.189,-0.023 4.379,-0.058 6.563,-0.207 2.1,-0.143 4.212,-0.397 6.201,-1.085 1.303,-0.45 2.55,-1.09 3.617,-1.964 1.807,-1.48 3.017,-3.554 4.083,-5.632 1.137,-2.22 2.161,-4.512 2.79,-6.925 0.78,-2.99 0.937,-6.137 0.517,-9.198 a 23.357,23.357 0 0 0 -1.912,-6.615 c -0.81,-1.752 -1.868,-3.417 -3.307,-4.703 -2.197,-1.963 -5.252,-2.932 -8.18,-2.594 z m -4.694,36.843 c 0.06,0.137 0.064,0.295 0.026,0.439 a 1.007,1.007 0 0 1 -0.214,0.389 c -0.194,0.227 -0.456,0.382 -0.69,0.568 -0.507,0.4 -0.884,0.94 -1.344,1.395 -0.746,0.737 -1.69,1.235 -2.532,1.86 -0.623,0.463 -1.194,1 -1.86,1.396 -0.992,0.589 -2.142,0.837 -3.256,1.136 -1.058,0.285 -2.101,0.622 -3.152,0.93 -1.13,0.332 -2.286,0.632 -3.463,0.62 -0.602,-0.005 -1.202,-0.092 -1.804,-0.108 -0.602,-0.015 -1.223,0.045 -1.761,0.315 -0.181,0.091 -0.35,0.204 -0.528,0.301 a 1.54,1.54 0 0 1 -0.568,0.2 0.846,0.846 0 0 1 -0.302,-0.02 0.653,0.653 0 0 1 -0.267,-0.138 0.531,0.531 0 0 1 -0.161,-0.252 0.45,0.45 0 0 1 0.017,-0.297 0.476,0.476 0 0 1 0.167,-0.199 0.675,0.675 0 0 1 0.24,-0.101 c 0.17,-0.038 0.348,-0.022 0.523,-0.01 1.48,0.102 2.98,-0.064 4.393,-0.517 0.68,-0.218 1.336,-0.502 2.015,-0.724 1.33,-0.435 2.727,-0.63 4.082,-0.981 1.12,-0.29 2.218,-0.69 3.204,-1.292 0.918,-0.56 1.725,-1.288 2.636,-1.86 0.462,-0.292 0.95,-0.542 1.405,-0.843 0.455,-0.302 0.884,-0.661 1.179,-1.121 0.151,-0.238 0.264,-0.497 0.408,-0.739 0.144,-0.242 0.326,-0.471 0.573,-0.605 a 0.858,0.858 0 0 1 0.579,-0.095 0.68,0.68 0 0 1 0.27,0.122 0.6,0.6 0 0 1 0.185,0.231 z m -85.817,-38.22 c -0.39,0.378 -0.82,0.715 -1.279,1.004 -0.352,0.222 -0.721,0.416 -1.06,0.658 a 4.518,4.518 0 0 0 -1.307,1.463 L 140.41,49.188 a 134.695,134.695 0 0 1 -1.918,-3.49 0.306,0.306 0 0 1 0.254,-0.512 c 0.085,0.01 0.164,0.058 0.213,0.127 0.048,0.07 0.066,0.16 0.047,0.243 a 0.307,0.307 0 0 1 -0.148,0.197 c 0.192,0.282 0.387,0.562 0.584,0.84 a 41.08,41.08 0 0 0 1.28,1.718 c 0.393,0.498 0.802,0.985 1.242,1.444 0.545,0.569 1.137,1.092 1.717,1.626 0.634,0.583 1.255,1.18 1.863,1.79 l 1.755,1.574 0.894,0.924 c 0.358,0.345 0.706,0.7 1.042,1.065 0.36,0.39 0.706,0.792 1.06,1.187 a 47.952,47.952 0 0 0 2.185,2.291 c 0.253,0.263 0.543,0.491 0.857,0.676 0.25,0.146 0.516,0.267 0.74,0.45 0.11,0.09 0.209,0.195 0.292,0.31 z m -19.111,56.875 a 45.356,45.356 0 0 0 -0.511,6.395 c -0.007,0.788 0.006,1.578 -0.083,2.36 -0.09,0.783 -0.286,1.565 -0.685,2.244 -0.674,1.147 -1.858,1.899 -3.066,2.457 -1.208,0.559 -2.488,0.973 -3.62,1.672 -0.953,0.588 -1.798,1.375 -2.85,1.754 -0.531,0.191 -1.096,0.27 -1.63,0.449 a 3.025,3.025 0 0 0 -0.76,0.362 1.79,1.79 0 0 0 -0.57,0.614 c -0.102,0.187 -0.16,0.394 -0.226,0.596 -0.065,0.203 -0.139,0.406 -0.263,0.579 a 0.931,0.931 0 0 1 -0.225,0.224 0.685,0.685 0 0 1 -0.294,0.116 0.543,0.543 0 0 1 -0.311,-0.047 0.45,0.45 0 0 1 -0.216,-0.225 0.487,0.487 0 0 1 -0.023,-0.286 0.76,0.76 0 0 1 0.116,-0.264 c 0.108,-0.161 0.257,-0.29 0.382,-0.437 0.234,-0.277 0.382,-0.619 0.47,-0.97 0.09,-0.352 0.124,-0.715 0.15,-1.076 a 23.13,23.13 0 0 0 0.074,-1.9 c -0.001,-0.172 -0.005,-0.346 0.036,-0.512 0.052,-0.21 0.174,-0.399 0.329,-0.55 0.154,-0.15 0.341,-0.265 0.537,-0.356 0.392,-0.182 0.821,-0.272 1.217,-0.446 0.95,-0.416 1.623,-1.265 2.412,-1.937 0.813,-0.693 1.77,-1.213 2.521,-1.973 0.537,-0.543 0.95,-1.193 1.425,-1.79 1.047,-1.317 2.39,-2.38 3.399,-3.728 0.3,-0.4 0.567,-0.823 0.84,-1.242 0.46,-0.705 0.935,-1.4 1.425,-2.083 z"
    style="display:inline;opacity:0.338058;fill:#333333;stroke-width:0;stroke-linecap:round;stroke-linejoin:round"
    id="path26" />
  <path
    d="m 135.295,93.652 a 2.62,2.62 0 0 1 1.918,-0.403 c 0.66,0.114 1.27,0.47 1.722,0.964 0.453,0.495 0.75,1.123 0.882,1.78 a 4.753,4.753 0 0 1 -0.046,1.994 c -0.3,1.306 -1.067,2.46 -1.953,3.466 -0.887,1.005 -1.901,1.89 -2.816,2.869 -3.437,3.682 -5.35,8.577 -8.77,12.278 -3.086,3.34 -7.22,5.513 -11.4,7.308 -3.36,1.442 -6.879,2.727 -9.647,5.115 -0.4,0.345 -0.786,0.715 -1.254,0.96 a 2.17,2.17 0 0 1 -0.748,0.243 c -0.262,0.03 -0.534,0 -0.775,-0.106 a 1.359,1.359 0 0 1 -0.639,-0.599 1.507,1.507 0 0 1 -0.165,-0.863 c 0.044,-0.42 0.257,-0.811 0.55,-1.114 0.295,-0.303 0.666,-0.523 1.055,-0.687 0.778,-0.327 1.633,-0.439 2.415,-0.757 0.891,-0.362 1.657,-0.979 2.34,-1.656 0.683,-0.678 1.295,-1.423 1.971,-2.107 1.801,-1.823 4.017,-3.18 5.92,-4.897 1.521,-1.372 2.83,-2.963 4.056,-4.604 1.379,-1.845 2.664,-3.767 4.202,-5.481 1.447,-1.613 3.116,-3.042 4.349,-4.824 0.846,-1.223 1.471,-2.59 2.338,-3.8 0.997,-1.39 2.292,-2.539 3.362,-3.873 0.346,-0.432 0.677,-0.891 1.133,-1.206 z"
    style="display:inline;opacity:0.338058;fill:#333333;stroke-width:0;stroke-linecap:round;stroke-linejoin:round"
    id="path27" />
  <path
    d="m 98.717,177.008 a 2.179,2.179 0 0 0 -1.354,-0.167 2.178,2.178 0 0 0 -1.185,0.678 c -0.24,0.27 -0.412,0.6 -0.493,0.95 a 9.318,9.318 0 0 1 0.219,4.732 c 0.015,0.726 0.046,1.45 0.091,2.175 0.088,1.393 0.23,2.79 0.146,4.183 -0.07,1.18 -0.304,2.346 -0.365,3.527 -0.037,0.717 -0.01,1.438 -0.067,2.154 -0.056,0.717 -0.2,1.44 -0.554,2.066 -0.433,0.765 -1.142,1.328 -1.718,1.992 -1.251,1.442 -1.849,3.335 -2.923,4.914 -0.983,1.446 -2.348,2.599 -3.818,3.545 -2.093,1.346 -4.416,2.302 -6.505,3.654 -2.623,1.698 -4.837,4.007 -6.504,6.65 -0.92,1.46 -1.68,3.028 -2.192,4.677 -0.45,1.445 -0.707,2.945 -1.17,4.385 -0.657,2.05 -1.717,3.945 -2.85,5.774 -1.065,1.72 -2.203,3.397 -3.142,5.189 -1.028,1.96 -1.813,4.05 -2.997,5.92 -0.824,1.301 -1.832,2.481 -2.63,3.8 -1.038,1.713 -1.743,3.685 -3.216,5.042 -0.176,0.162 -0.363,0.315 -0.508,0.505 -0.073,0.095 -0.135,0.2 -0.176,0.312 a 0.799,0.799 0 0 0 -0.047,0.352 c 0.012,0.12 0.056,0.234 0.121,0.335 0.065,0.1 0.151,0.187 0.247,0.258 0.193,0.143 0.423,0.224 0.655,0.284 1.136,0.297 2.334,0.135 3.508,0.146 1.27,0.013 2.53,0.231 3.8,0.293 2.345,0.113 4.678,-0.307 7.016,-0.512 a 38.791,38.791 0 0 1 3.289,-0.146 c 0.194,0 0.39,0 0.581,-0.037 a 0.975,0.975 0 0 0 0.515,-0.255 0.844,0.844 0 0 0 0.208,-0.386 1.25,1.25 0 0 0 0.024,-0.44 c -0.033,-0.294 -0.144,-0.573 -0.232,-0.855 -0.514,-1.638 -0.285,-3.406 -0.439,-5.116 -0.128,-1.428 -0.524,-2.82 -0.73,-4.239 -0.218,-1.5 -0.223,-3.022 -0.366,-4.53 -0.163,-1.73 -0.507,-3.466 -0.292,-5.19 0.262,-2.096 1.338,-4.034 1.535,-6.138 0.097,-1.045 -0.026,-2.107 0.146,-3.143 0.255,-1.54 1.137,-2.896 2.046,-4.165 0.817,-1.14 1.678,-2.259 2.704,-3.216 0.964,-0.9 2.06,-1.644 3.164,-2.364 1.105,-0.721 2.223,-1.421 3.337,-2.129 a 286.53,286.53 0 0 0 3.126,-2.015 30.249,30.249 0 0 0 2.197,-2.196 c 0.914,-1.013 1.758,-2.087 2.61,-3.153 0.942,-1.18 1.898,-2.355 2.686,-3.643 a 17.055,17.055 0 0 0 2.197,-5.658 18.731,18.731 0 0 0 1.266,-4.858 c 0.22,-1.815 0.172,-3.65 0.18,-5.478 a 86.94,86.94 0 0 1 0.078,-3.281 l -0.517,-2.429 a 23.15,23.15 0 0 1 -0.702,-2.753 z m 30.132,-32.309 -1.628,0.232 1.654,-0.232 2.093,-0.31 a 0.47,0.47 0 0 1 0.374,-0.367 0.47,0.47 0 0 1 0.479,0.212 0.555,0.555 0 0 1 0.078,0.312 0.87,0.87 0 0 1 -0.078,0.316 c -0.087,0.2 -0.227,0.372 -0.336,0.56 -0.19,0.326 -0.286,0.699 -0.343,1.072 -0.057,0.373 -0.076,0.75 -0.123,1.124 a 7.754,7.754 0 0 1 -0.852,2.688 34.766,34.766 0 0 0 -0.698,2.3 c -0.141,0.532 -0.271,1.07 -0.49,1.575 a 4.769,4.769 0 0 1 -0.595,1.008 3.23,3.23 0 0 1 -1.189,0.698 c -0.702,0.229 -1.457,0.21 -2.196,0.232 -0.854,0.027 -1.706,0.113 -2.558,0.181 -2.414,0.192 -4.84,0.235 -7.26,0.13 a 16.643,16.643 0 0 0 8.294,-6.176 c 0.772,-1.1 1.413,-2.297 2.3,-3.307 a 8.793,8.793 0 0 1 3.074,-2.248 z m 61.934,34.339 -1.478,12.324 a 53.77,53.77 0 0 1 -1.105,13.462 c -1.2,5.68 -3.333,11.325 -2.791,17.105 0.081,0.866 0.223,1.725 0.362,2.584 0.396,2.445 0.776,4.932 0.465,7.39 -0.07,0.553 -0.175,1.103 -0.21,1.66 -0.035,0.557 0.003,1.129 0.21,1.647 0.096,0.24 0.228,0.472 0.253,0.73 a 0.682,0.682 0 0 1 -0.065,0.377 0.49,0.49 0 0 1 -0.12,0.15 0.416,0.416 0 0 1 -0.172,0.087 0.419,0.419 0 0 1 -0.2,-0.005 0.485,0.485 0 0 1 -0.178,-0.093 0.655,0.655 0 0 1 -0.208,-0.34 c -0.071,-0.26 -0.014,-0.535 0.018,-0.802 0.093,-0.783 -0.033,-1.577 -0.235,-2.34 -0.202,-0.761 -0.479,-1.502 -0.695,-2.26 -0.885,-3.098 -0.738,-6.395 -1.344,-9.56 -0.295,-1.54 -0.766,-3.038 -1.188,-4.547 -0.45,-1.61 -0.846,-3.234 -1.24,-4.858 -0.527,-2.166 -1.054,-4.342 -1.24,-6.563 -0.096,-1.135 -0.103,-2.276 -0.207,-3.41 -0.035,-0.379 -0.081,-0.759 -0.052,-1.137 a 2.902,2.902 0 0 1 0.687,-1.656 c 0.397,-0.461 0.943,-0.791 1.535,-0.928 a 64.152,64.152 0 0 0 6.821,-11.162 c 0.673,-1.406 1.3,-2.855 1.55,-4.393 0.147,-0.899 0.165,-1.827 0.466,-2.687 0.094,-0.27 0.215,-0.53 0.361,-0.775 z m -66.327,30.801 a 97.237,97.237 0 0 0 -1.066,3.064 c 2.203,0.16 4.398,0.443 6.57,0.846 0.496,0.093 0.998,0.192 1.502,0.159 0.252,-0.017 0.503,-0.066 0.736,-0.163 a 1.63,1.63 0 0 0 0.612,-0.434 c 0.182,-0.211 0.298,-0.474 0.352,-0.748 0.054,-0.273 0.048,-0.556 0.002,-0.83 -0.092,-0.55 -0.338,-1.06 -0.573,-1.565 a 45.914,45.914 0 0 1 -3.494,-10.97 97.253,97.253 0 0 0 -4.64,10.641 z"
    style="display:inline;opacity:0.338058;fill:#333333;stroke-width:0;stroke-linecap:round;stroke-linejoin:round"
    id="path28" />
  <path
    d="m 160.914,196.375 a 19.407,19.407 0 0 0 0.078,4.677 l -0.207,2.997 c -0.093,1.325 -0.189,2.651 -0.232,3.98 -0.055,1.66 -0.029,3.325 -0.104,4.986 -0.088,1.957 -0.317,3.907 -0.387,5.865 -0.085,2.351 0.059,4.703 0.155,7.054 0.089,2.18 0.137,4.364 0.336,6.537 0.183,1.998 0.494,3.984 0.93,5.943 l 1.68,5.348 c 0.23,0.901 0.479,1.798 0.749,2.688 0.48,1.587 1.024,3.155 1.55,4.728 0.3,0.897 0.594,1.796 0.827,2.713 0.236,0.928 0.409,1.872 0.568,2.816 0.147,0.87 0.282,1.742 0.44,2.61 0.22,1.218 0.483,2.429 0.723,3.643 0.41,2.072 0.753,4.16 1.292,6.201 0.065,0.248 0.133,0.496 0.144,0.752 0.01,0.255 -0.043,0.522 -0.199,0.724 -0.149,0.194 -0.376,0.31 -0.604,0.398 a 3.639,3.639 0 0 1 -2.118,0.142 70.99,70.99 0 0 1 -0.246,-2.119 c -0.247,-2.456 -0.366,-4.93 -0.775,-7.364 -0.248,-1.474 -0.6,-2.929 -0.904,-4.392 -0.66,-3.178 -1.091,-6.408 -1.964,-9.535 -0.745,-2.669 -1.808,-5.244 -2.48,-7.932 -0.572,-2.284 -0.857,-4.63 -1.06,-6.976 -0.254,-2.94 -0.382,-5.89 -0.543,-8.837 -0.103,-1.903 -0.22,-3.806 -0.284,-5.71 a 100.215,100.215 0 0 1 1.268,-19.533 z"
    style="display:inline;opacity:0.338058;fill:#ececec;stroke-width:0;stroke-linecap:round;stroke-linejoin:round"
    id="path29" />
  <path
    d="m 49.611,187.231 c 0.205,1.77 0.385,3.542 0.54,5.317 0.315,3.61 0.525,7.232 0.495,10.856 -0.026,3.254 -0.248,6.523 -0.981,9.693 -0.734,3.17 -1.995,6.25 -3.96,8.845 -0.673,0.89 -1.44,1.73 -2.388,2.32 -0.948,0.59 -2.099,0.91 -3.196,0.704 -0.323,-0.06 -0.645,-0.169 -0.9,-0.376 a 1.185,1.185 0 0 1 -0.31,-0.378 0.935,0.935 0 0 1 -0.104,-0.476 c 0.012,-0.194 0.09,-0.379 0.196,-0.542 0.105,-0.162 0.237,-0.306 0.366,-0.45 a 32.84,32.84 0 0 0 3.638,-4.928 36.96,36.96 0 0 0 4.366,-10.716 c 0.834,-3.555 1.145,-7.21 1.455,-10.848 l 0.726,-8.495 z"
    style="display:inline;opacity:0.338058;fill:#1a1a1a;fill-opacity:1;stroke-width:0;stroke-linecap:round;stroke-linejoin:round"
    id="path30" />
  <path
    d="m 165.881,33.032 c -1.762,0 -3.6,3.249 -4.598,4.445 -4.085,4.897 -7.982,9.518 -10.457,15.463 -5.468,-5.47 -11.023,-10.743 -16.9,-15.775 -1.594,-1.364 -4.77,-4.59 -7.152,-3.72 -3.292,1.203 -0.504,7.717 0.32,9.786 3.395,8.52 8.319,17.25 16.54,21.934 v 0.36 c -4.873,4.466 -8.11,12.194 -11.97,17.619 -0.8,1.124 -3.767,4.374 -2.728,5.891 1.17,1.708 6.638,-1.938 7.866,-2.655 -5.525,13.27 -16.767,24.392 -26.968,34.146 -2.81,2.688 -5.962,5.319 -9.349,7.252 -0.969,0.553 -3.791,1.266 -3.983,2.537 -0.205,1.357 1.943,2.141 2.904,2.496 3.508,1.293 6.494,0.769 10.068,0.315 l -3.955,5.393 c 5.367,1.048 10.141,-2.166 14.743,-4.315 -0.688,1.729 -3.944,5.799 -3.63,7.437 0.26,1.354 3.752,0.874 4.709,0.771 4.94,-0.53 9.12,-2.974 12.585,-6.41 -0.398,1.923 -0.807,4.906 -2.266,6.322 -2.316,2.248 -7.637,2.454 -10.679,2.699 -8.499,0.683 -17.063,-0.057 -25.53,0.314 -5.111,0.224 -10.1,0.19 -15.102,1.508 -3.462,0.912 -6.66,3.027 -10.069,3.81 -3.043,0.698 -6.564,0.093 -9.708,0.557 -6.495,0.96 -12.06,4.633 -15.806,9.96 -7.264,10.332 -9.177,22.796 -11.594,34.88 -2.242,11.208 -6.267,22.967 -16.828,29.022 -4.208,2.413 -8.59,3.505 -13.305,4.42 0.481,2.907 5.466,3.196 7.911,3.548 8.388,1.206 16.551,0.418 24.092,-3.549 l -0.72,1.798 c 7.195,1.813 14.34,-6.526 18.34,-11.147 0,11.294 -0.32,22.945 1.022,34.16 0.44,3.673 0.394,9.304 2.322,12.533 0.992,1.66 3.254,1.47 4.926,1.492 4.069,0.055 8.134,0.358 12.225,0.358 1.4,0 4.084,0.442 5.023,-0.904 0.907,-1.3 -0.233,-3.847 -0.573,-5.209 -1.098,-4.389 -2.41,-8.801 -2.956,-13.304 -1.115,-9.2 -2.77,-22.03 3.425,-29.84 3.176,-4.004 8.48,-6.925 12.7,-9.714 -1.245,15.779 -3.428,34.284 1.626,49.622 2.16,6.558 7.11,6.472 13.117,6.472 1.933,0 5.159,0.453 6.566,-1.233 1.122,-1.345 0.326,-3.416 -0.093,-4.88 -1.131,-3.947 -2.356,-7.86 -3.277,-11.865 -2.814,-12.241 2.761,-23.41 4.356,-35.24 6.49,1.6 13.489,1.799 20.136,1.799 1.353,9.195 6.265,17.328 8.495,26.249 1.859,7.43 3.47,14.893 5.475,22.294 0.76,2.805 1.155,6.814 2.73,9.267 0.957,1.491 2.984,1.16 4.515,1.16 3.97,0.001 7.895,-0.313 11.867,-0.36 1.452,-0.018 3.48,-0.045 4.303,-1.49 0.837,-1.468 -0.132,-3.83 -0.474,-5.341 -0.955,-4.223 -2.106,-8.386 -3.156,-12.585 -1.6,-6.401 -3.96,-12.883 -4.886,-19.418 -1.15,-8.106 -0.462,-16.632 -0.462,-24.81 6.16,-0.504 12.323,-3.657 17.26,-7.192 0.662,15.42 5.28,31.905 9.294,46.745 1.669,6.168 2.36,13.607 5.037,19.398 0.906,1.962 2.908,1.702 4.727,1.878 3.95,0.382 7.894,0.299 11.866,0.299 1.54,0 4.697,0.516 5.223,-1.486 0.887,-3.379 -2.09,-9.87 -2.932,-13.257 -2.674,-10.75 -5.153,-21.499 -7.326,-32.362 -4.131,-20.66 -7.56,-41.474 -11.3,-62.207 -1.713,-9.5 -5.02,-18.738 -5.566,-28.407 -0.373,-6.59 2.123,-13.152 2.123,-19.777 8.611,2.228 15.575,-1.205 23.733,-3.046 3.838,-0.865 8.205,0.3 12.225,-0.411 7.508,-1.33 10.919,-4.796 16.29,-9.707 1.358,-1.242 3.175,-1.84 4.56,-3.083 7.996,-7.176 11.966,-24.483 3.928,-33.01 -5.516,-5.852 -14.894,-5.04 -22.26,-5.04 -18.237,0 -36.434,-1.078 -54.657,-1.078 2.39,-2.409 4.88,-5.285 5.83,-8.63 0.88,-3.1 -0.486,-4.458 -3.312,-2.877 2.068,-3.436 4.087,-7.772 2.876,-11.866 l -13.664,7.911 c 0.435,-1.285 2.71,-9.12 0.312,-9.12 z m -0.312,1.57 -1.438,9.348 c 5.308,-0.547 9.208,-5.726 14.023,-7.551 -0.11,5.356 -3.235,8.403 -5.393,12.945 l 0.36,0.36 5.753,-3.237 c -0.326,3.706 -3.781,9.83 -7.552,10.962 -2.504,0.752 -5.64,0.26 -8.27,0.701 -3.556,0.598 -10.67,1.374 -10.892,-4.471 -0.05,-1.3 0.723,-2.476 1.498,-3.883 1.543,-2.798 3.898,-5.809 5.41,-7.624 2.072,-2.487 3.985,-5.515 6.501,-7.55 z m -37.63,0.148 c 2.323,0.087 5.717,4.08 7.066,5.245 4.581,3.953 9.025,7.944 13.304,12.225 2.41,2.411 4.59,5.505 7.552,7.286 1.705,1.025 3.935,0.256 5.753,-0.094 3.133,-0.603 6.17,-0.72 9.35,-0.72 1.531,4.505 6.686,3.818 10.567,4.42 4.158,0.644 8.57,0.987 12.8,1.014 0.8,0.005 14.415,-0.343 14.684,-0.42 0.25,-0.072 4.406,-0.415 5.173,-0.069 0.398,0.18 -0.687,0.769 -2.003,1.248 -0.641,0.75 -5.306,14.776 -6.39,22.574 -0.442,3.18 -0.951,7.626 -0.272,10.81 0.416,1.95 1.204,3.97 1.867,5.606 0.588,1.45 2.453,3.495 3.69,5.59 -4.762,1.55 -9.84,3.427 -14.947,3.048 -3.765,-0.28 -8.256,-2.585 -11.866,-2.041 1.088,1.151 3.47,1.541 4.098,2.957 1.59,3.58 -0.85,9.587 -1.423,13.224 -0.902,5.726 -0.347,11.648 1.056,17.26 5.683,22.734 9.163,45.976 13.323,69.039 2.464,13.667 6.034,27.055 8.836,40.633 -4.539,1.002 -8.01,1.723 -13.179,3 -1.173,0.29 -3.884,0.738 -5.092,0.518 -1.153,-0.21 -0.928,-2.464 -1.192,-3.518 l -2.426,-9.709 a 390.727,390.727 0 0 1 -6.307,-30.205 c -0.605,-3.606 -2.395,-8.6 -1.833,-12.225 0.405,-2.613 4.226,-5.595 5.646,-7.91 2.876,-4.693 4.286,-9.745 5.325,-15.103 l -1.079,-0.36 c -1.525,4.177 -2.028,8.538 -4.052,12.585 -4.576,9.151 -13.954,16.41 -24.354,17.26 l 0.72,-14.383 c -1.793,0.989 -1.44,2.839 -1.44,4.674 0,3.963 -0.313,7.897 -0.36,11.867 -0.1,8.448 -1.112,17.138 0.455,25.53 1.562,8.369 5.595,16.435 6.333,24.9 -4.387,0.906 -8.312,0.561 -12.787,0.54 -1.726,-0.008 -4.454,0.62 -5.895,-0.472 -2.582,-1.955 -3.143,-9.346 -3.88,-12.383 -2.714,-11.189 -6.928,-21.659 -10.064,-32.722 a 2541.45,2541.45 0 0 1 -3.44,-12.225 c -0.484,-1.742 -0.713,-3.72 -2.364,-4.675 0.287,3.507 1.686,7.058 2.67,10.428 0.263,0.901 1.255,2.788 0.542,3.656 -1.15,1.4 -7.302,0.104 -8.965,-0.03 -9.933,-0.798 -19.358,-2.96 -28.766,-6.143 0.857,-2.69 2.859,-4.92 3.95,-7.551 2.813,-6.778 3.646,-14.957 1.084,-21.935 h -0.72 c -0.34,2.18 0.537,4.292 0.687,6.473 0.348,5.055 -0.138,10.444 -2.237,15.102 -1.756,3.898 -4.108,7.53 -7.439,10.26 -4.39,3.6 -9.988,5.859 -13.38,10.595 -6.933,9.68 -3.473,24.11 -2.082,34.88 -2.466,0.693 -5.224,0.92 -7.946,1.017 -2.206,0.08 -4.378,0.126 -6.437,-0.145 -1.332,-0.176 -3.755,0.15 -4.665,-1.075 -1.146,-1.543 -0.708,-5.155 -0.73,-6.989 -0.062,-5.261 -0.358,-10.535 -0.358,-15.821 0,-10.175 -0.417,-20.423 -1.111,-30.565 -0.806,-11.771 -1.676,-23.787 4.297,-34.519 a 39.036,39.036 0 0 1 6.168,-8.27 c 17.823,-18.243 45.998,-8.548 68.315,-13.665 l -3.236,10.788 c 2.11,-1.198 2.418,-3.962 3.117,-6.113 1.878,-5.784 3.561,-11.664 4.794,-17.619 3.28,-15.836 6.403,-31.756 8.325,-47.824 l 1.439,-12.226 c 0.18,-1.509 0.971,-3.87 0.432,-5.327 -0.92,-2.489 -6.108,-4.619 -8.034,-6.544 -5.004,-5.003 -8.256,-11.423 -10.723,-17.974 -0.429,-1.137 -2.393,-5.9 -0.628,-6.577 0.214,-0.082 0.444,-0.115 0.684,-0.106 z m 10.302,9.92 c 2.03,4.353 7.115,8.056 10.414,11.506 1.82,1.904 3.328,4.256 5.767,5.394 -0.599,-2.135 -2.452,-3.457 -3.923,-5.035 -3.507,-3.765 -7.547,-9.669 -12.258,-11.866 z m 33.33,14.03 55.127,1.431 2.73,-0.076 c -4.86,0.654 -6.546,1.312 -11.411,1.944 -3.86,0.502 -13.446,1.655 -17.284,1.532 -5.36,-0.17 -11.094,-0.033 -16.482,-0.827 -2.44,-0.359 -6.93,-0.106 -9.902,-1.557 -1.393,-0.68 -2.34,-1.188 -2.779,-2.446 z m 66.396,1.42 c 5.548,0.203 10.676,1.917 13.416,6.843 4.997,8.983 1.598,26.338 -8.504,30.732 -2.861,1.245 -6.31,0.911 -9.35,0.911 -7.917,0 -16.355,-0.22 -23.372,-4.315 v -0.719 l 2.713,-1.915 c 0.009,-0.152 -0.31,-0.395 -0.56,-0.366 -0.182,0.022 -0.507,0.294 -0.672,0.372 -1.814,0.859 -3.398,2.51 -5.02,3.85 0.15,0.216 0.17,0.357 0.265,0.6 0.013,0.027 0.259,0.11 0.301,0.106 0.22,-0.022 0.767,-0.416 1.041,-0.635 2.006,-1.594 6.18,1.88 8.405,2.508 7.715,2.177 15.862,1.658 23.732,1.593 -4.864,6.904 -12.85,8.99 -20.856,8.99 -2.105,-10e-4 -5.457,0.386 -7.164,0.16 -0.648,-0.087 -0.965,-1.17 -1.709,-1.884 -3.219,-3.085 -4.337,-11.186 -4.44,-11.114 0,-7.896 1.488,-15.976 3.964,-23.48 0.724,-2.194 1.057,-5.337 2.685,-7.047 1.664,-1.749 6.565,-1.765 8.884,-2.347 4.425,-1.112 10.692,-3.047 16.24,-2.843 z m -66.692,4.02 c -4.712,0.166 -10.86,2.935 -9.661,7.857 l 4.316,-4.637 8.27,-2.195 v -0.72 c -0.827,-0.243 -1.838,-0.344 -2.925,-0.305 z m -26.922,1.744 h 0.72 c 0.627,2.145 -0.067,4.298 -0.3,6.473 -0.516,4.799 -1.032,9.603 -1.706,14.383 -1.507,10.697 -3.21,21.408 -5.33,32.003 -0.903,4.513 -1.27,10.347 -3.584,14.383 -3.148,5.49 -9.992,8.22 -16.05,8.27 1.296,-3.079 3.511,-5.053 2.877,-8.63 5.185,-3.229 12.135,-8.897 14.383,-14.743 -2.008,1.55 -3.292,3.916 -5.048,5.754 -6.069,6.35 -13.746,13.266 -22.999,13.664 1.483,-2.105 4.116,-3.665 3.956,-6.473 -4.575,1.489 -8.889,1.968 -13.304,-0.36 2.465,-1.873 5.444,-3 7.91,-4.964 9.487,-7.555 18.077,-16.809 25.12,-26.678 2.964,-4.154 7.787,-9.888 8.321,-15.103 l -9.35,4.315 z m 101.042,1.079 2.096,10.068 -3.534,10.069 c 2.095,-0.68 2.997,-3.092 3.705,-5.035 1.92,-5.273 1.393,-10.174 -1.189,-15.102 z m -10.493,0.79 c -0.32,0.001 -0.658,0.04 -1.013,0.123 -5.608,1.289 -4.003,10.69 1.796,9.373 4.893,-1.112 4.027,-9.525 -0.783,-9.496 z m -62.123,0.615 a 8.627,8.627 0 0 0 -1.817,0.224 c -10.89,2.495 -6.533,19.026 4.315,16.335 9.303,-2.308 6.219,-16.673 -2.498,-16.559 z m 0.34,1.479 c 1.312,0.022 2.486,0.347 3.596,1.06 1.405,0.904 2.276,2.078 2.877,3.607 -1.428,-0.858 -2.783,-1.84 -4.522,-1.84 -4.025,0 -6.705,4.53 -4.416,7.92 1.439,2.13 3.681,2.544 6.061,2.55 -10.143,6.374 -16.278,-13.518 -3.595,-13.297 z m -4.674,15.455 c 1.461,2.503 3.073,0.863 0,0 z M 68.123,152.184 v 0.359 c -9.626,6.02 -15.778,18.022 -16.839,29.126 -0.638,6.676 0.288,13.468 0.299,20.136 0.013,4.889 1.589,10.661 0.619,15.462 -1.26,6.233 -10.198,12.076 -16.081,12.945 l 1.079,-3.236 c -9.672,5.645 -20.542,6.614 -31.284,3.596 2.52,-1.35 5.638,-1.565 8.27,-2.799 7.01,-3.286 12.352,-8.97 15.729,-15.9 6.647,-13.64 5.481,-29.78 12.231,-43.508 3.23,-6.567 7.63,-12.552 14.83,-14.975 3.631,-1.222 7.366,-1.206 11.147,-1.206 z m -17.979,22.653 c -2.519,12.988 -0.16,27.353 -6.245,39.554 -2.977,5.966 -8.34,8.928 -12.093,14.023 3.4,-1.083 6.426,-4.138 8.657,-6.832 8.06,-9.732 7.897,-21.247 9.023,-33.081 0.43,-4.52 1.183,-9.13 1.378,-13.664 z m 43.494,32.882 c 1.344,-0.027 3.383,1.082 4.33,1.398 4.626,1.542 9.313,2.315 14.024,3.476 -3.072,9.44 -6.048,20.551 -5.362,30.564 0.288,4.202 2.125,8.102 2.485,12.225 -2.335,0 -4.578,-0.26 -6.84,-0.466 -1.759,-0.16 -3.537,-0.205 -5.322,-0.583 -1.3,-0.275 -3.51,-0.19 -4.4,-1.292 -1.604,-1.988 -1.386,-7.416 -1.415,-9.884 -0.098,-8.28 0.345,-16.562 0.358,-24.811 0,-2.131 -0.586,-9.042 1.344,-10.402 0.215,-0.152 0.488,-0.218 0.798,-0.225 z m -1.063,46.945 17.26,1.797 c 0.398,1.74 2.218,5.403 1.365,7.083 -0.909,1.79 -4.783,1.188 -6.4,1.188 -7.6,0 -11.159,-2.147 -12.225,-10.068 z m 117.941,0 3.597,14.383 c -4.486,0.192 -8.823,0 -13.305,0 -1.717,0 -4.488,0.465 -5.928,-0.697 -1.869,-1.508 -2.514,-7.431 -2.702,-9.731 z m -135.92,0.718 2.876,11.867 -20.496,-0.36 -1.797,-11.147 c 6.716,0.289 12.71,0.941 19.417,-0.36 z m 93.13,6.473 2.158,9.35 -14.023,0.718 -4.773,-0.576 -2.779,-9.132 z"
    style="display:inline;fill:#171717;fill-opacity:1;stroke:none;stroke-width:0.4;stroke-dasharray:none;stroke-opacity:1"
    id="path31" />
</svg>