<svg xmlns="http://www.w3.org/2000/svg" xmlns:xlink="http://www.w3.org/1999/xlink" width="3000" zoomAndPan="magnify" viewBox="0 0 2250 149.999998" height="200" preserveAspectRatio="xMidYMid meet" version="1.0"><defs><filter x="0%" y="0%" width="100%" height="100%" id="aa8eba3496"><feColorMatrix values="0 0 0 0 1 0 0 0 0 1 0 0 0 0 1 0 0 0 1 0" color-interpolation-filters="sRGB"/></filter><mask id="1afe41d1f4"><g filter="url(#aa8eba3496)"><rect x="-225" width="2700" fill="#000000" y="-15" height="179.999997" fill-opacity="0.9"/></g></mask><clipPath id="ad0ba92e66"><path d="M 544.21875 0 L 580.78125 0 L 580.78125 95.625 L 544.21875 95.625 Z M 544.21875 0 " clip-rule="nonzero"/></clipPath><clipPath id="8d1d916448"><path d="M 556.414062 1.054688 C 558.28125 0.417969 560.417969 0 562.511719 0 C 564.601562 0 566.613281 0.359375 568.46875 0.996094 C 568.507812 1.015625 568.546875 1.015625 568.585938 1.035156 C 575.550781 3.585938 580.683594 10.320312 580.78125 19.3125 L 580.78125 95.625 L 544.21875 95.625 L 544.21875 19.367188 C 544.316406 10.277344 549.367188 3.546875 556.414062 1.054688 Z M 556.414062 1.054688 " clip-rule="nonzero"/></clipPath><clipPath id="34357ba98f"><path d="M 1106.71875 0 L 1143.28125 0 L 1143.28125 95.625 L 1106.71875 95.625 Z M 1106.71875 0 " clip-rule="nonzero"/></clipPath><clipPath id="62f6330d86"><path d="M 1118.914062 1.054688 C 1120.78125 0.417969 1122.917969 0 1125.011719 0 C 1127.101562 0 1129.113281 0.359375 1130.96875 0.996094 C 1131.007812 1.015625 1131.046875 1.015625 1131.085938 1.035156 C 1138.050781 3.585938 1143.183594 10.320312 1143.28125 19.3125 L 1143.28125 95.625 L 1106.71875 95.625 L 1106.71875 19.367188 C 1106.816406 10.277344 1111.867188 3.546875 1118.914062 1.054688 Z M 1118.914062 1.054688 " clip-rule="nonzero"/></clipPath><clipPath id="dd5a678a72"><path d="M 1669.21875 0 L 1705.78125 0 L 1705.78125 95.625 L 1669.21875 95.625 Z M 1669.21875 0 " clip-rule="nonzero"/></clipPath><clipPath id="1d63cc2607"><path d="M 1681.414062 1.054688 C 1683.28125 0.417969 1685.417969 0 1687.507812 0 C 1689.601562 0 1691.613281 0.359375 1693.46875 0.996094 C 1693.507812 1.015625 1693.546875 1.015625 1693.585938 1.035156 C 1700.550781 3.585938 1705.683594 10.320312 1705.78125 19.3125 L 1705.78125 95.625 L 1669.21875 95.625 L 1669.21875 19.367188 C 1669.316406 10.277344 1674.367188 3.546875 1681.414062 1.054688 Z M 1681.414062 1.054688 " clip-rule="nonzero"/></clipPath><clipPath id="1fd7717e79"><path d="M 2231.71875 0 L 2250 0 L 2250 95.625 L 2231.71875 95.625 Z M 2231.71875 0 " clip-rule="nonzero"/></clipPath><clipPath id="1eecab9865"><path d="M 2243.914062 1.054688 C 2245.78125 0.417969 2247.917969 0 2250.007812 0 C 2252.101562 0 2254.113281 0.359375 2255.96875 0.996094 C 2256.007812 1.015625 2256.046875 1.015625 2256.085938 1.035156 C 2263.050781 3.585938 2268.183594 10.320312 2268.28125 19.3125 L 2268.28125 95.625 L 2231.71875 95.625 L 2231.71875 19.367188 C 2231.816406 10.277344 2236.867188 3.546875 2243.914062 1.054688 Z M 2243.914062 1.054688 " clip-rule="nonzero"/></clipPath><clipPath id="acb800c34d"><path d="M 0 0 L 18.28125 0 L 18.28125 95.625 L 0 95.625 Z M 0 0 " clip-rule="nonzero"/></clipPath><clipPath id="8edc47b3ab"><path d="M -6.085938 1.054688 C -4.21875 0.417969 -2.082031 0 0.0117188 0 C 2.101562 0 4.113281 0.359375 5.96875 0.996094 C 6.007812 1.015625 6.046875 1.015625 6.085938 1.035156 C 13.050781 3.585938 18.183594 10.320312 18.28125 19.3125 L 18.28125 95.625 L -18.28125 95.625 L -18.28125 19.367188 C -18.183594 10.277344 -13.132812 3.546875 -6.085938 1.054688 Z M -6.085938 1.054688 " clip-rule="nonzero"/></clipPath><clipPath id="e72497aab6"><path d="M 0 52.5 L 2250 52.5 L 2250 150 L 0 150 Z M 0 52.5 " clip-rule="nonzero"/></clipPath><clipPath id="3336d2084c"><rect x="0" width="2250" y="0" height="150"/></clipPath></defs><g mask="url(#1afe41d1f4)"><g transform="matrix(1, 0, 0, 1, 0, -0.000000000000007527)"><g clip-path="url(#3336d2084c)"><path fill="#20284f" d="M 561.957031 4.691406 C 561.957031 2.089844 559.8125 -0.0078125 557.210938 0.0664062 C 515.113281 1.273438 513.53125 18.507812 468.386719 18.507812 C 421.601562 18.507812 421.601562 0 374.816406 0 C 328.03125 0 328.03125 18.507812 281.246094 18.507812 C 234.460938 18.507812 234.460938 0 187.679688 0 C 140.894531 0 140.894531 18.507812 94.113281 18.507812 C 48.964844 18.507812 47.386719 1.273438 5.289062 0.0664062 C 2.6875 -0.0078125 0.542969 2.089844 0.542969 4.691406 L 0.542969 90.996094 C 0.542969 93.554688 2.617188 95.625 5.171875 95.625 L 557.328125 95.625 C 559.882812 95.625 561.957031 93.554688 561.957031 90.996094 Z M 561.957031 4.691406 " fill-opacity="1" fill-rule="nonzero"/><path fill="#20284f" d="M 1124.457031 4.691406 C 1124.457031 2.089844 1122.3125 -0.0078125 1119.710938 0.0664062 C 1077.613281 1.273438 1076.03125 18.507812 1030.886719 18.507812 C 984.101562 18.507812 984.101562 0 937.316406 0 C 890.53125 0 890.53125 18.507812 843.746094 18.507812 C 796.960938 18.507812 796.960938 0 750.179688 0 C 703.394531 0 703.394531 18.507812 656.613281 18.507812 C 611.464844 18.507812 609.886719 1.273438 567.789062 0.0664062 C 565.1875 -0.0078125 563.042969 2.089844 563.042969 4.691406 L 563.042969 90.996094 C 563.042969 93.554688 565.117188 95.625 567.671875 95.625 L 1119.828125 95.625 C 1122.382812 95.625 1124.457031 93.554688 1124.457031 90.996094 Z M 1124.457031 4.691406 " fill-opacity="1" fill-rule="nonzero"/><path fill="#20284f" d="M 1686.957031 4.691406 C 1686.957031 2.089844 1684.808594 -0.0078125 1682.210938 0.0664062 C 1640.113281 1.273438 1638.53125 18.507812 1593.386719 18.507812 C 1546.601562 18.507812 1546.601562 0 1499.816406 0 C 1453.03125 0 1453.03125 18.507812 1406.246094 18.507812 C 1359.460938 18.507812 1359.460938 0 1312.679688 0 C 1265.894531 0 1265.894531 18.507812 1219.113281 18.507812 C 1173.964844 18.507812 1172.386719 1.273438 1130.289062 0.0664062 C 1127.6875 -0.0078125 1125.542969 2.089844 1125.542969 4.691406 L 1125.542969 90.996094 C 1125.542969 93.554688 1127.617188 95.625 1130.171875 95.625 L 1682.328125 95.625 C 1684.882812 95.625 1686.957031 93.554688 1686.957031 90.996094 Z M 1686.957031 4.691406 " fill-opacity="1" fill-rule="nonzero"/><path fill="#20284f" d="M 2249.457031 4.691406 C 2249.457031 2.089844 2247.308594 -0.0078125 2244.710938 0.0664062 C 2202.613281 1.273438 2201.03125 18.507812 2155.886719 18.507812 C 2109.101562 18.507812 2109.101562 0 2062.316406 0 C 2015.53125 0 2015.53125 18.507812 1968.746094 18.507812 C 1921.960938 18.507812 1921.960938 0 1875.179688 0 C 1828.394531 0 1828.394531 18.507812 1781.613281 18.507812 C 1736.464844 18.507812 1734.886719 1.273438 1692.789062 0.0664062 C 1690.1875 -0.0078125 1688.042969 2.089844 1688.042969 4.691406 L 1688.042969 90.996094 C 1688.042969 93.554688 1690.117188 95.625 1692.671875 95.625 L 2244.828125 95.625 C 2247.382812 95.625 2249.457031 93.554688 2249.457031 90.996094 Z M 2249.457031 4.691406 " fill-opacity="1" fill-rule="nonzero"/><g clip-path="url(#ad0ba92e66)"><g clip-path="url(#8d1d916448)"><path fill="#20284f" d="M 544.21875 0 L 580.78125 0 L 580.78125 95.625 L 544.21875 95.625 Z M 544.21875 0 " fill-opacity="1" fill-rule="nonzero"/></g></g><g clip-path="url(#34357ba98f)"><g clip-path="url(#62f6330d86)"><path fill="#20284f" d="M 1106.71875 0 L 1143.28125 0 L 1143.28125 95.625 L 1106.71875 95.625 Z M 1106.71875 0 " fill-opacity="1" fill-rule="nonzero"/></g></g><g clip-path="url(#dd5a678a72)"><g clip-path="url(#1d63cc2607)"><path fill="#20284f" d="M 1669.21875 0 L 1705.78125 0 L 1705.78125 95.625 L 1669.21875 95.625 Z M 1669.21875 0 " fill-opacity="1" fill-rule="nonzero"/></g></g><g clip-path="url(#1fd7717e79)"><g clip-path="url(#1eecab9865)"><path fill="#20284f" d="M 2231.71875 0 L 2268.28125 0 L 2268.28125 95.625 L 2231.71875 95.625 Z M 2231.71875 0 " fill-opacity="1" fill-rule="nonzero"/></g></g><g clip-path="url(#acb800c34d)"><g clip-path="url(#8edc47b3ab)"><path fill="#20284f" d="M -18.28125 0 L 18.28125 0 L 18.28125 95.625 L -18.28125 95.625 Z M -18.28125 0 " fill-opacity="1" fill-rule="nonzero"/></g></g><g clip-path="url(#e72497aab6)"><path fill="#20284f" d="M -33.332031 52.5 L 2268.28125 52.5 L 2268.28125 150 L -33.332031 150 Z M -33.332031 52.5 " fill-opacity="1" fill-rule="nonzero"/></g></g></g></g></svg>