<svg xmlns="http://www.w3.org/2000/svg" id="Layer_1" data-name="Layer 1" viewBox="0 0 530.9 401.46" version="1.1"><defs id="defs4"><style id="style2">.cls-5{fill:#102e46}</style></defs><path class="cls-5" d="M364.42 235.79a24.15 24.15 0 017.7 1 12 12 0 014.93 3 11.08 11.08 0 012.63 4.76 23.47 23.47 0 01.77 6.23v21.7q-2.24.49-6.23 1.15a59.92 59.92 0 01-9.66.67 30.62 30.62 0 01-6.47-.63 14 14 0 01-5-2.06 9.44 9.44 0 01-3.22-3.75 12.92 12.92 0 01-1.12-5.67 10.74 10.74 0 011.29-5.46 10 10 0 013.46-3.57 15.68 15.68 0 015-1.92 27.93 27.93 0 015.81-.6 33.09 33.09 0 013.6.18 16.16 16.16 0 012.56.46v-1a5.77 5.77 0 00-1.61-4.27q-1.61-1.61-5.6-1.61a35.75 35.75 0 00-5.25.39 22.58 22.58 0 00-4.48 1.08l-1.33-8.4q.91-.28 2.28-.6 1.37-.32 3-.56 1.61-.24 3.4-.42 1.79-.18 3.54-.1zm.84 30.52q1.54 0 2.94-.07a20.08 20.08 0 002.24-.21v-7.91q-.63-.14-1.89-.28a21.18 21.18 0 00-2.31-.14 20.75 20.75 0 00-2.77.18 7.23 7.23 0 00-2.27.67 3.9 3.9 0 00-1.54 1.33 3.7 3.7 0 00-.56 2.1 3.58 3.58 0 001.65 3.4 9.09 9.09 0 004.51.93z" id="path30" fill="#102e46"/><path class="cls-5" d="M370.88 368.472h1.61v25.14h-1.61z" id="path64" fill="#102e46"/><path id="rect98" d="M111.83 357.61v3.56h49.809c.031-.145.052-.274.088-.424a.147.147 0 01.12-.117c.183-.04.519.116.731.129 1.654.1 3.143.251 4.711.412H461.75v-3.56z" fill="#f0c881" stroke-width=".96"/><path id="path102" d="M188.398-62.484c-1.573.384-3.145.781-4.714 1.191 2.47-.348 1.986-.374 3.56-.395.04-.019.076-.03.115-.048-.042-.01-.05-.035-.006-.092.194-.224.535-.239.868-.268.12-.043.238-.075.357-.111-.057-.093-.12-.185-.18-.277zm4.33.488c.086.048.179.09.258.144l1.266-.072a58.713 58.713 0 00-1.523-.072zm154.32 28.012c-.18.01-.36.024-.54.033.196.038.39.078.586.117l-.045-.15zM411.98-12.3c-.079.168-.142.295-.216.451.415.019.85.106 1.297.256-.228-.23-.424-.408-.55-.47-.156-.08-.346-.158-.53-.237zm-.12 10.934c.58.785 1.145 1.587 1.712 2.386a14.32 14.32 0 00-.545-1.015c-.426-.348-.71-.724-.767-1.127-.046-.06-.087-.123-.133-.182-.09-.02-.178-.04-.268-.062zM17.876 5.195c-.239.2-.486.398-.72.6.245-.195.486-.394.72-.6zm312.27 10.588c-.075.019-.15.034-.223.055l.008.039c.102-.012.204-.03.306-.04l-.091-.054zm15.996 10.744l-.584.04c.048.04.091.085.136.128.149-.056.291-.114.448-.168zM334.61 42.531c-.462.48-1.444 1.496-2.113 2.192-.004.042-.004.082-.008.125l2.121-2.317zm66.893 1.707c.115.081.228.166.344.246l.263.063c-.202-.103-.406-.204-.607-.309zm-389.19.56c-.25.106-.489.225-.72.352-.004.229.008.458.013.688a12 12 0 01.707-1.04zm322.311 45.913l-.104.074.475.283c-.002-.035.001-.075-.002-.111a85.17 85.17 0 01-.37-.246zm-1.479 1.217l-.062.06c.231.105-.1-.043 1.707.772l.08-.106c-.452-.178-1.124-.47-1.724-.726zm112.397 26.601a5.12 5.12 0 01-.66.928c.205.263.412.523.627.78zm-3.584 3.948l-.002.148c.121.094.246.185.365.281-.12-.143-.244-.285-.363-.43zm-442.965 2.697l-.336.012c-.055.65-.11 1.301-.156 1.953.25-.631.391-1.294.492-1.965zM196.69 139.27c-.013 0-.029.003-.043.004l-.07.14c.034.001.066.006.1.008l.013-.152zm-.013.152l-.004.037.023-.035-.02-.002zm-.1-.008l-.025-.002a.398.398 0 00-.213.055c-.051.074-.1.151-.15.226-.01.103.017.234.062.377l.023-.035c.101-.207.201-.415.303-.621zM17.11 141.346c-.21.293-.423.584-.601.894-.027.047-.017.086.01.121l.554-.609c.018-.144.027-.272.04-.406zm312.58.191l-.105.131.152-.07c-.017-.02-.03-.041-.047-.06zm-207.67 7.46c-.026 0-.023-.001-.048.001-.448.411-.891.829-1.33 1.25l.173-.018c.167-.165.482-.476 1.206-1.234zm-124.851 8.64c-.276.014-.352.206-.35.465.14-.08.289-.14.446-.178-.005-.092-.005-.188-.01-.28-.028-.001-.062-.008-.086-.007zm-.129 6.027c-.013.29-.014.578.041.861.024.124.177.173.313.235a18.737 18.737 0 00-.354-1.096zm366.922 2.857c-.096.141-.2.277-.322.403l.343.19c-.008-.198-.019-.395-.021-.593zm-216.295 3.92c.044.072.08.143.113.215.154.02.32.038.473.059-.2-.097-.387-.178-.586-.274zm206.592.807l-.197.342.992.037-.795-.379zm90.097 7.717c-.044.005-.078.006-.125.012-.215.023-.091.094.122.18zm-189.72 13.28c.139.052.268.093.402.14.127.04.252.087.379.129.224.068.44.125.647.166a3.049 3.049 0 00-.35-.418l-.783-.012c-.147-.002-.18-.006-.295-.006zm13.197 2.51c-.03.01-.062.015-.092.024.052.014.08.028.127.041l-.035-.064zm-250.824 3.712l-.006.054c.03.023.06.044.088.061l-.082-.115zm84.77.646c-.948.162-1.894.347-2.839.541 1.196-.011 2.421-.018 3.63-.027-.008-.015-.02-.023-.026-.04-.268-.004-.536-.023-.805-.017.019-.15.024-.305.04-.457zm9.992.422c-1.837-.011-3.677.019-5.514.04-.049.007-.096.012-.145.02-.037.004-.074 0-.111.005 1.968-.011 3.944-.021 5.947-.026-.058-.011-.119-.028-.177-.039zm284.07 50.961l-.135.047.178.066-.043-.113zm33.549 25.695c-.025.026-.045.053-.07.079-.008.164-.016.33-.026.501-.003.049-.01.085-.014.131.092-.035.179-.071.268-.107-.051-.202-.102-.404-.158-.604zm-2.889 1.645a2.2 2.2 0 01.014.078l.052-.02-.066-.058zm-251.275 2.242a250.7 250.7 0 00-1.596.307 8.734 8.734 0 002.037-.258c-.147-.014-.294-.034-.441-.049z" fill="#000" stroke-width="1.962"/><text xml:space="preserve" style="line-height:1.25;-inkscape-font-specification:'Ostrich Sans'" x="273.139" y="393.955" id="text4195" font-style="normal" font-variant="normal" font-weight="400" font-stretch="normal" font-size="37.333" font-family="Ostrich Sans" letter-spacing="0" word-spacing="0" fill="#000" fill-opacity="1" stroke="none"><tspan id="tspan4193" x="273.139" y="393.955">CUritiBA</tspan></text><text xml:space="preserve" style="line-height:1.25;-inkscape-font-specification:'Ostrich Sans'" x="384.243" y="393.456" id="text4199" font-style="normal" font-variant="normal" font-weight="400" font-stretch="normal" font-size="37.333" font-family="Ostrich Sans" letter-spacing="0" word-spacing="0" fill="#000" fill-opacity="1" stroke="none"><tspan id="tspan4197" x="384.243" y="393.456">PARANÁ</tspan></text><g id="g75" transform="matrix(1.51755 0 0 1.17399 -252.193 -345.996)"><path d="M174.661 479.55c-.106-.319-.138-12.982-.07-28.142l.123-27.562 1.021-3.823c4.926-18.44 17.83-31.932 35.555-37.174 1.83-.54 3.535-1.167 3.789-1.39.359-.315.462-5.194.462-21.844 0-19.954.052-21.735.76-25.72 1.569-8.85 4.079-14.368 9.221-20.276 3.715-4.267 5.866-5.948 10.67-8.334 12.057-5.99 27.33-4.619 38.319 3.44 5.886 4.316 11.384 13.172 13.133 21.155.728 3.318 1.498 2.744 3.042-2.268.724-2.35 2.026-5.697 2.894-7.44 1.918-3.851 5.876-8.878 9.023-11.458 13.823-11.335 36.054-9.98 48.11 2.932 4.293 4.598 6.995 9.771 9.793 18.751.291.935.755 1.7 1.03 1.7.298 0 .901-1.38 1.486-3.399 4.158-14.342 13.1-23.118 26.632-26.135 5.633-1.256 9.297-1.434 13.493-.654 9.895 1.84 16.533 5.451 22.037 11.991 4.914 5.838 7.567 12 8.998 20.898.466 2.898.572 7.437.572 24.661 0 16.25.106 21.265.462 21.779.254.367 1.71 1.001 3.234 1.408 9.213 2.46 18.51 8.277 24.768 15.497 5.273 6.082 9.023 13.319 11.34 21.88l1.033 3.823.113 28.14.112 28.142h-150.48c-126.623 0-150.512-.092-150.675-.579zm149.276-2.112c.327-.59.387-53.858.062-54.832-.633-1.893-5.23.435-8.677 4.393-2.793 3.208-4.751 6.987-6.256 12.07-1.658 5.603-1.892 8.838-1.772 24.489l.11 14.225 1.074.217c2.139.43 15.172-.043 15.459-.562zm-129.99-.49c.127-.58.154-7.796.062-16.034-.185-16.393-.441-18.976-2.533-25.542-4.402-13.82-11.377-10.494-14.603 6.962-.45 2.434-.631 6.818-.777 18.783-.104 8.585-.094 15.896.024 16.248.181.544 1.507.639 8.905.639h8.691zm52.83-14.448c0-14.846-.025-15.385-.865-18.478-1.283-4.722-3.19-8.573-5.932-11.98-3.135-3.896-6.841-6.671-11-8.238-2.89-1.088-3.793-1.23-7.71-1.219-5.145.017-7.305.62-11.829 3.307-3.468 2.061-8.141 7.14-10.1 10.98-1.52 2.98-2.857 7.338-3.369 10.973-.409 2.912-.554 28.334-.168 29.49.204.609 2.701.664 25.6.566l25.374-.11zm38.076-.85c0-15.41-.037-16.304-.834-19.74-2.148-9.258-6.422-16.103-11.919-19.085-1.692-.918-2.56-1.103-5.175-1.103-2.755 0-3.444.164-5.586 1.33-5.646 3.074-9.988 10.62-12.037 20.918-.415 2.087-.61 6.566-.755 17.34-.107 7.991-.088 15.017.042 15.615l.238 1.087 18.013-.11 18.013-.11zm20.332-4.672c0-22.842-.141-24.847-2.076-29.433-1.592-3.773-3.232-4.973-6.796-4.973-3.555 0-5.197 1.198-6.811 4.974-2.156 5.042-2.322 6.977-2.509 29.138-.093 11.052-.076 20.374.038 20.715.175.524 1.593.602 9.18.506l8.974-.114zm37.736 19.98c.125-.574.149-7.599.052-15.61-.193-16.064-.4-17.955-2.66-24.396-1.552-4.422-3.313-7.458-6.093-10.506-2.328-2.551-5.725-4.664-7.13-4.435l-.834.136-.096 27.397c-.052 15.07-.016 27.637.081 27.929.134.402 2.145.53 8.314.53h8.137zm20.343-.054c.132-.604.153-9.445.046-19.645-.206-19.618-.475-23.166-2.148-28.303-1.392-4.275-3.928-6.568-7.285-6.587-4.34-.026-7.016 3.22-8.417 10.208-.536 2.672-.66 6.28-.803 23.262-.094 11.054-.068 20.564.056 21.132l.225 1.033h18.086zm38.022-14.829c-.015-18.255-.232-19.967-3.525-27.737-2.246-5.3-5.505-9.406-9.031-11.376-1.948-1.09-2.622-1.24-5.545-1.24-2.909 0-3.597.152-5.47 1.21-6.154 3.472-11.194 12.937-12.433 23.351-.429 3.601-.555 30.971-.146 31.442.138.158 8.33.237 18.207.177l17.956-.11zm52.981 1.7c.067-8.863-.044-15.03-.303-16.77-1.595-10.747-8.516-19.897-17.547-23.2-6.38-2.334-12.72-1.728-19.038 1.82-2.916 1.637-4.024 2.567-6.53 5.479-2.437 2.83-3.347 4.272-4.712 7.47-2.83 6.628-2.903 7.178-3.082 23.352-.113 10.12-.037 14.554.258 15.188l.417.896 25.216-.11 25.215-.109zm19.487-2.337c0-14.243-.088-16.819-.676-19.957-1.075-5.733-2.637-9.893-4.666-12.429-1.552-1.94-1.949-2.213-3.21-2.213-1.813 0-3.028 1.02-4.73 3.97-1.545 2.678-2.948 7.496-3.764 12.928-.652 4.345-1.01 32.171-.43 33.531.294.692 1.004.742 8.897.637l8.579-.114zM198.292 435.58c1.884-3.506 4.42-6.621 7.566-9.296 1.485-1.262 2.634-2.519 2.552-2.792-.192-.636-11.684-.425-12.368.228-.335.32-.463 2.289-.463 7.115 0 3.67.11 6.8.246 6.956.592.68 1.213.124 2.467-2.21zm48.586-5.697c.087-6.89.023-8.003-.474-8.223-.317-.14-3.481-.114-7.032.056-5.816.278-6.457.383-6.457 1.057 0 .473.901 1.353 2.456 2.397 3.063 2.056 6.88 6.424 8.82 10.093 2.35 4.446 2.569 4.007 2.687-5.38zm158.833 5.631c2.048-3.812 5.097-7.363 8.595-10.01 1.714-1.297 3.052-2.583 2.973-2.858-.215-.746-13.044-1.397-13.776-.7-.437.418-.54 1.957-.54 8.04 0 4.137.11 7.65.246 7.805.594.684 1.216.118 2.502-2.277zm48.635-4.635c0-3.958-.125-7.283-.277-7.39-.153-.106-2.98-.333-6.285-.504-5.837-.302-6.007-.287-6.007.533 0 .551.702 1.379 2.02 2.385 2.782 2.122 5.618 5.478 7.702 9.113 2.668 4.654 2.847 4.395 2.847-4.137zm-144.641 1.8c1.399-3.186 3.93-6.709 6.58-9.154 3.431-3.169 3.33-3.29-2.725-3.29-2.845 0-5.435.116-5.757.257-.502.222-.585 1.295-.585 7.575 0 4.025.11 7.443.244 7.597.41.47 1.169-.54 2.243-2.985zm-58.708.37c1.45-3.3 3.383-6.234 5.67-8.605 1.386-1.438 1.814-2.146 1.63-2.697-.226-.678-.646-.719-4.59-.443-2.388.167-4.55.496-4.804.731-.485.449-.69 11.466-.237 12.82.43 1.288 1.251.653 2.331-1.805zm34.041-4.736V421.1l-.975-.281c-1.283-.37-8.69.158-9.119.65-.197.227.68 1.48 2.153 3.078 2.513 2.725 4.586 5.87 6.048 9.174.44.993 1.045 1.805 1.346 1.805.462 0 .547-1.129.547-7.213zm57.955.043c.07-4.762-.032-7.131-.322-7.534-.645-.893-11.424-.855-11.424.04 0 .345.457.96 1.016 1.368 3.394 2.473 6.221 6.186 8.283 10.878.773 1.76 1.267 2.433 1.716 2.334.557-.123.641-.936.731-7.086zm24.075 5.152c1.34-3.179 3.94-7.117 6.145-9.304 2.21-2.192 2.462-2.886 1.192-3.277-1.568-.483-8.607-.295-9.075.242-.478.55-.66 13.542-.197 14.074.576.662 1.137.16 1.935-1.735zm34.333-4.514c.07-4.29-.033-6.496-.322-6.897-.506-.7-9.018-.859-9.386-.175-.122.228.991 1.81 2.474 3.519 1.774 2.043 3.265 4.297 4.36 6.59 2.43 5.096 2.748 4.761 2.874-3.037zm-223.295 2.889c1.145-2.31 1.092-3.153-.197-3.153-1.426 0-1.923.717-1.923 2.775 0 2.906.797 3.047 2.12.378zm15.77 1.272c.123-.37.224-2.478.224-4.686 0-4.636-.172-4.873-2.922-4.035-2.638.805-2.86 1.29-1.49 3.264.637.918 1.495 2.434 1.906 3.368 1.25 2.843 1.847 3.39 2.282 2.09zm264.394-1.558c.538-1.227 1.472-2.95 2.076-3.831.603-.88 1.012-1.858.907-2.17-.191-.574-2.887-1.539-4.298-1.539-.72 0-.76.24-.76 4.602 0 6.038.44 6.662 2.075 2.938zm15.668-.298c0-2.114-.328-2.57-1.856-2.57-1.1 0-1.185.694-.326 2.641 1.38 3.126 2.182 3.1 2.182-.071zm-.383-4.674c.465-.338.473-.768.062-3.073-2.583-14.46-11.287-26.995-23.693-34.117-1.516-.871-3.395-1.842-4.174-2.158-2.284-.926-2.205.215.223 3.228 6.326 7.852 9.67 16.66 10.13 26.687.16 3.49.322 4.446.793 4.655.527.235 15.474 5.054 15.933 5.137.102.019.428-.143.726-.36zm-288.026-2.366c4.196-1.29 7.73-2.485 7.853-2.654.124-.17.416-2.602.65-5.406.502-5.996 1.372-9.742 3.38-14.552 1.8-4.314 3.121-6.548 6.419-10.848 2.936-3.828 2.918-4.647-.07-3.294-11.548 5.23-21.297 16.251-25.392 28.704-1.301 3.957-2.405 8.985-2.144 9.766.319.957 1.064.82 9.304-1.716zm104.085-.45c2.077-2.722 1.948-3.265-.735-3.07l-1.808.133-.11 2.654c-.14 3.367.266 3.41 2.653.283zm73.57 1.7c.381-1.143.247-3.804-.22-4.34-.651-.749-3.596-.658-3.856.12-.226.677 2.702 4.84 3.429 4.873.232.011.523-.283.646-.653zm-15.962-1.754c.973-1.101 1.769-2.228 1.769-2.503 0-1.007-2.414-1.382-3.721-.578-.555.341-.715.898-.715 2.478 0 3.24.281 3.303 2.667.603zm-41.852-.714c0-2.476-.261-2.807-2.218-2.807-1.263 0-2.218.381-2.218.886 0 .68 3.134 4.131 3.79 4.172.54.033.646-.337.646-2.251zm-80.218-2.61c11.081-.35 20.521-.732 20.979-.85l.832-.212v-18.01c0-14.012-.103-18.055-.463-18.217-.581-.263-27.872.094-30.5.399-2.271.263-4.519 1.849-8.634 6.089-6.673 6.877-11.055 16.964-11.666 26.853-.32 5.166-.356 5.13 5.023 4.826 2.355-.133 13.348-.528 24.43-.878zm228.983.41c1.548-1.779-.428-12.859-3.518-19.725-2.756-6.123-8.35-13.065-13.276-16.473l-1.663-1.15-15.878-.356c-14.264-.318-15.92-.286-16.304.316-.663 1.042-.492 35.437.179 35.913.271.193 4.855.49 10.186.66 8.737.279 35.598 1.27 38.518 1.422.646.033 1.436-.24 1.756-.607zm-177.784-1.8l8.502-.293.097-18.17c.08-14.978.008-18.21-.405-18.392-.276-.122-8.298-.034-17.827.195-15.861.38-17.366.48-17.801 1.163-.37.58-.474 4.556-.47 17.763.003 9.359.128 17.226.277 17.483.15.257.478.544.73.637.582.216 15.783-.003 26.897-.386zm124.418.329c.689-.424.714-1.07.709-17.946-.003-9.63-.142-17.755-.31-18.057-.423-.767-34.997-1.633-35.77-.896-.74.706-.761 35.297-.021 36.003.327.313 6.003.59 17.097.834 9.134.201 16.826.397 17.093.434.268.037.808-.13 1.202-.372zm-95.861-1.07c.36-.127.462-4.149.462-18.242 0-15.483-.078-18.114-.541-18.318-.298-.131-4.415-.077-9.15.12l-8.608.358-.096 18.024c-.076 14.142.004 18.097.37 18.357.444.316 16.6.042 17.563-.298zm58.056.15c.654-.751.637-35.315-.018-35.912-.72-.656-17.22-1.121-17.866-.504-.75.714-.787 35.299-.039 36.012.281.268 2.581.52 5.453.596l8.496.225c2.352.062 3.679-.077 3.974-.417zm-39.203-1.082c.352-.529.462-4.766.462-17.786 0-14.9-.074-17.176-.575-17.752-.497-.572-1.59-.628-8.04-.42-4.106.133-7.673.315-7.928.405-.36.128-.462 4.133-.462 18.159 0 9.897.125 18.145.278 18.328.152.184 3.77.205 8.04.047 6.555-.242 7.835-.394 8.225-.98zm18.872.658c.654-.752.636-35.317-.019-35.911-.573-.52-15.443-1.084-16.085-.61-.365.27-.445 4.232-.37 18.369l.097 18.024 3.697.237c7.287.465 12.216.423 12.68-.11zM226.05 380.914c.51-.587.58-2.946.58-19.504 0-10.36-.1-19.14-.224-19.51-.252-.755-1.36-.861-2.955-.282-.589.215-2.277.794-3.751 1.287l-2.68.897v18.607c0 10.233.11 18.734.246 18.89.135.155 2.037.283 4.225.283 3.124 0 4.103-.144 4.559-.668zm20.45-.274c.656-.62.674-38.998.019-39.751-.469-.539-16.655-.768-17.825-.252-.521.23-.584 2.403-.584 20.155 0 16.794.082 19.95.527 20.238.773.497 17.306.137 17.863-.39zm175.269.288c.426-.49.47-38.791.044-39.704-.376-.807-.788-.845-9.179-.845-6.34 0-8.908.142-9.228.51-.554.637-.633 38.415-.083 39.418.505.919 17.683 1.496 18.446.62zm11.095.074c.301-.417.392-5.7.323-18.79L433.09 344l-.924-.506c-1.67-.915-7.228-2.43-7.872-2.146-.582.256-.63 1.786-.63 19.745 0 14.576.111 19.596.443 19.978.659.757 8.203.696 8.757-.07zm-164.175-.442c3.426-.107 5.468-.348 5.822-.686.467-.444.546-3.242.546-19.186 0-12.054-.135-18.957-.382-19.487-.367-.788-.903-.822-12.926-.822-12.022 0-12.558.034-12.925.822-.247.53-.383 7.505-.383 19.721 0 16.064.082 18.994.544 19.524.557.641 2.438.652 19.704.114zm132.174.066c.58-.49.622-2.091.533-20.283l-.097-19.752h-25.877l-.096 19.514c-.061 12.426.036 19.666.269 19.933.213.246 5.153.534 11.925.696 6.358.152 11.82.31 12.137.35.317.04.86-.166 1.206-.458zm-113.729-.885c.37-.427.417-35.342.048-35.766-.142-.163-2.318-.921-4.836-1.685-3.162-.958-4.768-1.265-5.194-.99-.56.36-.616 2.102-.616 19.418 0 10.463.123 19.164.273 19.337.37.424 9.937.133 10.325-.314zm13.711-.092c.368-.133.446-4.269.37-19.613l-.096-19.445-1.404-.133c-1.608-.152-8.594 2.187-9.594 3.212-.596.611-.647 2.024-.647 17.983 0 14.6.085 17.416.539 17.938.436.5 1.474.581 5.452.422 2.703-.108 5.124-.272 5.38-.364zm72.403.15c.344-.637.54-26.388.254-33.367-.212-5.162-.22-5.203-1.113-5.203-1.084 0-8.106 2.01-9.05 2.59-.63.389-.67 1.452-.67 18.005 0 16.306.047 17.623.646 18.024.946.633 9.59.591 9.933-.048zm-49.487-.875c.358-.325.462-4.814.462-19.855 0-16.45-.082-19.514-.535-19.946-.418-.398-2.662-.36-10.218.172-5.326.376-9.826.785-10 .909-.175.124-.318 8.99-.318 19.704 0 15.182.102 19.528.462 19.701.82.394 19.665-.247 20.147-.685zm22.999.137c.614-1.318.519-38.023-.1-38.613-.537-.512-19.133-2.011-20.032-1.615-.496.219-.552 2.657-.468 20.33l.096 20.082 6.47.228c13.868.488 13.611.495 14.034-.412zm13.602-17.324l.096-17.933-1.02-.605c-2.172-1.288-7.381-2.874-9-2.742l-1.632.134-.096 19.066c-.07 13.93.018 19.225.33 19.657.336.465 1.57.566 5.826.473l5.4-.117zm-73.332-23.494c-.078-5.969-2.46-13.842-5.83-19.267-2.044-3.291-5.934-7.508-8.467-9.177-3.241-2.136-3.622-1.578-1.58 2.318 2.748 5.245 5.371 16.36 5.38 22.794.002 2.102.168 3.398.474 3.69.562.535 8.714 3.021 9.51 2.9.441-.068.546-.734.513-3.258zm82.477 1.729l3.697-1.122.273-4.226c.519-8.033 2.496-16.35 5.262-22.132 2.125-4.441 1.678-4.997-1.873-2.333-7.862 5.898-12.995 16.126-14.067 28.031-.355 3.933-.37 3.93 6.708 1.782zm-147.2.17c1.87-.597 3.608-1.398 3.862-1.78.28-.42.462-2.019.462-4.05 0-6.132 1.938-14.69 4.712-20.811.718-1.584 1.207-2.993 1.086-3.131-.9-1.035-5.85 3.416-8.686 7.813-3.565 5.526-6.032 12.984-6.576 19.879l-.25 3.167h.996c.547 0 2.525-.49 4.394-1.087zm137.732.327c.234-.503.18-1.91-.159-4.155-1.803-11.94-6.748-21.175-14.42-26.93-4.176-3.133-5.573-2.673-2.97.977 3.39 4.757 5.55 12.203 6.214 21.425.42 5.833.485 6.152 1.313 6.514.478.209 1.324.38 1.88.38.555 0 2.415.559 4.134 1.242 3.79 1.507 3.575 1.477 4.008.547zm72.933-1.958c-.266-5.628-2.782-13.993-5.667-18.837-3.154-5.295-9.556-11.331-9.556-9.01 0 .245.743 2.204 1.65 4.355 2.199 5.208 3.88 12.752 4.16 18.67.14 2.982.384 4.728.7 5.03.746.711 6.475 2.48 7.722 2.383l1.11-.086zM294.13 339.93c1.2-.481 3.264-1.104 4.586-1.385l2.403-.51.237-5.517c.408-9.483 2.316-16.333 6.2-22.267.831-1.269 1.51-2.463 1.51-2.655 0-1.57-5.21 1.77-8.633 5.536-5.644 6.21-9.624 15.736-10.454 25.018l-.237 2.655h1.102c.606 0 2.085-.394 3.286-.875zm-47.611-1.759c.697-.801.63-33.189-.07-33.857-.371-.354-.974-.37-2.193-.056-6.002 1.545-9.038 4.449-12.018 11.493-1.036 2.449-2.315 6.364-2.841 8.7-1.136 5.043-1.65 12.58-.925 13.583.394.545 1.81.647 9.035.647 6.172 0 8.693-.143 9.012-.51zm27.735.14c1.88-1.37-.3-15.292-3.644-23.266-2.675-6.378-6.313-9.826-11.593-10.987-3.926-.863-9.182-1.001-9.961-.262-.554.525-.615 2.215-.615 17.066 0 14.42.073 16.568.581 17.151.505.58 2.167.667 12.661.661 6.644-.003 12.301-.167 12.57-.363zm126.515-.07c.688-.423.714-1.06.709-17.097-.003-9.161-.128-16.865-.277-17.119-.498-.846-2.04-.991-5.97-.564-6.858.747-9.03 1.705-12.127 5.351-2.528 2.975-5.239 9.336-6.574 15.427-1.153 5.257-1.66 12.784-.93 13.795.4.555 2.167.647 12.46.647 7.56 0 12.258-.163 12.709-.44zm20.835-.228c.684-.786.725-2.326.181-6.822-1.458-12.045-5.87-21.983-11.115-25.037-2.518-1.466-6.511-2.492-7.188-1.846-.43.41-.52 3.31-.52 16.767 0 14.225.073 16.355.581 16.938.494.568 1.842.668 9.03.668 7.19 0 8.537-.1 9.031-.668zm-106.992-.616c3.354-.226 6.628-.412 7.274-.413 2.383-.003 2.337.33 2.337-17.184 0-13.601-.079-15.921-.557-16.377-.402-.384-1.302-.448-3.235-.23-3.613.406-6.373 2.107-9.77 6.02-4.094 4.717-6.527 11.12-7.5 19.74-.5 4.423-.466 8.183.079 8.81.316.363 1.199.451 2.865.285 1.324-.131 5.152-.424 8.507-.65zm31.962.286c.62-.521.662-1.032.458-5.628-.502-11.325-3.963-20.17-9.896-25.292-3.328-2.874-4.535-3.407-7.881-3.483l-2.999-.067-.097 16.468-.096 16.469.836.36c.46.198 4.745.6 9.523.893 4.778.292 8.757.604 8.841.692.27.283.612.176 1.311-.412z" id="path77" fill="#060606" stroke-width=".396"/><text xml:space="preserve" style="line-height:1.25;-inkscape-font-specification:'Ubuntu, Bold';font-variant-ligatures:normal;font-variant-caps:normal;font-variant-numeric:normal;font-feature-settings:normal;text-align:start" x="387.114" y="463.964" id="text42" transform="scale(.87955 1.13695)" font-style="normal" font-variant="normal" font-weight="700" font-stretch="normal" font-size="47.949" font-family="Ubuntu" letter-spacing="0" word-spacing="0" writing-mode="lr-tb" text-anchor="start" fill="#102e46" fill-opacity="1" stroke="none" stroke-width=".749"><tspan id="tspan40" x="387.114" y="463.964" style="-inkscape-font-specification:'Ubuntu, Bold';font-variant-ligatures:normal;font-variant-caps:normal;font-variant-numeric:normal;font-feature-settings:normal;text-align:start" font-style="normal" font-variant="normal" font-weight="700" font-stretch="normal" font-size="47.949" font-family="Ubuntu" writing-mode="lr-tb" text-anchor="start" fill="#102e46" fill-opacity="1" stroke-width=".749">12</tspan></text></g><text xml:space="preserve" style="line-height:1.25;-inkscape-font-specification:'Ubuntu, Bold';font-variant-ligatures:normal;font-variant-caps:normal;font-variant-numeric:normal;font-feature-settings:normal;text-align:start" x="-371.106" y="522.502" id="text229" transform="rotate(-90.445)" font-style="normal" font-variant="normal" font-weight="700" font-stretch="normal" font-size="64" font-family="Ubuntu" letter-spacing="0" word-spacing="0" writing-mode="lr-tb" text-anchor="start" fill="#f0c881" fill-opacity="1" stroke="none"><tspan id="tspan227" x="-371.106" y="522.502">2019</tspan></text><text xml:space="preserve" style="line-height:1.25;-inkscape-font-specification:'Ubuntu, Bold';font-variant-ligatures:normal;font-variant-caps:normal;font-variant-numeric:normal;font-feature-settings:normal;text-align:start" x="389.754" y="274.631" id="text46" font-style="normal" font-variant="normal" font-weight="700" font-stretch="normal" font-size="64" font-family="Ubuntu" letter-spacing="0" word-spacing="0" writing-mode="lr-tb" text-anchor="start" fill="#102e46" fill-opacity="1" stroke="none"><tspan id="tspan44" x="389.754" y="274.631">14</tspan></text><text xml:space="preserve" style="line-height:1.25;-inkscape-font-specification:'Ostrich Sans, Normal';font-variant-ligatures:normal;font-variant-caps:normal;font-variant-numeric:normal;font-feature-settings:normal;text-align:start" x="158.331" y="346.271" id="text50" font-style="normal" font-variant="normal" font-weight="400" font-stretch="normal" font-size="85.333" font-family="Ostrich Sans" letter-spacing="0" word-spacing="0" writing-mode="lr-tb" text-anchor="start" fill="#000" fill-opacity="1" stroke="none"><tspan id="tspan48" x="158.331" y="346.271">DE SETEMBRO</tspan></text></svg>