<svg data-name="Layer 1" xmlns="http://www.w3.org/2000/svg" viewBox="0 0 40 40.39"><path d="M9.14 29.83A40.58 40.58 0 015 29.8 4.44 4.44 0 011.42 27 16.41 16.41 0 010 21.11 17.65 17.65 0 01.73 15 6 6 0 017 10.3h12.95V9.15h-9.73c.13-2 .14-4 .42-5.9A2.89 2.89 0 0112.94 1 25.93 25.93 0 0117.2.16a24.82 24.82 0 018 .35 5.27 5.27 0 014.43 5.57v8.12a5 5 0 01-5.33 5.32c-2.89-.12-5.79 0-8.68 0A6.15 6.15 0 009.14 26c-.01 1.26 0 2.53 0 3.83zM14.54 3a1.8 1.8 0 100 3.59 1.72 1.72 0 001.72-1.78A1.73 1.73 0 0014.54 3z" fill="#7fc6ce"/><path d="M30.86 10.56a40.58 40.58 0 014.18 0 4.44 4.44 0 013.53 2.77A16.41 16.41 0 0140 19.29a17.65 17.65 0 01-.69 6.06A6 6 0 0133 30.09H20.05v1.15h9.68c-.13 2-.14 4-.42 5.9a2.89 2.89 0 01-2.3 2.22 25.93 25.93 0 01-4.26.87 24.82 24.82 0 01-8-.35 5.27 5.27 0 01-4.43-5.57v-8.12a5 5 0 015.33-5.32c2.89.12 5.79 0 8.68 0a6.15 6.15 0 006.5-6.49c.04-1.24.03-2.51.03-3.82zm-5.4 26.81a1.8 1.8 0 100-3.59 1.8 1.8 0 000 3.59z" fill="#f0c780"/></svg>