<?xml version="1.0" encoding="UTF-8"?>
<svg width="1000px" height="1000px" viewBox="0 0 1000 1000" version="1.1" xmlns="http://www.w3.org/2000/svg" xmlns:xlink="http://www.w3.org/1999/xlink">
    <!-- Generator: Sketch 51.2 (57519) - http://www.bohemiancoding.com/sketch -->
    <title>Grid Clear Copy 4</title>
    <desc>Created with Sketch.</desc>
    <defs>
        <path d="M355.435478,323.662909 C346.482622,325.197225 340.663148,334.47735 341.035956,343.027048 C340.812115,396.590366 341.1107,450.227403 340.886859,503.790593 C340.587752,511.318309 342.155421,520.525608 349.167931,524.909824 C358.121309,531.999182 373.042605,527.760873 377.44468,517.603011 C379.458597,512.780438 379.757182,507.519508 379.831926,502.330125 C379.757182,451.178477 379.68296,400.025679 379.831926,348.873393 C379.757182,342.881653 379.533341,336.451045 375.952407,331.336021 C371.998014,324.612322 363.045027,321.543819 355.435478,323.662909 Z M220.320583,396.590877 C207.935746,406.821948 200.027534,421.510059 196.521279,436.855515 C192.864897,450.301123 193.536811,464.550749 196.296916,478.142902 C199.057661,491.735055 204.951826,505.327081 215.396473,514.972226 C230.989031,530.610773 256.579689,533.899158 276.723941,525.641144 C283.662228,522.645338 289.108373,517.31056 294.032483,511.756667 C293.808251,518.845386 294.330546,526.226046 291.570493,532.948595 C287.914685,542.66746 278.066074,549.172555 267.770433,550.486478 C254.191791,552.53351 240.61328,548.441746 228.228848,543.398908 C221.29056,541.058914 213.680359,537.186776 206.518257,540.840821 C201.145865,544.201776 196.66975,549.827855 196.594953,556.259103 C196.819251,562.981651 201.892001,568.390149 207.413412,571.751104 C218.306145,578.254409 230.989553,580.959553 243.299763,583.297375 C262.996333,585.562372 284.259399,584.248449 301.717559,574.308041 C311.043744,569.120319 318.653424,561.30194 324.025216,552.240547 C330.814537,540.18271 333.052947,526.153349 332.828584,512.560173 C332.75384,478.434842 332.75384,444.309384 332.828584,410.256239 C332.90398,403.094183 332.157191,395.202468 326.711177,389.868329 C320.145697,382.706273 308.208295,382.852818 300.598615,388.260293 C297.24087,391.475853 295.524756,395.78737 293.659806,399.879134 C290.452071,395.933277 286.646775,392.353207 282.46854,389.356762 C263.145299,377.957036 236.809027,382.122009 220.320583,396.590877 Z M261.429837,418.002559 C267.547244,417.710108 274.113246,418.879274 278.962742,422.752945 C285.602575,426.991254 288.735435,434.371786 291.347174,441.386786 C294.182102,451.544137 294.928238,462.578076 291.27243,472.58952 C288.735435,480.481746 283.885939,488.373462 276.126771,492.173924 C264.861283,497.800514 249.193328,495.242427 241.807489,484.720055 C235.540464,477.12028 233.675514,467.035627 233.004122,457.463179 C232.93003,446.940168 235.913924,436.271762 242.479404,427.794633 C246.955571,422.021625 254.043477,418.294883 261.429837,418.002559 Z M453.917677,382.853329 C442.651798,383.291686 431.236691,386.068505 421.612964,392.060245 C400.349507,404.483103 387.442649,428.086573 385.875762,451.981856 C385.428081,468.423398 388.860178,485.59626 398.33546,499.480736 C404.602355,509.418845 413.853275,517.529802 424.522245,522.790733 C445.039043,533.313744 471.077383,532.145088 490.848697,520.452911 C509.574899,510.002597 520.840909,489.761871 524.347229,469.373961 C528.376366,443.35946 519.124273,415.006625 498.159792,398.053006 C485.999201,387.968353 469.95857,382.268554 453.917677,382.853329 Z M453.917677,418.002559 C460.035214,417.710108 466.600694,418.879274 471.45019,422.752434 C477.642993,426.7715 481.149183,433.494049 483.611303,440.143772 C487.341986,452.566759 487.565697,466.59727 481.223927,478.216111 C476.74776,488.081521 466.601216,495.753483 455.111365,495.022801 C443.92023,495.170369 433.774077,487.642653 429.446485,477.704544 C421.98525,461.409037 423.328557,440.582769 435.191084,426.552258 C439.667773,421.071062 446.904124,418.294883 453.917677,418.002559 Z M535.686809,329.9471 C532.180097,334.47735 530.986931,340.323694 531.135376,345.950796 C531.284342,398.345458 531.208946,450.667422 531.135376,503.061445 C531.28382,508.468921 531.208424,514.388474 534.193492,519.137838 C539.341573,528.930551 553.666221,530.830015 562.619729,525.05803 C566.424504,521.915551 568.215884,517.092467 570.229409,512.780949 C579.481372,525.71448 596.790044,531.999693 612.606966,529.514815 C626.707903,527.980627 639.98796,521.111661 649.537464,510.808276 C659.833496,499.334191 666.771914,484.938659 668.860705,469.738982 C671.174381,457.02431 669.085068,443.944362 666.100522,431.521376 C661.475388,416.028736 652.895861,400.756488 638.644783,391.987547 C618.277342,378.029734 589.031398,380.441276 570.00609,395.714162 C569.857645,379.857012 570.081486,363.999862 570.081486,348.142584 C569.931868,341.93109 569.931868,334.842882 565.455831,329.9471 C558.665858,320.593256 542.625096,320.958405 535.686809,329.9471 Z M599.401653,417.856014 C606.639178,417.417656 613.801306,420.194347 618.949257,425.163465 C634.169138,441.458973 634.765134,469.0083 620.515752,486.034617 C611.711863,496.557628 593.95616,498.019757 583.584732,488.957725 C573.736251,480.846895 570.528516,467.693228 570.229931,455.562692 C569.708157,445.11289 573.362791,434.736424 579.928924,426.551747 C584.629975,420.925156 592.090558,418.147826 599.401653,417.856014 Z M742.648393,382.853329 C731.382383,383.291686 719.967407,386.068505 710.343811,392.060245 C689.081267,404.483103 676.172843,428.086573 674.606478,451.981856 C674.158927,468.423398 677.590372,485.59626 687.065524,499.480736 C693.332549,509.418845 702.51029,517.529802 713.25283,522.790733 C733.770412,533.313744 759.808621,532.145088 779.580326,520.452911 C798.305745,510.002597 809.571885,489.761871 813.077553,469.373961 C817.107082,443.35946 807.854989,415.006625 786.890769,398.053006 C774.729917,387.968353 758.689285,382.268554 742.648393,382.853329 Z M742.648393,418.002559 C748.766974,417.710108 755.33141,418.879274 760.181428,422.752434 C766.373579,426.7715 769.880421,433.494049 772.342019,440.143772 C776.072702,452.566759 776.295891,466.59727 769.954121,478.216111 C765.478606,488.081521 755.33141,495.753483 743.842081,495.022801 C732.650946,495.170369 722.504402,487.642653 718.177723,477.704544 C710.716488,461.409037 712.059273,440.582769 723.9218,426.552258 C728.398489,421.071062 735.635883,418.294883 742.648393,418.002559 Z M377.817879,545.078491 C360.061133,546.687165 343.721786,557.063631 334.246635,571.751615 C323.950994,587.096687 320.444282,606.46236 324.547642,624.365519 C328.427291,644.388281 342.826683,662.656462 362.597476,669.74582 C379.160664,675.81013 398.483905,674.056699 414.076985,666.017928 C419.971203,663.169178 425.715802,657.614646 425.193507,650.672472 C425.939643,641.758007 416.091032,633.647177 407.287664,636.715169 C399.453752,639.054525 391.993039,643.512077 383.561957,642.561514 C372.445565,642.6337 363.641676,633.646666 359.687282,624.220124 C354.987274,610.262822 356.479547,593.090088 367.297484,582.201928 C374.235771,575.77017 384.606156,573.870833 393.633756,576.500979 C400.572044,577.962597 406.914465,582.786192 414.300304,581.543944 C423.775456,579.350879 427.879468,567.366377 423.775456,559.328756 C421.015272,555.236992 416.688202,552.240547 412.13716,550.194027 C401.319354,546.102263 389.531049,543.617512 377.817879,545.078491 Z M600.671259,547.052825 C593.806672,549.098707 588.061421,553.629979 582.912948,558.451402 C581.868096,555.749069 581.047346,552.751603 578.808936,550.706232 C571.497841,542.66746 555.829887,545.51851 552.1746,555.674711 C549.190706,561.520544 550.085287,568.390149 549.786702,574.67434 C549.936843,599.008619 549.711828,623.415595 549.861447,647.748725 C550.085287,654.472295 550.234254,662.072709 555.233238,667.333128 C561.798849,674.275303 574.631354,673.399099 580.226987,665.798813 C583.434722,662.072709 584.256124,656.882176 584.18125,652.13294 C584.330347,633.86412 584.03124,615.594917 584.18125,597.326736 C584.18125,591.188962 584.777246,584.757332 588.507929,579.642819 C594.924442,571.312235 608.279243,570.436031 616.486093,576.647013 C620.664719,580.519023 623.275936,585.854823 623.723487,591.480903 C624.096164,610.9194 623.275936,630.430468 623.946676,649.940513 C624.171039,655.640951 624.61859,661.852444 628.423365,666.529622 C631.780197,670.035972 636.480596,672.740987 641.628677,671.86325 C651.029737,672.22891 658.415576,663.168667 657.892628,654.325878 C658.49032,634.815322 657.668918,615.304126 658.116991,595.865118 C658.191735,589.071022 659.75823,581.397399 665.652448,577.013184 C671.173337,571.678406 679.827608,571.825462 686.691673,574.383038 C693.331375,577.306146 696.988358,584.61347 697.584354,591.481414 C697.883461,609.750234 697.28629,628.018926 697.65975,646.287618 C697.883461,653.011316 697.808717,660.31864 701.986951,666.091775 C707.358743,673.106775 718.624231,673.764886 725.413552,668.429597 C730.860088,664.703366 732.053776,657.541438 731.979553,651.403281 C731.829935,630.72343 732.053254,609.969348 731.829935,589.288476 C732.053254,577.306146 728.249523,564.88316 719.296015,556.405009 C708.776663,547.197582 693.92972,543.325572 680.127237,545.15285 C668.414197,546.979617 657.820102,553.190982 649.537986,561.375149 C646.329729,558.086381 643.047772,554.798634 639.242345,552.240547 C628.275572,544.422041 613.354276,542.813494 600.671259,547.052825 Z M477.79196,545.078491 C470.704054,545.956995 463.541404,547.783634 457.274378,551.217926 C438.921115,560.424586 427.132679,579.205994 423.775456,598.788865 C420.044904,622.685297 429.370567,648.920063 449.813796,663.169178 C472.49426,679.026328 506.590353,676.248615 526.137435,656.665233 C551.205275,631.747201 551.1304,587.097198 525.83885,562.39892 C513.752481,549.756308 495.473831,542.813494 477.79196,545.078491 Z M480.030239,575.77017 C489.430125,573.943531 499.502577,578.255048 504.350899,586.365878 C512.857378,599.884695 513.154789,618.301082 504.50104,631.819388 C498.457855,641.97725 484.207952,645.631167 473.538981,640.661666 C460.632254,634.085024 456.304531,618.666231 457.349253,605.365891 C457.871549,592.577372 465.854558,577.597448 480.030239,575.77017 Z M300.971944,637.883825 C291.720503,639.565197 284.931313,649.285212 286.796263,658.419303 C288.213661,666.748737 296.271545,673.98349 305.149526,673.252681 C315.147235,673.691039 324.47342,664.191288 323.055369,654.326389 C323.130113,643.729531 311.56617,634.888403 300.971944,637.883825 Z" id="path-1"></path>
    </defs>
    <g id="Grid-Clear-Copy-4" stroke="none" stroke-width="1" fill="none" fill-rule="evenodd">
        <g id="Group">
            <circle id="Fundo" fill="#0669DE" cx="500" cy="500" r="500"></circle>
            <mask id="mask-2" fill="white">
                <use xlink:href="#path-1"></use>
            </mask>
            <use id="Clip-2" fill="#FFFFFF" xlink:href="#path-1"></use>
        </g>
    </g>
</svg>