<svg xmlns="http://www.w3.org/2000/svg" xmlns:xlink="http://www.w3.org/1999/xlink" width="1500" zoomAndPan="magnify" viewBox="0 0 2250 149.999998" height="100" preserveAspectRatio="xMidYMid meet" version="1.0"><defs><clipPath id="5cc2e82d54"><path d="M 0 0 L 562.5 0 L 562.5 103.5 L 0 103.5 Z M 0 0 " clip-rule="nonzero"/></clipPath><clipPath id="bebc621d35"><path d="M 562.5 0 L 1125 0 L 1125 103.5 L 562.5 103.5 Z M 562.5 0 " clip-rule="nonzero"/></clipPath><clipPath id="cb3a762244"><path d="M 1125 0 L 1687.5 0 L 1687.5 103.5 L 1125 103.5 Z M 1125 0 " clip-rule="nonzero"/></clipPath><clipPath id="1fcbdda431"><path d="M 1687.5 0 L 2250 0 L 2250 103.5 L 1687.5 103.5 Z M 1687.5 0 " clip-rule="nonzero"/></clipPath><clipPath id="7c1c1644ba"><path d="M 1113.75 0 L 1136.25 0 L 1136.25 103.125 L 1113.75 103.125 Z M 1113.75 0 " clip-rule="nonzero"/></clipPath><clipPath id="0586da6826"><path d="M 1113.75 11.25 L 1113.75 103.125 L 1136.25 103.125 L 1136.25 11.25 L 1125 0 Z M 1113.75 11.25 " clip-rule="nonzero"/></clipPath><clipPath id="265055c5ed"><path d="M 0 0 L 11.25 0 L 11.25 103.125 L 0 103.125 Z M 0 0 " clip-rule="nonzero"/></clipPath><clipPath id="f80bfb94d4"><path d="M -11.25 11.25 L -11.25 103.125 L 11.25 103.125 L 11.25 11.25 L 0 0 Z M -11.25 11.25 " clip-rule="nonzero"/></clipPath><clipPath id="054d83f1b3"><path d="M 551.25 9.550781 L 573.75 9.550781 L 573.75 112.675781 L 551.25 112.675781 Z M 551.25 9.550781 " clip-rule="nonzero"/></clipPath><clipPath id="df6c5a6cf1"><path d="M 551.25 20.800781 L 551.25 112.675781 L 573.75 112.675781 L 573.75 20.800781 L 562.5 9.550781 Z M 551.25 20.800781 " clip-rule="nonzero"/></clipPath><clipPath id="150a957478"><path d="M 1676.25 9.550781 L 1698.75 9.550781 L 1698.75 112.675781 L 1676.25 112.675781 Z M 1676.25 9.550781 " clip-rule="nonzero"/></clipPath><clipPath id="6e64f43839"><path d="M 1676.25 20.800781 L 1676.25 112.675781 L 1698.75 112.675781 L 1698.75 20.800781 L 1687.5 9.550781 Z M 1676.25 20.800781 " clip-rule="nonzero"/></clipPath><clipPath id="5bc54aa0c7"><path d="M 2238.75 0 L 2250 0 L 2250 103.125 L 2238.75 103.125 Z M 2238.75 0 " clip-rule="nonzero"/></clipPath><clipPath id="8e882f9959"><path d="M 2238.75 11.25 L 2238.75 103.125 L 2261.25 103.125 L 2261.25 11.25 L 2250 0 Z M 2238.75 11.25 " clip-rule="nonzero"/></clipPath><clipPath id="f009b1685c"><path d="M 0 52.5 L 2250 52.5 L 2250 150 L 0 150 Z M 0 52.5 " clip-rule="nonzero"/></clipPath></defs><g clip-path="url(#5cc2e82d54)"><path fill="#20284f" d="M 0 0 L 15.625 5.4375 C 31.25 10.8125 62.5 21.6875 93.75 19.8125 C 125 17.9375 156.25 3.3125 187.5 2.9375 C 218.75 2.5 250 16.25 281.25 18.4375 C 312.5 20.625 343.75 11.25 375 11.6875 C 406.25 12.0625 437.5 22.3125 468.75 23.5625 C 500 24.8125 531.25 17.0625 546.875 13.25 L 562.5 9.375 L 562.5 103.125 L 546.875 103.125 C 531.25 103.125 500 103.125 468.75 103.125 C 437.5 103.125 406.25 103.125 375 103.125 C 343.75 103.125 312.5 103.125 281.25 103.125 C 250 103.125 218.75 103.125 187.5 103.125 C 156.25 103.125 125 103.125 93.75 103.125 C 62.5 103.125 31.25 103.125 15.625 103.125 L 0 103.125 Z M 0 0 " fill-opacity="1" fill-rule="nonzero"/></g><g clip-path="url(#bebc621d35)"><path fill="#20284f" d="M 1125 0 L 1109.375 5.4375 C 1093.75 10.8125 1062.5 21.6875 1031.25 19.8125 C 1000 17.9375 968.75 3.3125 937.5 2.9375 C 906.25 2.5 875 16.25 843.75 18.4375 C 812.5 20.625 781.25 11.25 750 11.6875 C 718.75 12.0625 687.5 22.3125 656.25 23.5625 C 625 24.8125 593.75 17.0625 578.125 13.25 L 562.5 9.375 L 562.5 103.125 L 578.125 103.125 C 593.75 103.125 625 103.125 656.25 103.125 C 687.5 103.125 718.75 103.125 750 103.125 C 781.25 103.125 812.5 103.125 843.75 103.125 C 875 103.125 906.25 103.125 937.5 103.125 C 968.75 103.125 1000 103.125 1031.25 103.125 C 1062.5 103.125 1093.75 103.125 1109.375 103.125 L 1125 103.125 Z M 1125 0 " fill-opacity="1" fill-rule="nonzero"/></g><g clip-path="url(#cb3a762244)"><path fill="#20284f" d="M 1125 0 L 1140.625 5.4375 C 1156.25 10.8125 1187.5 21.6875 1218.75 19.8125 C 1250 17.9375 1281.25 3.3125 1312.5 2.9375 C 1343.75 2.5 1375 16.25 1406.25 18.4375 C 1437.5 20.625 1468.75 11.25 1500 11.6875 C 1531.25 12.0625 1562.5 22.3125 1593.75 23.5625 C 1625 24.8125 1656.25 17.0625 1671.875 13.25 L 1687.5 9.375 L 1687.5 103.125 L 1671.875 103.125 C 1656.25 103.125 1625 103.125 1593.75 103.125 C 1562.5 103.125 1531.25 103.125 1500 103.125 C 1468.75 103.125 1437.5 103.125 1406.25 103.125 C 1375 103.125 1343.75 103.125 1312.5 103.125 C 1281.25 103.125 1250 103.125 1218.75 103.125 C 1187.5 103.125 1156.25 103.125 1140.625 103.125 L 1125 103.125 Z M 1125 0 " fill-opacity="1" fill-rule="nonzero"/></g><g clip-path="url(#1fcbdda431)"><path fill="#20284f" d="M 2250 0 L 2234.375 5.4375 C 2218.75 10.8125 2187.5 21.6875 2156.25 19.8125 C 2125 17.9375 2093.75 3.3125 2062.5 2.9375 C 2031.25 2.5 2000 16.25 1968.75 18.4375 C 1937.5 20.625 1906.25 11.25 1875 11.6875 C 1843.75 12.0625 1812.5 22.3125 1781.25 23.5625 C 1750 24.8125 1718.75 17.0625 1703.125 13.25 L 1687.5 9.375 L 1687.5 103.125 L 1703.125 103.125 C 1718.75 103.125 1750 103.125 1781.25 103.125 C 1812.5 103.125 1843.75 103.125 1875 103.125 C 1906.25 103.125 1937.5 103.125 1968.75 103.125 C 2000 103.125 2031.25 103.125 2062.5 103.125 C 2093.75 103.125 2125 103.125 2156.25 103.125 C 2187.5 103.125 2218.75 103.125 2234.375 103.125 L 2250 103.125 Z M 2250 0 " fill-opacity="1" fill-rule="nonzero"/></g><g clip-path="url(#7c1c1644ba)"><g clip-path="url(#0586da6826)"><path fill="#20284f" d="M 1113.75 103.125 L 1113.75 0 L 1136.25 0 L 1136.25 103.125 Z M 1113.75 103.125 " fill-opacity="1" fill-rule="nonzero"/></g></g><g clip-path="url(#265055c5ed)"><g clip-path="url(#f80bfb94d4)"><path fill="#20284f" d="M -11.25 103.125 L -11.25 0 L 11.25 0 L 11.25 103.125 Z M -11.25 103.125 " fill-opacity="1" fill-rule="nonzero"/></g></g><g clip-path="url(#054d83f1b3)"><g clip-path="url(#df6c5a6cf1)"><path fill="#20284f" d="M 551.25 112.675781 L 551.25 9.550781 L 573.75 9.550781 L 573.75 112.675781 Z M 551.25 112.675781 " fill-opacity="1" fill-rule="nonzero"/></g></g><g clip-path="url(#150a957478)"><g clip-path="url(#6e64f43839)"><path fill="#20284f" d="M 1676.25 112.675781 L 1676.25 9.550781 L 1698.75 9.550781 L 1698.75 112.675781 Z M 1676.25 112.675781 " fill-opacity="1" fill-rule="nonzero"/></g></g><g clip-path="url(#5bc54aa0c7)"><g clip-path="url(#8e882f9959)"><path fill="#20284f" d="M 2238.75 103.125 L 2238.75 0 L 2261.25 0 L 2261.25 103.125 Z M 2238.75 103.125 " fill-opacity="1" fill-rule="nonzero"/></g></g><g clip-path="url(#f009b1685c)"><path fill="#20284f" d="M -33.332031 52.5 L 2268.28125 52.5 L 2268.28125 150 L -33.332031 150 Z M -33.332031 52.5 " fill-opacity="1" fill-rule="nonzero"/></g></svg>